<?xml version="1.0" standalone="no"?>
<!DOCTYPE svg PUBLIC "-//W3C//DTD SVG 20010904//EN"
 "http://www.w3.org/TR/2001/REC-SVG-20010904/DTD/svg10.dtd">
<svg version="1.0" xmlns="http://www.w3.org/2000/svg"
 width="640.000000pt" height="427.000000pt" viewBox="0 0 640.000000 427.000000"
 preserveAspectRatio="xMidYMid meet">

<g transform="translate(0.000000,427.000000) scale(0.100000,-0.100000)"
fill="#000000" stroke="none">
<path d="M0 3866 l0 -405 25 -19 c23 -18 23 -21 8 -25 -14 -3 -11 -7 12 -16
61 -25 91 -43 130 -76 l40 -35 -104 35 c-58 19 -106 35 -108 35 -2 0 -3 -24
-3 -54 l0 -55 38 -4 37 -4 -37 -1 -38 -2 0 -45 c0 -25 1 -45 3 -45 1 0 60 11
132 24 84 16 132 21 136 14 3 -5 9 -40 12 -76 4 -37 9 -88 12 -114 4 -35 2
-48 -7 -48 -7 0 -24 -3 -38 -6 -24 -5 -25 -5 -5 11 20 16 19 16 -5 10 -66 -15
-135 -22 -141 -13 -7 11 -59 0 -59 -13 0 -5 11 -9 25 -9 14 0 25 -4 25 -10 0
-5 -9 -10 -19 -10 -11 0 -26 -3 -35 -6 -12 -5 -16 0 -16 19 0 14 -4 29 -10 32
-6 4 -9 -22 -9 -70 1 -67 3 -75 20 -75 16 0 19 -6 17 -40 -2 -22 -6 -40 -10
-40 -5 0 -8 6 -8 13 0 9 -2 9 -9 -1 -4 -8 -9 -63 -10 -123 -2 -105 -1 -110 21
-118 21 -8 58 -44 58 -56 0 -3 -15 -5 -34 -5 -24 0 -36 5 -39 18 -3 9 -5 -157
-6 -370 l-1 -387 31 2 c23 1 33 -3 34 -14 2 -9 6 -26 10 -38 8 -25 -10 -29
-19 -4 -5 12 -9 14 -18 5 -15 -15 -32 -16 -23 -2 3 5 1 10 -4 10 -8 0 -11 -66
-11 -200 0 -178 2 -200 16 -200 13 0 14 3 5 14 -7 8 -8 16 -4 19 14 8 38 -7
39 -25 1 -10 -2 -15 -7 -12 -5 3 -9 0 -9 -5 0 -6 9 -11 19 -11 11 0 22 -4 26
-9 3 -5 -8 -8 -24 -6 -25 3 -29 1 -24 -13 6 -15 5 -15 -11 -2 -11 8 -14 16 -7
18 12 4 5 22 -9 22 -5 0 -9 -42 -9 -94 l-1 -93 25 3 c14 1 23 -2 19 -7 -3 -5
-14 -9 -25 -9 -15 0 -19 -6 -17 -29 1 -19 7 -27 15 -24 7 3 13 0 13 -6 0 -6
-6 -11 -13 -11 -9 0 -13 -23 -15 -84 -1 -78 0 -84 20 -89 12 -3 30 -1 41 5 18
9 19 11 4 20 -10 5 -17 16 -17 23 0 8 -5 15 -11 15 -6 0 -9 7 -5 15 3 8 2 15
-3 15 -4 0 -5 15 -3 32 3 18 7 27 9 21 6 -18 23 -16 23 2 0 8 4 15 10 15 5 0
7 -7 4 -15 -5 -11 1 -15 20 -15 16 0 26 -6 26 -15 0 -8 6 -15 14 -15 8 0 17
-8 20 -17 5 -13 9 -14 19 -4 9 10 7 16 -11 31 -29 24 -28 35 3 38 14 1 25 -3
25 -8 0 -6 -4 -10 -10 -10 -5 0 2 -11 15 -25 35 -34 32 -55 -5 -55 -18 0 -33
6 -36 15 -4 8 -13 15 -21 15 -8 0 -11 -5 -8 -10 3 -6 1 -10 -6 -10 -7 0 -5 -8
7 -19 11 -10 29 -17 42 -14 14 2 22 -2 22 -11 0 -10 6 -13 15 -10 8 4 15 14
15 24 0 11 4 22 10 25 5 3 10 1 10 -5 0 -6 11 -16 25 -22 14 -6 25 -17 25 -25
0 -7 7 -16 15 -19 12 -5 13 -10 4 -20 -6 -8 -8 -14 -4 -14 4 0 2 -7 -5 -15 -7
-9 -10 -19 -6 -22 4 -4 11 -1 16 7 6 8 10 10 10 5 0 -6 -6 -17 -12 -24 -11
-11 -8 -13 12 -8 21 5 26 3 26 -14 0 -14 -5 -18 -16 -13 -8 3 -22 7 -29 8 -8
2 -17 8 -19 14 -2 7 -11 12 -20 12 -15 1 -15 2 1 14 9 7 17 19 17 26 0 9 -4 9
-12 2 -7 -5 -25 -9 -40 -7 -19 2 -25 -1 -22 -10 7 -16 -12 -29 -21 -15 -4 6
-15 8 -26 5 -14 -5 -17 -2 -13 8 3 10 -2 18 -16 22 -12 4 -19 12 -17 19 4 9
-4 13 -24 12 -29 -1 -39 -11 -17 -18 22 -8 -1 -36 -35 -42 l-35 -6 -1 -361 -2
-360 155 2 c119 0 156 4 160 14 3 8 0 15 -6 17 -13 5 -2 28 13 28 6 0 7 -5 4
-10 -7 -12 37 -4 68 12 14 7 16 13 7 23 -8 10 -7 14 2 18 9 4 7 6 -4 6 -29 2
-29 18 0 19 23 0 27 -4 28 -28 1 -16 -4 -31 -12 -34 -8 -3 -11 -12 -7 -22 5
-15 2 -16 -27 -11 -32 7 -60 -5 -60 -24 0 -5 35 -8 77 -8 59 1 80 5 90 17 11
16 12 16 13 0 0 -28 27 -10 28 18 0 32 6 38 29 25 17 -10 17 -10 1 -11 -13 0
-17 -7 -16 -25 2 -20 8 -25 31 -25 16 0 26 4 22 10 -3 6 -14 10 -23 10 -14 0
-14 2 2 17 14 13 20 15 23 5 3 -6 10 -9 15 -6 7 4 8 2 4 -4 -4 -8 3 -16 19
-22 36 -14 2185 -14 2185 0 0 6 -6 10 -14 10 -9 0 -12 7 -9 20 4 16 9 18 19 9
7 -6 22 -8 33 -4 16 5 20 3 15 -9 -3 -9 -10 -13 -15 -10 -5 3 -9 -2 -9 -10 0
-14 92 -16 885 -16 554 0 885 4 885 10 0 5 8 7 18 4 16 -5 16 -5 0 9 -10 8
-15 17 -11 20 3 4 1 7 -5 7 -7 0 -12 -4 -12 -10 0 -5 -4 -10 -10 -10 -21 0 -9
30 13 31 12 0 30 2 40 4 9 2 17 -1 17 -7 0 -6 -7 -8 -15 -4 -8 3 -15 1 -15 -4
0 -6 6 -10 14 -10 8 0 22 -3 32 -7 12 -4 15 -3 10 5 -9 15 -1 15 25 2 10 -6
19 -17 19 -25 0 -8 5 -15 11 -15 5 0 7 4 4 10 -3 5 -1 10 4 10 6 0 11 -4 11
-10 0 -6 29 -10 66 -10 61 0 66 2 61 19 -4 17 -2 18 13 8 10 -6 16 -15 14 -19
-3 -4 7 -8 21 -8 20 0 26 4 22 14 -4 10 -1 13 9 9 7 -3 14 -9 14 -14 0 -5 155
-9 359 -9 334 0 360 1 364 18 4 15 5 15 6 -2 1 -15 4 -16 15 -7 10 8 16 9 21
1 4 -6 115 -10 331 -10 l324 0 0 285 c0 192 -3 285 -10 285 -6 0 -25 -8 -43
-17 -18 -9 -43 -16 -56 -14 -13 1 -21 -2 -17 -7 3 -5 -31 -20 -77 -32 -45 -13
-136 -41 -201 -62 l-119 -39 -23 28 c-13 15 -52 64 -86 108 -68 85 -75 89
-182 101 -33 3 -54 9 -47 13 9 6 5 12 -11 23 -26 17 -123 42 -135 35 -8 -5
-163 8 -198 17 -11 2 -23 5 -27 5 -5 1 -8 16 -8 35 0 28 -6 38 -35 56 -19 12
-39 19 -45 15 -6 -4 -10 9 -10 33 0 26 -5 42 -15 46 -12 4 -15 26 -15 110 0
93 2 105 16 99 13 -5 15 -17 12 -59 -4 -43 -1 -57 13 -70 16 -14 21 -15 36 -3
11 9 14 10 9 2 -4 -7 -3 -13 2 -13 12 0 22 34 22 73 0 16 5 38 11 49 7 13 7
24 1 30 -8 8 2 82 14 96 1 2 15 -5 31 -16 15 -11 80 -53 143 -92 132 -83 428
-272 481 -307 19 -12 41 -23 48 -23 7 0 39 22 70 48 54 47 62 50 253 103 l198
54 0 46 c0 42 -13 69 -32 69 -4 0 -8 -25 -8 -55 0 -42 -3 -55 -15 -55 -11 0
-15 11 -15 43 0 73 8 89 41 82 18 -4 29 -2 29 4 0 6 -5 11 -11 11 -16 0 -139
60 -184 90 -43 29 -567 331 -672 388 -70 37 -83 51 -25 26 20 -8 84 -33 141
-55 58 -22 107 -42 110 -46 3 -3 -3 -3 -14 1 -44 16 7 -16 185 -117 102 -58
248 -141 325 -185 l140 -81 3 337 2 337 -22 17 -23 17 23 -6 22 -5 0 266 c0
221 -2 266 -14 266 -8 0 -17 7 -20 16 -10 25 2 30 19 8 13 -17 14 20 12 325
l-2 344 -55 21 c-41 16 -49 22 -32 24 38 6 27 37 -17 50 -49 15 -68 15 -74 0
-3 -7 -6 17 -6 54 -1 61 -3 67 -23 71 l-23 4 23 8 c16 5 22 15 22 39 0 56 9
59 94 26 42 -17 81 -30 87 -30 5 0 9 17 9 38 0 37 -1 38 -57 57 -74 26 -82 49
-21 65 74 19 78 21 78 37 0 10 -5 13 -17 8 -10 -4 -49 -18 -87 -31 -66 -23
-68 -23 -63 -4 3 13 0 20 -9 20 -8 0 -14 -10 -14 -25 0 -19 -5 -25 -20 -25
-13 0 -20 6 -18 14 2 8 -1 14 -7 13 -5 -1 -10 -10 -9 -19 1 -19 -49 -39 -151
-58 -33 -7 -70 -18 -82 -26 -12 -7 -30 -11 -39 -7 -10 4 -15 2 -11 -3 3 -5
-19 -22 -48 -38 l-54 -28 -147 60 -147 60 2 102 c2 116 7 134 30 125 9 -4 78
-31 154 -60 l138 -52 67 14 c70 14 183 33 217 36 11 1 26 6 33 10 6 5 17 5 22
2 6 -4 16 -2 23 3 7 5 32 12 57 15 61 8 139 26 161 38 15 7 19 21 19 57 0 40
-5 53 -30 77 -26 25 -29 33 -24 67 4 25 3 38 -5 38 -10 0 -16 -21 -12 -43 1
-5 -3 -6 -9 -2 -5 3 -10 17 -10 31 0 13 -5 24 -11 24 -5 0 -7 -5 -4 -10 13
-22 -13 -8 -45 23 -20 19 -35 27 -37 20 -2 -7 -11 -9 -20 -6 -12 5 -14 1 -8
-15 5 -19 2 -22 -19 -22 -13 0 -31 -3 -40 -6 -14 -5 -16 5 -16 71 l0 77 33 -7
c17 -4 83 -24 145 -45 l112 -37 0 143 0 144 -43 0 c-50 0 -62 -7 -46 -27 9
-10 6 -12 -20 -7 -19 4 -31 2 -31 -4 0 -6 4 -12 10 -14 25 -8 -15 -32 -101
-58 -52 -15 -107 -33 -124 -40 l-30 -12 30 -12 30 -12 -59 -12 c-87 -18 -86
-18 -86 34 0 29 -4 43 -10 39 -6 -4 -10 -14 -9 -23 1 -10 1 -25 0 -36 -1 -15
-4 -16 -16 -6 -30 25 -14 -7 20 -40 40 -39 43 -50 16 -50 -11 0 -23 -5 -26
-11 -5 -7 4 -8 28 -4 20 4 43 3 53 -3 14 -8 6 -11 -37 -18 -71 -11 -99 -7
-129 19 -23 20 -24 20 -7 1 9 -11 14 -24 10 -27 -13 -14 -50 -6 -68 13 -10 11
-25 20 -33 20 -8 0 -2 -11 17 -29 18 -17 27 -32 21 -36 -5 -3 -10 -1 -10 4 0
6 -8 11 -17 11 -15 0 -16 -2 -3 -10 17 -11 17 -11 -80 -15 -30 -2 -82 -12
-115 -23 -33 -11 -88 -26 -122 -32 -35 -7 -63 -17 -63 -22 0 -10 48 -5 170 17
41 7 93 16 115 20 59 9 246 54 275 66 20 8 36 5 73 -11 26 -12 47 -23 47 -25
0 -2 -6 -2 -14 1 -8 3 -81 -8 -163 -25 -81 -16 -164 -33 -183 -36 -19 -3 -49
-12 -66 -20 -17 -8 -85 -26 -151 -40 l-121 -25 -128 50 c-130 50 -156 58 -139
41 15 -14 267 -112 290 -113 86 -2 92 -26 7 -30 l-52 -3 -1 -50 c-1 -27 -1
-60 0 -72 1 -13 -1 -23 -4 -23 -7 0 -175 70 -209 87 -21 11 -25 18 -17 26 6 6
11 37 11 68 0 67 -3 69 -145 90 l-90 14 -62 -33 c-43 -23 -63 -29 -64 -20 0 7
-4 3 -10 -10 l-9 -23 -28 20 c-16 11 -41 23 -58 27 -16 4 -47 16 -69 27 -22
11 -50 23 -63 26 -23 6 -23 10 -24 109 0 57 2 105 4 108 3 2 58 -16 122 -41
105 -40 122 -44 159 -35 23 5 141 27 262 49 121 23 228 43 238 45 10 2 17 -2
17 -10 0 -8 -9 -14 -19 -14 -11 0 -23 -4 -26 -10 -3 -5 -1 -10 6 -10 8 0 8 -4
1 -13 -8 -10 -2 -12 30 -9 26 3 38 1 34 -6 -7 -12 18 -64 27 -55 4 3 13 0 21
-7 9 -6 21 -10 28 -7 9 4 9 6 -2 7 -8 0 -26 10 -39 21 -20 17 -22 22 -11 29 9
5 20 4 29 -3 16 -14 161 -12 170 2 3 5 14 10 24 12 14 3 11 11 -21 47 -20 23
-42 42 -47 42 -6 0 -9 35 -8 84 2 96 -4 100 -50 34 -16 -22 -37 -42 -48 -45
-10 -3 -16 -9 -13 -14 3 -5 0 -9 -6 -9 -6 0 -8 -4 -5 -10 10 -17 -6 -12 -125
36 -115 46 -134 58 -125 81 3 10 -88 12 -410 13 -228 0 -415 -2 -415 -5 0 -3
7 -17 16 -30 9 -14 15 -25 12 -25 -2 0 -35 13 -73 30 -67 28 -142 38 -179 24
-25 -10 -19 -19 22 -33 20 -8 44 -19 52 -26 22 -18 220 -97 254 -101 56 -7 49
-23 -12 -27 -36 -2 -42 -5 -42 -24 0 -12 5 -25 10 -28 6 -3 10 -13 10 -21 0
-8 -5 -12 -10 -9 -7 4 -9 -2 -4 -19 6 -24 4 -26 -25 -26 -17 0 -31 5 -31 11 0
5 -4 7 -10 4 -5 -3 -20 3 -32 14 -12 12 -30 21 -40 21 -44 0 -56 19 -50 85 4
54 2 65 -17 84 -11 11 -21 17 -21 11 0 -5 -10 -10 -23 -10 -29 0 -66 -26 -76
-53 -5 -12 -24 -25 -49 -33 -39 -11 -47 -10 -142 29 -100 40 -100 41 -101 76
-1 20 -1 41 0 46 0 6 -16 9 -40 7 -29 -3 -39 -8 -35 -18 6 -17 -41 -19 -64 -4
-12 8 -8 10 14 8 30 -3 41 8 28 30 -7 10 -21 7 -64 -13 -54 -25 -88 -25 -88
-1 0 19 -66 13 -89 -8 -28 -25 -77 -25 -96 0 -8 10 -15 14 -15 8 0 -6 -21 -16
-47 -22 -55 -12 -99 2 -97 31 2 16 -31 17 -472 17 l-473 0 -3 -42 -3 -43 -90
-12 c-159 -22 -162 -23 -142 -38 16 -11 16 -13 2 -19 -9 -3 -13 -2 -10 4 17
28 -53 -10 -83 -45 -13 -15 -26 -24 -29 -21 -6 6 47 54 80 72 23 13 32 6 -113
90 -78 45 -91 49 -160 52 -59 3 -79 1 -89 -11 -7 -9 -19 -13 -27 -10 -9 3 -14
-1 -14 -11 0 -14 -6 -13 -33 8 -28 21 -45 26 -94 26 -52 0 -61 -3 -66 -20 -8
-32 -35 -35 -63 -9 l-26 24 -464 3 c-255 2 -464 0 -464 -5 0 -5 17 -17 38 -28
20 -10 52 -30 70 -43 19 -14 45 -24 58 -24 13 0 21 -5 17 -11 -4 -6 4 -7 23
-2 16 4 56 11 89 15 33 5 89 14 125 20 36 6 78 13 93 15 16 2 42 7 58 10 l29
7 0 -71 0 -70 -46 -32 c-26 -18 -60 -32 -75 -33 -28 -1 -45 -19 -34 -36 6 -10
-22 -17 -107 -25 -48 -5 -68 -4 -68 4 0 6 12 11 28 12 15 0 36 5 47 10 15 7
10 8 -22 6 -43 -3 -59 7 -25 16 12 3 11 5 -6 6 -37 2 -14 21 25 21 l36 0 -6
45 c-2 26 -7 48 -9 50 -2 3 -24 1 -49 -3 -40 -7 -44 -10 -46 -37 l-2 -30 8 30
7 30 5 -35 c5 -43 -25 -116 -36 -88 -4 10 -11 15 -16 12 -5 -3 -9 4 -9 15 0
12 -4 21 -9 21 -5 0 -7 -9 -4 -20 3 -11 0 -20 -6 -20 -13 0 -30 40 -24 56 5
14 -44 68 -69 77 -13 4 -18 17 -18 41 0 22 -6 36 -16 40 -24 9 -24 9 -24 -36
0 -47 12 -74 27 -65 6 4 8 -4 5 -18 -2 -14 -9 -25 -14 -25 -5 0 -7 4 -4 9 7
11 -19 22 -37 16 -12 -5 -15 18 -21 140 l-1 30 -132 3 -133 3 0 -405z m1106
366 c-25 -49 -38 -51 -76 -13 -23 23 -28 32 -15 27 45 -18 55 -18 55 -2 0 10
9 16 25 16 25 0 25 -1 11 -28z m1330 2 c18 -14 18 -15 -6 -8 -31 8 -50 24 -29
24 8 0 24 -7 35 -16z m2323 -103 c-18 -55 -35 -99 -37 -96 -2 2 10 49 28 105
17 56 34 100 37 97 2 -3 -10 -51 -28 -106z m-3318 48 c-31 -25 -41 -15 -11 11
13 11 26 17 29 14 3 -3 -5 -14 -18 -25z m1000 11 l24 -20 -35 17 c-44 20 -47
23 -28 23 9 0 26 -9 39 -20z m-1085 -57 c18 3 24 1 20 -9 -3 -8 0 -14 7 -15 7
0 1 -5 -12 -10 -14 -5 -30 -8 -36 -5 -6 2 -20 -3 -30 -10 -19 -14 -19 -14 4
-12 13 2 26 -3 29 -11 4 -11 -4 -13 -39 -7 -24 4 -46 11 -49 15 -3 5 -20 12
-37 16 -41 8 -53 25 -19 25 21 0 26 5 26 24 0 21 3 23 44 20 34 -3 46 1 52 14
6 14 9 11 12 -12 3 -24 7 -27 28 -23z m-226 18 c0 -5 3 -18 6 -28 6 -15 4 -16
-6 -6 -16 15 -22 43 -9 43 5 0 9 -4 9 -9z m0 -47 c57 -37 71 -45 148 -89 34
-20 62 -38 62 -40 0 -7 -64 17 -80 30 -8 7 -58 37 -110 68 -131 78 -130 77
-95 68 17 -5 50 -21 75 -37z m47 24 c-3 -8 -6 -5 -6 6 -1 11 2 17 5 13 3 -3 4
-12 1 -19z m2418 0 c14 -6 25 -18 26 -27 0 -9 3 -11 5 -5 4 9 14 9 39 1 47
-14 44 -23 -11 -31 -79 -10 -93 -8 -87 13 3 10 0 28 -6 40 -13 24 -4 27 34 9z
m-3342 -5 c-7 -2 -21 -2 -30 0 -10 3 -4 5 12 5 17 0 24 -2 18 -5z m3260 0 c-7
-2 -19 -2 -25 0 -7 3 -2 5 12 5 14 0 19 -2 13 -5z m-989 -18 c-4 -9 1 -18 11
-21 15 -6 141 9 190 23 15 4 17 2 9 -6 -12 -13 -191 -44 -211 -37 -15 6 -18
56 -3 56 5 0 7 -7 4 -15z m-491 -20 c26 -13 57 -11 57 4 0 9 59 11 65 2 2 -5
-3 -8 -13 -7 -9 0 -16 -5 -14 -11 1 -7 -5 -13 -14 -13 -9 0 -12 -5 -8 -12 5
-8 2 -9 -9 -5 -43 18 -49 16 -14 -3 22 -12 37 -24 34 -26 -9 -9 -77 38 -70 49
4 7 0 8 -11 4 -11 -5 -15 -3 -10 5 5 8 2 9 -10 5 -9 -4 -15 -3 -11 2 3 5 -1
12 -7 14 -7 3 -8 6 -3 6 6 1 23 -6 38 -14z m427 -101 c0 -13 5 -24 10 -24 6 0
10 -5 10 -11 0 -5 -5 -7 -12 -3 -7 5 -8 3 -3 -5 11 -19 38 11 38 43 0 14 5 26
12 26 6 0 20 9 30 20 22 25 59 20 120 -15 98 -55 211 -109 227 -108 10 1 18
-2 18 -7 0 -5 18 -19 40 -30 22 -11 40 -21 40 -23 0 -1 -17 -2 -38 -1 -38 1
-61 8 -134 44 -49 24 -59 25 -52 6 3 -9 -5 -16 -23 -21 -15 -3 -29 -2 -31 3
-1 5 -20 6 -45 1 -23 -4 -45 -8 -49 -9 -5 0 -8 -8 -8 -17 -1 -11 -7 -4 -15 14
-12 29 -17 32 -44 27 -23 -5 -32 -2 -37 9 -3 9 -12 13 -20 10 -8 -3 -25 2 -39
11 -23 15 -28 15 -56 1 -17 -9 -34 -14 -37 -10 -4 4 -9 40 -12 80 l-5 74 58
-31 c45 -24 57 -36 57 -54z m167 70 c-3 -3 -12 -4 -19 -1 -8 3 -5 6 6 6 11 1
17 -2 13 -5z m2685 -11 c22 -20 23 -29 1 -37 -10 -4 -14 -4 -10 0 4 4 0 18 -8
31 -18 27 -10 30 17 6z m148 13 c0 -2 -7 -7 -16 -10 -8 -3 -12 -2 -9 4 6 10
25 14 25 6z m-3660 -9 c0 -2 -15 -16 -32 -33 l-33 -29 29 33 c28 30 36 37 36
29z m460 -14 c29 -25 25 -33 -15 -33 -24 0 -35 5 -35 15 0 9 6 12 17 8 12 -5
15 -2 10 10 -8 22 -2 21 23 0z m556 -9 c18 -8 35 -18 39 -24 6 -10 -22 1 -85
33 -38 19 -8 14 46 -9z m981 11 c9 -25 -2 -27 -22 -5 -17 18 -17 20 -1 20 9 0
19 -7 23 -15z m920 -37 c-3 -8 -6 -5 -6 6 -1 11 2 17 5 13 3 -3 4 -12 1 -19z
m-3251 -25 c-8 -8 -36 10 -36 25 0 13 3 12 20 -3 11 -10 18 -20 16 -22z
m-1317 -55 c75 -49 97 -58 86 -35 -4 6 -1 5 7 -4 7 -9 26 -19 42 -23 17 -4 44
-17 60 -29 l31 -21 -20 24 c-23 27 -14 23 68 -33 32 -21 57 -40 55 -42 -2 -2
-59 15 -126 39 -94 32 -135 52 -170 82 -26 23 -66 53 -89 69 -24 15 -43 30
-43 32 0 5 5 2 99 -59z m1553 32 c-12 -12 -22 -18 -22 -14 0 12 33 45 38 39 3
-3 -4 -14 -16 -25z m411 -7 c-9 -3 -11 -14 -7 -30 6 -24 5 -25 -17 -19 -39 12
-62 12 -66 -1 -3 -9 5 -13 23 -13 16 0 24 -4 19 -8 -11 -10 -225 -46 -231 -39
-6 6 105 54 144 62 17 4 32 10 32 15 0 4 8 10 18 14 9 3 33 12 52 20 19 7 37
11 40 8 3 -2 -1 -7 -7 -9z m1037 -54 c0 -24 -11 -24 -44 2 -23 18 -25 23 -14
37 11 13 11 14 -2 7 -13 -8 -13 -7 0 9 13 17 15 17 37 -8 13 -15 23 -36 23
-47z m-1813 24 c-3 -10 -5 -4 -5 12 0 17 2 24 5 18 2 -7 2 -21 0 -30z m978 -8
c19 -14 38 -25 44 -25 6 0 11 -4 11 -10 0 -5 -2 -10 -5 -10 -13 0 -135 65
-135 72 0 15 52 -1 85 -27z m-1400 -50 c44 -29 95 -60 114 -69 37 -20 41 -19
289 20 84 13 157 24 162 24 6 0 10 -18 10 -39 0 -35 -3 -40 -31 -50 -34 -12
-49 -7 -49 15 0 8 -9 14 -20 14 -16 0 -19 -5 -15 -32 l5 -33 -12 30 c-17 40
-46 37 -40 -5 4 -26 1 -30 -34 -39 -49 -13 -114 -66 -114 -92 0 -11 -13 -27
-30 -38 -16 -10 -27 -20 -24 -24 3 -3 -5 -3 -18 0 -30 8 -49 33 -42 56 3 10
-1 20 -10 23 -9 3 -16 17 -16 31 0 14 -4 22 -10 18 -6 -4 -8 -16 -4 -28 7 -22
6 -22 -15 -3 -24 22 -28 38 -7 30 7 -3 16 2 20 11 3 9 2 14 -3 11 -4 -3 -8 11
-9 31 -2 40 -28 77 -49 68 -8 -2 -11 0 -8 5 3 6 2 10 -3 10 -4 0 -17 8 -28 18
-10 10 -39 29 -64 43 -25 13 -46 33 -48 43 -4 21 -12 24 103 -49z m-615 33 c0
-5 -5 -6 -11 -2 -6 3 -15 0 -20 -7 -6 -10 -8 -8 -7 7 2 15 7 20 20 16 10 -2
18 -9 18 -14z m1019 8 c-2 -2 -26 -6 -54 -9 -34 -4 -42 -3 -25 3 25 8 87 13
79 6z m394 -29 c35 7 34 -3 -2 -21 -27 -14 -30 -14 -52 10 l-24 25 26 -9 c14
-6 37 -8 52 -5z m1842 3 c3 -6 -4 -10 -17 -10 -18 0 -20 2 -8 10 19 12 18 12
25 0z m-365 -33 c0 -5 -4 -5 -10 -2 -5 3 -10 14 -10 23 0 15 2 15 10 2 5 -8
10 -19 10 -23z m-2476 -9 c17 -27 -1 -32 -31 -8 -22 17 -29 19 -38 8 -5 -8
-20 -14 -32 -15 -21 -2 -21 -1 -5 18 21 25 89 23 106 -3z m2059 -8 c30 -16 62
-30 73 -30 11 0 26 -6 33 -12 11 -10 14 -10 18 0 9 23 23 12 23 -18 0 -22 -5
-30 -17 -30 -10 0 -25 -5 -33 -11 -11 -8 -7 -9 18 -6 19 2 29 0 24 -5 -5 -5
-19 -10 -31 -11 -15 -1 -21 -8 -21 -25 0 -19 -4 -23 -20 -19 -11 3 -20 2 -20
-3 0 -4 -7 -11 -16 -14 -14 -5 -15 -4 -5 8 10 12 8 17 -8 25 -11 6 -26 11 -35
11 -35 0 -345 135 -334 145 2 3 53 -16 112 -41 80 -34 110 -43 116 -34 5 8 16
9 30 5 30 -9 41 10 33 58 -3 20 -3 37 1 37 3 0 30 -13 59 -30z m-1023 10 c0
-5 -5 -10 -11 -10 -5 0 -7 5 -4 10 3 6 8 10 11 10 2 0 4 -4 4 -10z m1305 -14
c11 -7 31 -17 45 -22 39 -14 109 -58 114 -71 3 -7 -1 -27 -9 -45 l-14 -33 -7
32 c-3 18 -13 38 -20 44 -22 18 -28 -15 -12 -66 21 -63 7 -73 -65 -43 -54 22
-55 22 -61 73 -8 70 -7 145 2 145 4 0 16 -6 27 -14z m824 5 c7 -5 10 -14 7
-20 -4 -6 -1 -11 6 -12 7 0 3 -5 -8 -11 -24 -11 -44 -67 -44 -122 0 -33 -2
-36 -27 -35 -16 0 -49 4 -75 8 -62 10 -261 -27 -341 -63 -57 -26 -85 -34 -58
-17 10 7 11 13 2 30 -12 22 -51 29 -51 9 0 -9 -3 -9 -12 0 -9 9 -8 20 5 47 9
19 21 35 27 35 5 0 10 5 10 11 0 6 -7 9 -15 5 -8 -3 -15 0 -15 6 0 7 -4 7 -13
0 -16 -14 -47 3 -32 17 6 5 102 25 215 45 252 45 352 65 358 71 8 8 46 5 61
-4z m972 -39 c-7 -2 -18 1 -23 6 -8 8 -4 9 13 5 13 -4 18 -8 10 -11z m765 9
c-3 -5 13 -16 35 -25 23 -9 39 -19 36 -22 -3 -3 -21 1 -40 10 -30 12 -36 12
-41 0 -3 -7 3 -18 14 -24 14 -8 20 -8 20 0 0 6 7 4 16 -4 8 -9 20 -16 25 -16
5 0 15 -5 22 -10 7 -6 21 -17 32 -26 16 -12 13 -12 -20 2 -22 9 -59 23 -83 32
-39 15 -43 20 -40 44 3 16 0 28 -6 29 -6 0 -2 4 9 9 27 11 27 11 21 1z m-4978
-21 c11 0 13 -3 5 -11 -11 -11 -63 -2 -63 11 0 11 34 18 38 8 2 -4 11 -8 20
-8z m1123 -2 c3 -5 16 -5 32 1 22 9 27 8 27 -5 0 -11 -6 -14 -22 -9 -21 5 -22
5 -4 -7 59 -40 88 -58 121 -73 19 -10 34 -19 32 -21 -2 -2 -45 14 -97 36 -51
23 -93 39 -94 38 -16 -38 -149 -278 -152 -275 -2 2 28 63 66 136 69 130 77
151 63 151 -5 0 -26 12 -48 25 l-40 26 55 -7 c30 -3 58 -11 61 -16z m124 -24
c8 3 17 -3 20 -15 7 -21 21 -25 27 -8 6 18 58 -8 58 -29 0 -10 5 -23 12 -30
22 -22 -4 -12 -79 29 -53 29 -73 45 -69 56 3 8 7 22 7 31 1 9 4 4 6 -11 3 -19
9 -27 18 -23z m2440 36 c3 -6 -1 -7 -9 -4 -18 7 -21 14 -7 14 6 0 13 -4 16
-10z m83 -23 c6 -5 12 -21 12 -34 0 -30 -20 -26 -37 7 -6 12 -17 26 -24 31 -9
5 -6 8 11 7 14 -1 31 -6 38 -11z m88 -43 c12 -10 11 -12 -6 -17 -18 -5 -20 -1
-19 36 1 27 3 33 6 17 2 -14 11 -30 19 -36z m1049 36 c3 -5 1 -10 -4 -10 -6 0
-11 5 -11 10 0 6 2 10 4 10 3 0 8 -4 11 -10z m-5215 -10 c0 -5 -15 -9 -32 -9
l-33 1 30 8 c17 4 31 8 33 9 1 0 2 -3 2 -9z m5245 0 c3 -5 1 -10 -4 -10 -6 0
-11 5 -11 10 0 6 2 10 4 10 3 0 8 -4 11 -10z m-5342 -17 c-7 -2 -19 -2 -25 0
-7 3 -2 5 12 5 14 0 19 -2 13 -5z m2344 -12 c1 -14 -8 -22 -35 -30 -30 -8 -31
-10 -7 -6 17 2 44 7 60 10 24 5 27 4 13 -5 -22 -14 -219 -50 -212 -39 3 5 12
9 20 9 8 0 14 9 14 20 0 47 144 87 147 41z m-2414 2 c-7 -2 -19 -2 -25 0 -7 3
-2 5 12 5 14 0 19 -2 13 -5z m4675 -18 c-3 -3 -9 2 -12 12 -6 14 -5 15 5 6 7
-7 10 -15 7 -18z m222 -24 c0 -33 4 -40 28 -49 15 -6 77 -31 137 -57 61 -25
115 -47 120 -49 6 -1 15 -5 21 -9 7 -4 26 -5 43 -3 17 2 31 0 31 -4 0 -5 2
-15 6 -23 4 -11 -12 -17 -71 -26 -65 -11 -81 -10 -108 2 -30 14 -185 83 -252
111 -30 13 -82 34 -142 56 -18 7 -35 21 -38 31 -7 21 -25 26 -25 7 0 -6 -2 -9
-5 -6 -3 3 -3 12 0 19 4 10 17 13 43 11 20 -2 66 4 102 11 106 24 110 23 110
-22z m-352 -34 l-1 -29 -33 38 c-42 49 -42 55 0 36 28 -13 34 -21 34 -45z
m-418 26 c11 -10 5 -9 -20 3 -45 22 -52 28 -20 19 14 -4 32 -14 40 -22z
m-3860 -2 c0 -5 -22 -23 -50 -40 -27 -17 -50 -26 -50 -20 0 6 -12 9 -27 8 -29
-3 -78 10 -70 17 3 3 44 12 92 19 48 8 90 17 93 20 8 8 12 6 12 -4z m190 -32
c47 -16 75 -29 63 -30 -13 -1 -29 -2 -35 -3 -7 -1 -16 -5 -19 -10 -4 -4 -35
13 -70 39 -35 26 -55 44 -44 40 11 -4 58 -20 105 -36z m2033 34 c-7 -2 -19 -2
-25 0 -7 3 -2 5 12 5 14 0 19 -2 13 -5z m79 -70 c-3 -27 0 -40 14 -50 16 -12
16 -13 1 -13 -15 0 -17 -11 -17 -78 l0 -79 -82 -12 c-156 -23 -313 -52 -329
-61 -14 -8 -17 0 -21 53 -3 34 -10 63 -16 65 -7 2 -12 10 -12 18 0 8 -7 29
-16 46 -15 29 -15 31 2 24 30 -12 36 -12 41 0 2 7 -3 19 -12 27 -14 15 -12 17
17 21 18 3 118 20 223 37 104 17 192 32 194 35 12 12 17 0 13 -33z m-2688 -8
c-24 -18 -34 -19 -34 -1 0 8 10 16 23 18 31 5 34 0 11 -17z m4813 -22 c-3 -10
-5 -2 -5 17 0 19 2 27 5 18 2 -10 2 -26 0 -35z m508 37 c3 -5 -1 -10 -10 -10
-9 0 -13 5 -10 10 3 6 8 10 10 10 2 0 7 -4 10 -10z m-625 -10 c0 -5 -4 -10 -9
-10 -6 0 -13 5 -16 10 -3 6 1 10 9 10 9 0 16 -4 16 -10z m-3268 -76 l118 -76
242 41 c133 23 244 38 247 35 3 -3 6 -60 6 -127 l0 -122 -145 -27 c-80 -15
-178 -33 -218 -41 -76 -14 -84 -11 -86 26 -1 11 -7 22 -15 25 -10 3 -12 0 -8
-12 9 -23 -2 -20 -53 14 -25 16 -50 30 -56 30 -5 0 -30 -13 -55 -29 -68 -43
-74 -34 -88 134 -6 77 -14 155 -17 173 -3 17 -2 32 2 32 4 0 60 -34 126 -76z
m1858 61 c10 -12 10 -15 -4 -15 -9 0 -16 7 -16 15 0 8 2 15 4 15 2 0 9 -7 16
-15z m-3173 -27 c-3 -8 -6 -5 -6 6 -1 11 2 17 5 13 3 -3 4 -12 1 -19z m86 -3
c21 6 22 6 3 -9 -28 -23 -36 -20 -35 12 1 17 3 21 6 9 3 -13 11 -16 26 -12z
m3692 16 c-3 -5 4 -13 16 -16 11 -4 18 -9 16 -12 -3 -2 -15 1 -27 7 -15 8 -30
9 -51 1 -39 -14 -37 -5 4 13 39 17 50 19 42 7z m-3200 -29 c17 -8 71 -30 122
-47 50 -18 106 -41 125 -52 19 -12 50 -21 74 -21 22 1 51 -5 64 -12 l23 -12
-24 -13 c-19 -11 -29 -11 -49 -1 -14 7 -86 32 -160 56 -85 27 -150 55 -176 74
-23 17 -50 37 -60 44 -17 11 -17 12 6 6 14 -4 39 -13 55 -22z m4105 10 c0 -13
-7 -17 -27 -16 -16 1 -34 3 -42 3 -22 1 -6 12 31 21 18 4 34 8 36 9 1 1 2 -7
2 -17z m-4730 -26 c0 -19 3 -42 7 -52 5 -15 2 -16 -28 -10 -37 7 -69 30 -34
24 15 -2 20 2 19 20 -1 12 4 22 12 22 8 0 11 6 8 15 -4 8 -1 15 5 15 6 0 11
-15 11 -34z m3190 4 c-8 -5 -17 -7 -19 -4 -3 3 1 9 9 14 8 5 17 7 19 4 3 -3
-1 -9 -9 -14z m-3247 3 c-7 -2 -19 -2 -25 0 -7 3 -2 5 12 5 14 0 19 -2 13 -5z
m117 -9 c0 -8 -5 -12 -10 -9 -6 4 -8 11 -5 16 9 14 15 11 15 -7z m3795 -29
c30 -14 55 -31 55 -37 0 -7 -4 -7 -13 1 -8 6 -38 22 -68 35 -30 14 -49 25 -42
25 7 1 37 -10 68 -24z m-552 -20 c-9 -19 -18 -33 -21 -31 -4 5 26 66 33 66 3
0 -3 -16 -12 -35z m-3253 -5 c-8 -5 -17 -7 -19 -4 -3 3 1 9 9 14 8 5 17 7 19
4 3 -3 -1 -9 -9 -14z m3007 -15 c48 -19 92 -35 99 -35 7 0 12 -9 11 -20 -1
-11 -4 -20 -7 -20 -3 0 -51 25 -105 55 -55 30 -97 55 -92 55 4 0 46 -16 94
-35z m1218 25 c-3 -5 -11 -10 -16 -10 -6 0 -7 5 -4 10 3 6 11 10 16 10 6 0 7
-4 4 -10z m345 -39 c0 -28 -1 -28 -111 -50 -61 -12 -138 -31 -171 -42 -33 -10
-67 -19 -74 -19 -8 0 -14 -4 -14 -9 0 -5 -23 -14 -50 -21 -29 -7 -50 -17 -48
-24 4 -12 248 -136 358 -181 95 -40 110 -47 110 -57 0 -4 -13 -8 -30 -8 -16 0
-30 -5 -30 -10 0 -6 10 -8 24 -4 21 5 23 3 19 -20 -7 -33 -33 -43 -34 -13 -2
32 -18 -51 -18 -95 -1 -21 -3 -38 -6 -38 -10 0 -141 73 -158 88 -16 15 -20 15
-46 -1 -23 -14 -33 -14 -60 -4 l-31 11 0 98 c0 101 -3 107 -45 98 -5 -1 -48
-10 -95 -19 -94 -20 -87 -21 -207 43 -63 33 -72 42 -75 69 -3 35 -28 50 -28
18 0 -12 -4 -21 -10 -21 -5 0 -7 6 -4 14 10 25 -16 28 -35 4 -11 -13 -22 -21
-25 -18 -4 5 -9 152 -7 213 1 14 19 8 111 -38 126 -63 140 -65 286 -34 153 32
254 47 260 38 5 -8 35 -1 44 12 5 6 158 45 188 48 7 1 12 -11 12 -28z m520 8
c0 -6 -4 -7 -10 -4 -5 3 -10 11 -10 16 0 6 5 7 10 4 6 -3 10 -11 10 -16z
m-4467 -16 c-7 -2 -19 -2 -25 0 -7 3 -2 5 12 5 14 0 19 -2 13 -5z m-56 -9 c-3
-3 -12 -4 -19 -1 -8 3 -5 6 6 6 11 1 17 -2 13 -5z m-431 -51 c-7 -7 -26 7 -26
19 0 6 6 6 15 -2 9 -7 13 -15 11 -17z m567 10 c-7 -2 -19 -2 -25 0 -7 3 -2 5
12 5 14 0 19 -2 13 -5z m-93 -13 c0 -5 -15 -9 -32 -9 l-33 1 30 8 c17 4 31 8
33 9 1 0 2 -3 2 -9z m43 3 c-7 -2 -19 -2 -25 0 -7 3 -2 5 12 5 14 0 19 -2 13
-5z m4688 -39 c5 -38 11 -35 23 11 3 11 4 4 2 -16 -3 -20 1 -42 7 -48 19 -19
-2 -12 -33 11 -23 17 -30 30 -30 56 0 47 23 37 31 -14z m-2011 -39 c116 -46
232 -104 212 -105 -8 0 -44 12 -80 26 -37 14 -80 30 -97 36 -49 17 -215 102
-215 111 0 4 17 0 38 -9 20 -9 84 -35 142 -59z m-3198 40 c3 -14 2 -25 -2 -25
-4 0 -10 11 -12 25 -3 14 -2 25 2 25 4 0 10 -11 12 -25z m395 19 c-3 -3 -12
-4 -19 -1 -8 3 -5 6 6 6 11 1 17 -2 13 -5z m3842 -61 c23 -27 41 -54 41 -60 0
-7 5 -13 10 -13 6 0 10 -4 10 -10 0 -8 -47 8 -126 46 -43 21 -51 60 -15 73 14
5 29 10 33 10 3 1 25 -20 47 -46z m1091 22 c7 -9 10 -18 7 -21 -10 -11 -37 5
-37 21 0 19 14 19 30 0z m-4602 -56 c1 -28 4 -75 7 -103 8 -62 1 -71 -67 -79
-40 -6 -48 -4 -48 9 0 11 -5 14 -16 10 -9 -3 -27 -9 -40 -12 -13 -3 -22 -10
-19 -14 3 -4 -1 -13 -8 -19 -10 -8 -19 -7 -33 4 -12 10 -14 14 -5 13 10 -2 16
7 17 26 3 27 2 27 -12 10 -14 -18 -15 -17 -10 8 4 15 2 30 -4 33 -5 3 -10 -2
-10 -12 0 -12 -8 -18 -24 -19 -20 -2 -25 4 -28 32 -2 19 0 34 4 34 4 0 8 -9 8
-20 0 -11 5 -20 11 -20 6 0 8 7 5 16 -4 12 -2 15 9 10 8 -3 15 -4 15 -2 0 3 3
11 6 20 5 13 -1 16 -25 16 -17 0 -30 3 -30 8 4 22 -3 29 -25 25 -29 -6 -33
-20 -26 -90 3 -29 3 -53 -1 -53 -5 0 -9 24 -11 53 -3 46 -6 52 -26 55 -22 3
-23 1 -20 -55 3 -48 6 -58 21 -57 9 1 17 -2 17 -7 0 -5 8 -5 18 -2 15 6 16 5
1 -9 -23 -23 -79 -34 -79 -15 0 9 3 17 8 19 4 2 4 31 -1 65 -9 62 -9 62 -37
56 -23 -4 -35 1 -62 27 -23 23 -27 29 -11 21 17 -9 55 -6 163 11 117 18 143
20 150 9 4 -8 15 -11 25 -8 9 4 14 11 10 17 -6 10 5 13 99 30 33 5 61 12 64
15 12 12 20 -9 20 -56z m37 51 c-3 -5 -10 -10 -16 -10 -5 0 -9 5 -9 10 0 6 7
10 16 10 8 0 12 -4 9 -10z m5090 -8 c-3 -3 -11 0 -18 7 -9 10 -8 11 6 5 10 -3
15 -9 12 -12z m-3559 -13 c5 -4 19 -6 31 -3 11 3 24 0 28 -6 5 -9 1 -10 -14
-5 -36 11 -23 -2 33 -35 30 -17 56 -34 58 -38 2 -4 27 -18 56 -31 28 -14 52
-28 52 -33 0 -4 -21 2 -47 14 -147 66 -251 118 -273 137 l-25 21 45 -6 c25 -4
50 -10 56 -15z m1824 17 c0 -3 -4 -8 -10 -11 -5 -3 -10 -1 -10 4 0 6 5 11 10
11 6 0 10 -2 10 -4z m-1428 -28 c-7 -7 -12 -8 -12 -2 0 6 3 14 7 17 3 4 9 5
12 2 2 -3 -1 -11 -7 -17z m2943 -17 c-4 -17 -10 -33 -14 -36 -5 -2 -3 13 2 35
13 46 22 46 12 1z m-135 -20 c0 -11 -3 -12 -11 -4 -6 6 -18 9 -25 6 -14 -5
-44 13 -44 27 0 4 18 2 40 -3 24 -7 40 -17 40 -26z m-5677 22 c-7 -2 -19 -2
-25 0 -7 3 -2 5 12 5 14 0 19 -2 13 -5z m2642 -13 c3 -5 1 -10 -4 -10 -6 0
-11 5 -11 10 0 6 2 10 4 10 3 0 8 -4 11 -10z m715 -20 c0 -11 -63 -24 -82 -17
-7 2 7 9 32 15 25 5 46 10 48 11 1 1 2 -3 2 -9z m-904 -101 c-49 -90 -98 -209
-92 -224 3 -10 15 -11 48 -4 24 4 129 24 233 44 105 20 198 39 208 41 15 5 17
-3 17 -65 0 -69 -1 -71 -27 -77 -16 -3 -36 -8 -45 -11 -15 -3 -18 2 -18 31 0
31 -3 36 -22 36 -36 -1 -58 -24 -59 -61 l-2 -34 -7 40 -7 40 -2 -41 c-1 -39
-3 -42 -46 -58 -25 -10 -45 -22 -45 -26 0 -5 20 -21 45 -36 43 -25 56 -46 35
-59 -5 -3 -12 -32 -16 -64 -8 -75 -14 -83 -60 -86 -22 -2 -33 -1 -26 2 17 6
-4 33 -26 33 -8 0 -12 3 -9 7 4 3 1 13 -6 21 -10 13 -8 14 18 8 20 -4 25 -3
16 3 -9 6 -11 18 -7 34 5 21 3 24 -14 20 -14 -4 -20 0 -20 11 0 9 -7 16 -15
16 -8 0 -15 7 -15 15 0 8 -8 15 -17 15 -31 0 -93 -21 -93 -30 0 -6 -4 -10 -9
-10 -5 0 -7 8 -5 18 3 11 -9 26 -36 44 -34 24 -40 34 -42 65 -1 37 -1 37 -5 6
-6 -47 -23 -40 -24 10 -1 23 -3 33 -6 22 -10 -46 -12 -47 -74 -5 l-61 42 -91
-3 c-53 -2 -101 1 -112 7 -15 8 -40 7 -93 -4 l-74 -14 -166 48 c-144 41 -174
54 -217 89 -28 22 -62 48 -75 58 -23 16 -23 17 -4 12 12 -3 86 -32 165 -64 79
-32 145 -55 147 -50 2 5 33 -12 69 -36 36 -25 69 -45 73 -45 4 0 52 9 105 20
99 20 151 25 105 10 -19 -7 -12 -8 29 -7 l53 2 -4 103 c-2 56 -2 102 -1 102 1
0 72 -47 158 -105 86 -58 161 -103 167 -99 7 4 7 9 -1 13 -7 5 11 56 55 152
36 79 68 151 72 159 5 13 7 13 10 -1 2 -9 -13 -45 -32 -80z m293 62 c-6 -2 6
-14 26 -28 46 -31 38 -42 -15 -18 -33 15 -40 23 -40 47 0 26 2 27 20 16 11 -7
15 -15 9 -17z m-1422 -92 c-84 -23 -89 -21 -162 32 -39 28 -74 54 -79 59 -5 5
52 -12 127 -38 99 -34 130 -49 114 -53z m2066 80 c28 1 49 0 46 -3 -2 -2 -58
-14 -124 -26 -66 -11 -128 -23 -138 -25 -9 -2 -15 0 -12 5 3 4 21 11 40 14 19
4 35 10 35 14 0 4 17 7 37 8 20 0 39 6 41 12 2 7 9 9 14 6 6 -4 34 -6 61 -5z
m1690 -81 c-14 -51 -26 -102 -29 -113 -8 -41 -22 -80 -23 -65 -2 23 63 270 70
270 3 0 -5 -42 -18 -92z m607 82 c0 -5 -2 -10 -4 -10 -3 0 -8 5 -11 10 -3 6
-1 10 4 10 6 0 11 -4 11 -10z m157 -22 c-3 -7 -5 -2 -5 12 0 14 2 19 5 13 2
-7 2 -19 0 -25z m-5405 -18 c-2 -22 -6 -40 -8 -40 -2 0 -4 18 -4 40 0 22 3 40
8 40 4 0 6 -18 4 -40z m19 17 c-10 -9 -11 -8 -5 6 3 10 9 15 12 12 3 -3 0 -11
-7 -18z m4086 -39 c-3 -8 -6 -5 -6 6 -1 11 2 17 5 13 3 -3 4 -12 1 -19z
m-2946 -41 c24 2 37 0 29 -3 -51 -18 -61 -28 -56 -54 3 -14 -8 4 -24 39 -34
72 -39 90 -12 46 16 -26 23 -29 63 -28z m176 20 c-6 -20 -27 -19 -27 2 0 14 5
19 15 14 9 -3 14 -10 12 -16z m1783 -46 l0 -69 -92 -22 c-97 -22 -138 -38
-138 -51 0 -4 14 -16 30 -26 26 -15 28 -19 13 -25 -65 -25 -93 2 -93 88 0 35
-3 64 -7 64 -5 0 -26 -7 -48 -14 -36 -12 -40 -18 -43 -50 -3 -32 -1 -36 21
-36 14 0 46 -20 83 -53 32 -29 87 -70 122 -91 99 -60 82 -58 -61 8 -43 20 -84
36 -91 36 -7 0 -50 23 -96 50 -72 43 -89 49 -119 44 -26 -4 -32 -3 -22 4 12 8
12 14 3 25 -7 7 -9 17 -6 20 4 3 -3 22 -14 42 -24 39 -22 41 16 21 37 -19 82
-31 62 -17 -10 7 -11 11 -3 11 7 0 10 6 7 13 -3 9 39 20 157 41 88 15 163 26
165 23 3 -2 -14 -7 -37 -11 -23 -4 -40 -9 -37 -11 2 -2 51 3 108 13 58 9 94
18 80 20 -23 4 -24 5 -5 13 42 16 45 12 45 -60z m-1563 53 c-3 -3 -12 -4 -19
-1 -8 3 -5 6 6 6 11 1 17 -2 13 -5z m-1347 -12 c0 -5 -7 -9 -15 -9 -8 0 -12 4
-9 9 3 4 9 8 15 8 5 0 9 -4 9 -8z m2803 1 c-7 -2 -19 -2 -25 0 -7 3 -2 5 12 5
14 0 19 -2 13 -5z m444 -9 c-3 -3 -12 -4 -19 -1 -8 3 -5 6 6 6 11 1 17 -2 13
-5z m2203 -31 c-1 -24 -2 -26 -11 -10 -5 9 -7 22 -4 27 10 17 15 11 15 -17z
m-2196 -3 c11 0 75 -32 326 -164 113 -59 126 -72 33 -30 -32 14 -114 48 -181
75 -132 53 -205 88 -237 113 -19 16 -19 16 8 10 19 -4 27 -2 28 7 0 11 2 11 6
2 2 -7 10 -13 17 -13z m133 -27 c-3 -10 -5 -4 -5 12 0 17 2 24 5 18 2 -7 2
-21 0 -30z m-3279 13 c-7 -8 -15 -12 -17 -11 -5 6 10 25 20 25 5 0 4 -6 -3
-14z m925 -6 c4 0 5 5 2 11 -5 7 5 8 32 3 47 -8 45 -6 37 -38 -5 -20 -12 -26
-33 -25 -14 0 -20 3 -13 6 22 9 12 23 -17 23 -16 0 -34 6 -40 13 -13 17 -2 32
13 17 5 -5 14 -10 19 -10z m3178 -106 c83 -41 154 -73 157 -70 3 3 11 1 18 -5
8 -7 14 -7 19 1 3 6 10 8 15 5 4 -3 59 7 121 21 63 14 134 30 159 35 25 5 63
13 85 19 22 6 78 19 125 29 47 11 98 24 114 30 38 15 49 1 42 -54 -3 -22 -8
-70 -12 -106 l-6 -66 49 -21 c44 -19 49 -24 50 -55 l1 -33 -62 13 c-33 7 -110
26 -169 43 -107 30 -109 30 -170 15 -103 -26 -179 -59 -333 -142 -70 -38 -93
-47 -102 -37 -6 7 -16 14 -21 15 -6 2 -16 28 -23 58 l-13 54 -101 50 -102 49
-4 107 c-4 100 -3 121 8 121 2 0 72 -34 155 -76z m-4314 46 c-2 -7 58 -60 178
-157 38 -31 33 -29 -85 23 -69 30 -132 56 -141 57 -19 3 -110 77 -105 86 6 9
156 1 153 -9z m103 -2 c0 -14 -59 -12 -73 2 -5 4 10 7 32 6 23 0 41 -4 41 -8z
m-613 -34 c-3 -3 -12 -4 -19 -1 -8 3 -5 6 6 6 11 1 17 -2 13 -5z m683 -5 c0
-5 9 -9 19 -9 25 0 33 -13 23 -39 -7 -19 -9 -18 -44 17 -32 32 -35 38 -18 39
11 1 20 -2 20 -8z m3230 -46 c-11 -17 -11 -17 -6 0 3 10 7 26 7 35 1 15 2 15
6 0 2 -10 -1 -25 -7 -35z m-3143 12 c0 -17 -13 -20 -21 -6 -4 5 0 12 6 14 7 3
13 6 14 6 0 1 1 -6 1 -14z m1206 8 c-7 -2 -19 -2 -25 0 -7 3 -2 5 12 5 14 0
19 -2 13 -5z m-1152 -34 c24 -24 38 -85 16 -73 -9 5 -9 4 1 -7 19 -20 14 -31
-7 -17 -11 6 -22 26 -26 44 -3 18 -10 34 -16 36 -9 3 -3 38 7 38 2 0 14 -10
25 -21z m-408 -36 c-16 -27 -49 -83 -73 -125 -25 -43 -48 -78 -52 -78 -4 0 11
30 32 68 22 37 54 93 72 124 18 32 36 58 41 58 4 0 -5 -21 -20 -47z m998 39
c6 10 12 8 23 -7 17 -22 22 -70 6 -60 -5 3 -10 1 -10 -5 0 -6 -11 -4 -25 6
-24 16 -25 16 -18 -1 4 -13 3 -16 -5 -11 -7 4 -12 14 -12 22 0 8 -3 13 -7 11
-5 -3 -9 8 -10 24 -2 27 -1 28 24 18 20 -7 28 -6 34 3z m415 -30 c-9 -8 -96
-20 -96 -12 0 9 72 27 88 22 7 -3 10 -7 8 -10z m1574 -12 c0 -15 -5 -12 -26
11 -19 22 -19 22 4 10 12 -6 22 -16 22 -21z m-2060 10 c0 -5 -4 -10 -10 -10
-5 0 -10 5 -10 10 0 6 5 10 10 10 6 0 10 -4 10 -10z m2000 -10 c0 -5 -4 -10
-9 -10 -6 0 -13 5 -16 10 -3 6 1 10 9 10 9 0 16 -4 16 -10z m2500 -15 c33 -19
21 -19 -21 0 -19 8 -27 14 -19 14 8 0 26 -6 40 -14z m-4300 -26 c0 -6 10 -9
23 -6 95 22 87 26 73 -43 -7 -34 -57 -63 -88 -51 -12 6 -18 10 -11 10 7 1 10
8 7 16 -4 8 -1 15 7 15 7 0 10 3 6 6 -3 3 -14 3 -25 0 -22 -7 -20 -37 4 -57 8
-6 14 -16 14 -21 0 -6 -7 -5 -15 2 -11 9 -18 10 -29 1 -12 -10 -15 -4 -18 34
-2 25 -1 45 2 45 3 0 11 14 18 30 13 30 32 41 32 19z m1624 -63 c-15 -37 -28
-65 -30 -63 -2 2 8 34 22 71 15 37 28 65 30 63 2 -2 -8 -34 -22 -71z m713 52
c-3 -8 -6 -5 -6 6 -1 11 2 17 5 13 3 -3 4 -12 1 -19z m2043 2 c19 -11 31 -19
25 -19 -5 0 -26 8 -45 19 -19 11 -30 19 -25 19 6 0 26 -8 45 -19z m-2489 -7
c13 -15 12 -15 -8 -4 -24 12 -29 21 -14 21 5 0 15 -7 22 -17z m2603 -43 c36
-16 66 -31 66 -34 0 -5 -130 51 -139 60 -10 10 11 2 73 -26z m-2177 -12 c-3
-8 -6 -5 -6 6 -1 11 2 17 5 13 3 -3 4 -12 1 -19z m471 -138 l-3 -141 -35 -8
c-33 -8 -194 -45 -325 -74 -55 -13 -60 -16 -60 -40 1 -22 -2 -24 -15 -14 -8 7
-21 19 -28 27 -10 12 -14 12 -18 2 -3 -7 -15 -17 -26 -23 -18 -9 -20 -9 -15 4
3 9 2 17 -3 19 -6 2 -12 46 -14 98 -3 52 -7 105 -10 118 -6 26 -5 26 29 10 22
-10 28 -9 35 3 5 8 17 15 27 16 10 1 41 6 69 12 28 5 62 8 75 5 20 -5 21 -4 9
6 -12 9 -8 11 20 7 20 -3 49 -3 65 1 26 5 27 6 10 14 -16 7 -15 8 8 5 15 -3
27 -1 27 3 0 13 38 18 51 6 9 -8 10 -8 5 1 -4 7 12 15 47 24 28 7 47 14 41 16
-6 2 -100 -16 -210 -41 -237 -53 -243 -54 -244 -42 0 6 108 36 242 67 134 31
244 57 246 58 2 0 2 -62 0 -139z m1128 120 c5 -5 27 -13 49 -18 l40 -9 -60
-12 c-33 -6 -105 -22 -159 -34 l-99 -22 -23 -70 c-26 -79 -29 -105 -13 -105 8
0 8 -5 -1 -15 -22 -27 14 -28 126 -6 100 20 136 21 105 2 -10 -7 -10 -9 2 -14
19 -7 16 -35 -4 -48 -11 -7 -11 -9 4 -9 9 0 17 -4 17 -9 0 -5 -8 -12 -17 -14
-11 -3 -7 -5 10 -6 27 -1 52 29 30 36 -14 5 18 72 35 73 6 0 12 4 12 9 0 5 -6
11 -12 14 -7 2 1 8 17 12 52 12 55 14 55 34 0 23 15 28 178 61 68 13 108 17
119 11 14 -7 9 -11 -23 -20 -21 -6 -43 -11 -49 -11 -28 0 -85 -22 -85 -33 0
-7 75 -50 166 -95 127 -64 164 -86 160 -98 -3 -9 -6 -20 -6 -26 0 -6 -7 -5
-17 3 -15 12 -16 12 -10 -4 5 -14 3 -18 -11 -15 -9 2 -18 13 -20 26 -3 17 -20
30 -70 52 -36 17 -68 27 -71 22 -11 -16 -408 -110 -425 -100 -19 11 -22 -5 -3
-19 6 -5 63 -31 125 -58 62 -26 111 -50 109 -52 -5 -4 -87 26 -146 54 -71 32
-174 73 -187 73 -12 0 -157 73 -204 103 -10 6 -16 17 -13 24 7 17 -7 17 -21
-1 -6 -8 -24 -18 -39 -22 -23 -5 -29 -3 -34 15 -3 14 -11 20 -22 17 -9 -2 -37
-7 -62 -10 -37 -6 -49 -3 -69 14 -23 20 -42 13 -36 -14 2 -6 1 -8 -1 -3 -8 13
-33 7 -33 -9 0 -9 5 -12 11 -8 7 4 10 2 8 -5 -3 -7 -9 -11 -14 -10 -48 11 -48
11 -13 40 25 22 29 29 15 29 -12 0 -17 6 -15 18 5 24 86 19 109 -8 9 -11 19
-16 23 -13 3 3 12 1 19 -6 21 -17 44 25 40 72 -4 41 10 50 22 15 21 -60 23
-64 24 -44 1 13 6 17 21 13 10 -3 21 0 23 6 2 7 14 5 33 -6 16 -8 43 -20 59
-25 26 -8 31 -7 32 8 3 33 65 220 72 216 7 -5 160 30 169 39 9 8 37 6 48 -5z
m-3515 -74 c48 -13 95 -23 106 -20 12 3 29 -6 47 -25 l30 -31 -30 -1 c-16 0
-38 -4 -49 -9 l-20 -8 20 -7 c11 -4 58 -23 103 -42 46 -19 90 -32 97 -30 7 3
17 1 21 -3 6 -6 28 -4 54 4 25 7 63 16 85 20 66 11 19 -11 -52 -24 -74 -14
-72 -23 10 -63 29 -14 65 -36 81 -50 l30 -24 -30 3 c-16 1 -63 12 -104 24 -41
12 -100 29 -130 37 -56 15 -88 36 -305 196 -188 138 -178 129 -110 102 33 -13
99 -35 146 -49z m-261 54 c0 -5 -7 -10 -15 -10 -8 0 -15 5 -15 10 0 6 7 10 15
10 8 0 15 -4 15 -10z m-316 -6 c20 -8 20 -20 0 -28 -17 -7 -54 10 -54 24 0 11
30 13 54 4z m246 -4 c0 -5 7 -10 15 -10 24 0 18 -14 -16 -39 -25 -19 -33 -21
-40 -10 -13 21 -11 29 7 22 20 -8 36 17 22 34 -7 9 -7 13 1 13 6 0 11 -4 11
-10z m1225 -100 c83 -53 171 -108 197 -123 l46 -26 248 55 c136 30 254 54 262
54 8 0 12 -9 10 -22 -2 -17 -11 -24 -30 -26 -28 -3 -28 -4 -28 -73 0 -42 4
-69 11 -69 6 0 9 -10 7 -22 -2 -18 -17 -25 -93 -44 -49 -13 -72 -21 -50 -19
50 6 22 -8 -50 -24 -27 -6 -99 -22 -158 -37 -60 -14 -111 -23 -114 -20 -3 2
-7 29 -9 58 -3 40 -1 49 7 38 9 -12 9 -11 3 5 -12 33 -10 70 4 67 7 -1 16 6
20 15 4 11 9 -6 13 -47 l6 -65 1 71 c2 71 2 71 -23 66 -14 -2 -22 -9 -19 -14
10 -16 -31 9 -99 60 -35 27 -71 51 -79 55 -14 5 -140 84 -225 140 -31 20 -50
68 -20 51 6 -4 80 -51 162 -104z m-1735 91 c0 -17 -18 -21 -24 -6 -3 9 0 15 9
15 8 0 15 -4 15 -9z m2727 -43 c-3 -8 -6 -5 -6 6 -1 11 2 17 5 13 3 -3 4 -12
1 -19z m-716 -15 c-12 -20 -14 -14 -5 12 4 9 9 14 11 11 3 -2 0 -13 -6 -23z
m-2844 -25 c-28 -55 -26 -52 -32 -46 -6 6 37 88 47 88 3 0 -3 -19 -15 -42z
m3820 36 c-3 -3 -12 -4 -19 -1 -8 3 -5 6 6 6 11 1 17 -2 13 -5z m-3237 -35 c0
-4 -21 -11 -47 -15 l-46 -9 0 -75 c1 -73 -2 -70 -13 16 -4 38 -7 41 -30 36
-25 -5 -26 -7 -20 -60 3 -30 7 -57 9 -58 2 -2 21 -7 43 -12 35 -8 32 -9 -28
-8 -42 1 -59 4 -46 9 13 4 18 13 14 23 -3 9 -6 33 -6 55 0 35 -3 39 -25 39
-24 0 -25 -3 -25 -54 0 -65 7 -86 28 -86 22 0 12 -6 -23 -14 -21 -5 -27 -4
-19 3 10 11 3 136 -10 148 -3 3 -31 1 -63 -6 -32 -6 -94 -18 -138 -26 -44 -8
-89 -17 -100 -19 -13 -3 -34 8 -60 30 -37 33 -31 37 21 12 15 -7 92 5 295 44
259 51 288 54 289 27z m659 19 c25 9 31 8 31 -4 0 -7 -7 -14 -15 -14 -8 0 -15
-6 -15 -14 0 -24 -22 -30 -33 -10 -14 24 -21 65 -8 45 7 -11 15 -11 40 -3z
m1575 -72 c-9 -26 -19 -45 -22 -42 -2 3 3 26 13 51 22 60 30 53 9 -9z m2930
-14 c-4 -35 -2 -38 36 -60 39 -22 40 -22 40 -2 0 30 18 24 22 -7 2 -20 8 -27
21 -25 10 2 17 -3 17 -13 0 -8 -4 -15 -9 -15 -6 0 -6 -12 0 -32 13 -47 10 -68
-5 -33 -10 24 -13 26 -19 12 -3 -9 -13 -17 -21 -17 -12 0 -14 7 -9 30 4 21 2
30 -7 30 -8 0 -10 3 -7 7 4 3 15 -1 25 -10 16 -15 18 -15 18 5 0 17 -21 32
-111 75 -94 46 -117 60 -60 37 10 -4 15 0 16 12 0 16 2 15 9 -3 13 -32 34 -29
28 2 -3 14 -1 28 4 31 4 3 5 10 2 16 -4 7 -2 8 4 4 7 -4 9 -22 6 -44z m42 -13
c2 -31 1 -31 -3 -4 -3 16 -10 34 -16 38 -8 6 -7 7 3 4 9 -2 16 -17 16 -38z
m-507 5 c2 -2 2 -6 0 -9 -8 -7 -49 7 -49 17 0 8 38 2 49 -8z m-539 -15 c0 -6
-4 -7 -10 -4 -5 3 -10 11 -10 16 0 6 5 7 10 4 6 -3 10 -11 10 -16z m-5007 -23
c17 -13 24 -46 10 -46 -5 0 -16 14 -25 30 -18 32 -14 37 15 16z m4728 7 c5
-47 3 -66 -7 -70 -7 -3 -10 -11 -8 -18 8 -20 -27 -34 -51 -21 -16 9 -19 17
-14 36 4 16 7 19 8 8 1 -10 6 -18 11 -18 6 0 10 -7 10 -16 0 -8 4 -13 9 -10 4
3 7 18 5 33 -1 16 4 32 14 41 13 10 14 15 4 18 -6 3 -10 10 -6 15 6 11 24 12
25 2z m-1141 -73 c0 -45 -4 -70 -11 -70 -6 0 -9 7 -6 14 4 10 1 13 -9 9 -11
-4 -14 7 -14 56 0 54 2 61 20 61 18 0 20 -7 20 -70z m-3610 39 c0 -6 -4 -7
-10 -4 -5 3 -10 11 -10 16 0 6 5 7 10 4 6 -3 10 -11 10 -16z m1190 5 c0 -13
75 -79 174 -154 28 -21 65 -50 81 -64 29 -25 26 -24 -45 8 -41 18 -118 50
-170 71 -96 38 -226 130 -198 140 7 2 40 6 73 7 33 2 66 3 73 4 6 0 12 -5 12
-12z m1770 -4 c0 -11 -4 -20 -10 -20 -5 0 -10 9 -10 20 0 11 5 20 10 20 6 0
10 -9 10 -20z m-1695 0 c8 -13 -25 -13 -45 0 -12 8 -9 10 12 10 15 0 30 -4 33
-10z m1539 -9 c32 -19 54 -47 44 -57 -12 -11 -87 48 -88 69 0 11 11 8 44 -12z
m1876 15 c0 -2 -7 -6 -15 -10 -8 -3 -15 -1 -15 4 0 6 7 10 15 10 8 0 15 -2 15
-4z m-3243 -53 c-8 -7 -37 9 -31 19 3 5 12 4 20 -3 8 -6 13 -14 11 -16z
m-1397 -2 c3 -3 19 -13 36 -21 24 -11 30 -19 25 -33 -6 -17 -9 -17 -31 6 -31
30 -49 36 -76 26 -15 -5 -21 -3 -21 7 0 8 6 13 13 10 8 -3 11 0 7 11 -5 12 -1
14 18 8 13 -4 26 -10 29 -14z m195 -1 c27 -30 12 -34 -15 -5 -13 14 -19 25
-13 25 5 0 18 -9 28 -20z m5965 5 c0 -8 -7 -15 -15 -15 -9 0 -12 6 -9 15 4 8
10 15 15 15 5 0 9 -7 9 -15z m29 -32 c1 -7 -3 -13 -9 -13 -5 0 -10 15 -9 33 0
27 2 29 9 12 5 -11 9 -26 9 -32z m-4849 33 c0 -3 -4 -8 -10 -11 -5 -3 -10 -1
-10 4 0 6 5 11 10 11 6 0 10 -2 10 -4z m-643 -12 c-3 -3 -12 -4 -19 -1 -8 3
-5 6 6 6 11 1 17 -2 13 -5z m1452 -76 c1 -19 -5 -29 -20 -33 -11 -4 -23 -4
-26 -1 -4 3 1 6 10 6 13 0 17 10 18 48 0 35 3 42 9 27 5 -11 9 -32 9 -47z m34
35 c-7 -2 -13 -14 -13 -25 0 -14 6 -19 23 -16 15 2 21 9 19 22 -2 11 1 15 7
11 23 -14 11 -43 -19 -47 -36 -5 -40 -3 -40 34 0 20 5 28 18 27 10 0 12 -3 5
-6z m-724 -70 c9 -7 12 -13 7 -13 -18 0 -56 44 -56 64 1 18 3 16 17 -9 9 -16
23 -35 32 -42z m623 31 c2 -19 0 -37 -4 -40 -4 -3 -9 3 -9 13 -1 10 -3 28 -4
41 -1 12 1 22 5 22 4 0 10 -16 12 -36z m-32 -13 c0 -35 -3 -39 -30 -43 -27 -4
-30 -2 -29 21 1 17 3 20 6 9 2 -10 13 -18 24 -18 16 0 20 6 19 28 -3 33 -1 42
5 42 3 0 5 -17 5 -39z m-940 19 c0 -5 -5 -10 -11 -10 -5 0 -7 5 -4 10 3 6 8
10 11 10 2 0 4 -4 4 -10z m2460 3 c-1 -25 -65 -54 -115 -52 -20 1 3 8 68 23
15 4 27 13 27 21 0 8 5 15 10 15 6 0 10 -3 10 -7z m2190 -23 c-14 -4 -32 -8
-40 -9 -13 -1 -13 0 0 9 8 5 26 9 40 9 l25 -1 -25 -8z m325 0 c3 -5 2 -10 -4
-10 -5 0 -13 5 -16 10 -3 6 -2 10 4 10 5 0 13 -4 16 -10z m-5008 -40 c-12 -22
-25 -40 -29 -40 -3 0 3 18 15 40 12 22 25 40 29 40 3 0 -3 -18 -15 -40z m2788
29 c11 -17 -1 -21 -15 -4 -8 9 -8 15 -2 15 6 0 14 -5 17 -11z m95 1 c0 -5 -10
-10 -22 -10 -19 0 -20 2 -8 10 19 13 30 13 30 0z m-215 -10 c3 -5 -1 -10 -10
-10 -9 0 -14 -4 -11 -9 3 -4 -7 -6 -22 -2 -25 5 -25 6 -4 9 12 2 20 8 17 13
-4 5 1 9 9 9 8 0 18 -4 21 -10z m88 3 c3 -5 -3 -16 -13 -26 -17 -17 -17 -17
-13 8 5 24 17 33 26 18z m1864 1 c-3 -3 -12 -4 -19 -1 -8 3 -5 6 6 6 11 1 17
-2 13 -5z m-5601 -41 c-8 -8 -33 9 -33 22 0 13 4 12 19 -2 10 -9 16 -18 14
-20z m4226 -32 c15 -5 30 -5 36 1 5 5 41 -19 90 -62 45 -38 84 -70 87 -70 2 0
29 -16 59 -35 30 -19 59 -35 63 -35 4 0 22 -9 38 -21 28 -19 28 -20 5 -13 -14
4 -63 25 -109 46 -47 22 -98 42 -115 45 -16 4 -46 17 -65 30 -20 13 -83 51
-141 84 -161 92 -173 105 -65 68 50 -16 102 -34 117 -38z m-336 38 c0 -11 -7
-17 -18 -16 -20 1 -20 1 -13 20 8 20 31 17 31 -4z m-196 1 c0 -5 -5 -10 -11
-10 -5 0 -7 5 -4 10 3 6 8 10 11 10 2 0 4 -4 4 -10z m1755 0 c-11 -5 -29 -8
-40 -8 -16 0 -15 2 5 8 34 11 60 11 35 0z m-5411 -39 c-6 -6 -24 19 -24 34 1
6 7 1 15 -9 8 -11 12 -22 9 -25z m2261 10 c3 -10 3 -26 -1 -35 -9 -23 5 -93
16 -76 6 10 12 10 28 -2 15 -10 18 -18 11 -28 -7 -12 -9 -11 -9 5 -1 19 -1 19
-14 2 -11 -14 -15 -15 -19 -5 -3 7 -6 -17 -6 -54 l-1 -66 -32 -7 c-18 -4 -127
-29 -243 -55 -115 -27 -226 -50 -245 -52 l-35 -3 -8 75 c-4 41 -11 84 -16 95
-18 41 -20 55 -8 55 7 0 13 10 14 21 1 12 4 23 6 25 2 2 55 15 118 29 63 13
182 40 264 59 179 41 172 41 180 17z m-2445 -29 c8 -17 20 -32 26 -32 7 0 14
-6 17 -14 3 -8 16 -16 28 -18 12 -2 24 -9 27 -17 3 -9 0 -11 -8 -6 -9 5 -11 4
-6 -3 4 -7 4 -17 0 -23 -4 -7 -11 -2 -18 12 -6 13 -22 26 -35 29 -13 3 -25 13
-27 22 -1 10 -12 31 -23 47 -24 33 -26 44 -8 39 6 -2 19 -18 27 -36z m5301 2
c-5 -16 -10 -21 -10 -12 -1 18 10 51 15 45 2 -1 -1 -16 -5 -33z m-5105 0 c17
5 24 2 24 -8 0 -10 -6 -13 -15 -10 -8 4 -15 1 -15 -5 0 -17 -17 -13 -24 7 -3
9 -9 24 -12 32 -3 8 0 7 6 -3 9 -13 19 -17 36 -13z m5820 -23 c-11 -17 -29
-13 -22 4 3 8 1 15 -5 15 -6 0 -7 5 -3 11 4 7 11 6 21 -4 9 -8 12 -20 9 -26z
m-5756 -41 c-1 -31 -2 -33 -14 -17 -7 9 -19 17 -27 17 -8 0 -6 6 7 16 10 8 13
12 6 9 -12 -6 -12 -3 -2 15 16 29 30 10 30 -40z m148 44 c12 -8 22 -19 22 -25
0 -12 -47 -12 -55 1 -3 6 -1 10 4 10 6 0 11 5 11 11 0 6 -9 8 -20 4 -11 -4
-20 -2 -20 4 0 16 32 13 58 -5z m662 -18 c0 -3 -4 -8 -10 -11 -5 -3 -10 -1
-10 4 0 6 5 11 10 11 6 0 10 -2 10 -4z m3603 -36 c3 -11 1 -18 -4 -14 -5 3 -9
12 -9 20 0 20 7 17 13 -6z m-1145 -72 c-1 -51 -2 -51 -5 -10 -2 23 -5 42 -6
42 -1 0 -17 -4 -36 -10 -41 -11 -32 0 12 17 18 6 33 12 35 12 1 1 1 -23 0 -51z
m39 46 c-3 -3 -12 -4 -19 -1 -8 3 -5 6 6 6 11 1 17 -2 13 -5z m-217 -55 c0
-28 5 -60 11 -71 10 -18 9 -20 -5 -15 -24 10 -76 -4 -76 -19 0 -8 -10 -13 -22
-13 -13 0 -40 -4 -62 -9 -21 -6 -48 -7 -59 -3 -26 10 -16 15 53 31 96 21 90
15 90 80 0 56 1 59 28 63 15 2 30 5 35 6 4 0 7 -22 7 -50z m247 19 c-3 -7 -5
-2 -5 12 0 14 2 19 5 13 2 -7 2 -19 0 -25z m-3628 -3 c3 -17 2 -18 -14 -5 -10
8 -28 14 -39 12 -17 -2 -18 -1 -6 8 22 15 54 8 59 -15z m151 10 c17 -21 5 -31
-15 -12 -8 9 -15 18 -15 21 0 11 18 6 30 -9z m3310 -5 c-18 -12 -30 -13 -30
-2 0 4 10 9 22 9 18 2 20 0 8 -7z m-3141 -87 c-11 -20 -11 -26 1 -34 12 -8 10
-9 -6 -5 -24 7 -25 -7 -5 -66 8 -24 9 -43 3 -54 -7 -13 -10 -11 -15 15 -4 18
-13 31 -21 31 -20 0 -31 19 -17 33 7 7 7 15 1 22 -15 18 -2 45 18 38 11 -5 14
-2 9 10 -3 8 1 21 9 28 8 6 13 17 11 23 -3 6 1 20 7 31 10 18 11 17 14 -14 2
-19 -2 -45 -9 -58z m4201 67 c0 -11 -4 -20 -9 -20 -5 0 -7 9 -4 20 3 11 7 20
9 20 2 0 4 -9 4 -20z m-2890 -31 c0 -10 -3 -19 -7 -19 -5 0 -8 -21 -7 -47 1
-47 1 -47 -3 -5 -3 34 -8 42 -24 42 -19 0 -19 -1 -3 -26 14 -20 15 -27 4 -37
-10 -10 -12 -9 -7 4 3 9 1 22 -4 30 -6 10 -9 3 -9 -21 0 -32 -19 -83 -20 -52
0 18 -18 15 -24 -5 -12 -39 -14 -73 -5 -68 5 4 9 3 9 -2 -1 -4 -16 -15 -35
-24 l-34 -16 16 31 c15 30 15 31 -3 15 -11 -8 -27 -14 -36 -12 -20 5 -24 18
-8 28 16 10 12 25 -5 19 -10 -4 -15 0 -16 12 0 11 -2 32 -4 48 -2 16 2 43 9
60 12 29 19 32 107 52 52 12 97 19 102 17 4 -2 7 -13 7 -24z m1510 -38 c0 -56
-17 -70 -61 -51 -23 10 -23 10 4 5 25 -5 27 -3 27 30 0 19 5 35 10 35 6 0 10
7 10 15 0 8 2 15 5 15 3 0 5 -22 5 -49z m1359 -18 c-7 -21 -14 -32 -16 -26 -3
7 1 30 8 50 7 21 14 32 16 26 3 -7 -1 -30 -8 -50z m1068 51 c-3 -3 -12 -4 -19
-1 -8 3 -5 6 6 6 11 1 17 -2 13 -5z m-4213 -24 c47 15 60 6 42 -29 -16 -30
-16 -62 -1 -74 6 -6 6 -10 -2 -14 -7 -2 -14 -17 -14 -31 -1 -21 -3 -18 -8 11
-3 21 -10 37 -15 36 -5 0 -13 5 -17 13 -7 10 -9 9 -9 -4 0 -29 -18 -21 -22 10
-2 15 -6 25 -9 22 -3 -3 -13 1 -23 9 -14 12 -16 12 -11 0 8 -23 -40 -40 -64
-22 -29 20 -26 30 9 38 17 4 30 13 30 21 0 8 5 14 10 14 6 0 10 -4 10 -8 0 -4
9 -8 20 -9 13 -1 20 4 20 15 0 14 2 14 9 3 7 -11 15 -11 45 -1z m4272 -18 c-9
-9 -37 8 -31 18 5 8 11 7 21 -1 8 -6 12 -14 10 -17z m114 8 c26 -26 25 -28 -5
-22 -14 2 -22 9 -19 14 4 6 0 14 -7 19 -10 6 -11 9 -1 9 6 0 21 -9 32 -20z
m-2850 -20 c0 -12 -44 -24 -62 -17 -7 3 -3 6 9 6 12 1 25 6 28 11 8 13 25 13
25 0z m-2090 -31 c17 -17 28 -34 25 -37 -6 -6 -65 48 -65 60 0 13 7 9 40 -23z
m2130 15 c0 -8 -5 -12 -10 -9 -6 4 -8 11 -5 16 9 14 15 11 15 -7z m1233 -166
c126 -81 238 -150 251 -154 12 -3 140 24 284 60 144 36 269 66 277 66 10 0 15
-7 13 -17 -2 -12 -18 -21 -46 -27 -36 -8 -42 -12 -42 -35 -1 -46 -12 -136 -17
-141 -3 -3 -3 30 -1 73 4 86 6 84 -72 66 -25 -6 -49 -12 -55 -13 -5 -1 -26 -6
-45 -10 -74 -17 -283 -76 -289 -82 -3 -3 -7 -14 -7 -25 -5 -73 -6 -76 -13 -39
-4 19 -11 46 -15 59 -6 18 -5 22 5 16 88 -50 -269 188 -434 289 -85 53 -92 60
-83 83 6 13 9 13 34 -3 15 -10 130 -85 255 -166z m-2989 143 c17 -18 16 -19
-16 -26 -46 -10 -45 -9 -38 -64 3 -28 3 -56 -2 -63 -5 -8 -8 3 -9 27 -3 67
-10 85 -32 85 -7 0 -6 -4 3 -10 12 -8 12 -10 -3 -16 -12 -4 -17 -19 -18 -53
l-1 -46 -10 49 c-7 38 -6 51 4 57 9 6 7 9 -7 9 -25 1 -82 46 -72 57 5 4 16 2
26 -4 14 -9 31 -8 72 2 75 18 84 18 103 -4z m1633 13 c-3 -3 -12 -4 -19 -1 -8
3 -5 6 6 6 11 1 17 -2 13 -5z m2928 -4 c3 -5 1 -10 -4 -10 -6 0 -11 5 -11 10
0 6 2 10 4 10 3 0 8 -4 11 -10z m-5250 -15 c22 4 26 3 15 -5 -13 -8 -12 -10 5
-11 11 -1 28 -2 37 -1 11 1 15 -3 12 -13 -4 -11 -2 -13 9 -9 8 3 18 0 23 -7 5
-9 2 -10 -9 -6 -10 4 -17 2 -17 -5 0 -6 -9 -3 -20 7 -11 10 -20 13 -20 7 0
-20 -15 -13 -25 11 -7 15 -17 21 -32 19 -17 -2 -23 2 -23 15 0 12 3 14 8 6 5
-7 20 -10 37 -8z m2282 9 c-3 -3 -12 -4 -19 -1 -8 3 -5 6 6 6 11 1 17 -2 13
-5z m174 -10 c92 -34 224 -61 252 -51 24 8 32 4 65 -30 38 -38 277 -208 355
-252 62 -35 188 -124 182 -129 -2 -3 -10 -1 -17 5 -7 5 -51 25 -98 45 -160 69
-449 188 -455 188 -5 0 -307 212 -329 232 -14 12 -4 10 45 -8z m-214 0 c-3 -3
-12 -4 -19 -1 -8 3 -5 6 6 6 11 1 17 -2 13 -5z m1098 -5 c11 -17 -1 -21 -15
-4 -8 9 -8 15 -2 15 6 0 14 -5 17 -11z m1865 -20 c0 -5 -4 -9 -10 -9 -5 0 -10
7 -10 16 0 8 5 12 10 9 6 -3 10 -10 10 -16z m-5206 -15 c10 -25 -1 -29 -14 -5
-6 12 -7 21 -1 21 5 0 12 -7 15 -16z m2113 10 c-3 -3 -12 -4 -19 -1 -8 3 -5 6
6 6 11 1 17 -2 13 -5z m1303 -15 c0 -6 -4 -7 -10 -4 -5 3 -10 11 -10 16 0 6 5
7 10 4 6 -3 10 -11 10 -16z m573 1 c-3 -11 -9 -20 -13 -20 -5 0 -6 9 -3 20 3
11 9 20 13 20 5 0 6 -9 3 -20z m-2847 -48 c-12 -11 -17 7 -9 34 l8 29 3 -28
c2 -16 1 -31 -2 -35z m931 52 c-3 -3 -12 -4 -19 -1 -8 3 -5 6 6 6 11 1 17 -2
13 -5z m-1217 -13 c0 -6 -4 -13 -10 -16 -5 -3 -10 1 -10 9 0 9 5 16 10 16 6 0
10 -4 10 -9z m1180 5 c0 -2 -42 -13 -92 -25 -51 -12 -129 -31 -173 -41 -74
-18 -179 -35 -145 -24 25 8 384 93 398 93 6 1 12 -1 12 -3z m1090 -26 c0 -5
-2 -10 -4 -10 -3 0 -8 5 -11 10 -3 6 -1 10 4 10 6 0 11 -4 11 -10z m-2520 -10
c0 -5 -5 -10 -11 -10 -5 0 -7 5 -4 10 3 6 8 10 11 10 2 0 4 -4 4 -10z m1399
-83 c1 -41 -2 -49 -23 -56 -13 -5 -26 -17 -30 -26 -3 -9 -2 -13 4 -10 13 8
110 -66 110 -85 -1 -12 -3 -12 -11 3 -5 9 -17 17 -25 17 -8 0 -12 -5 -9 -10 4
-6 11 -7 17 -4 7 5 8 2 4 -5 -5 -7 0 -21 10 -32 17 -19 17 -19 -4 -16 -12 2
-28 9 -35 17 -10 10 -9 11 2 5 9 -5 12 -3 9 5 -7 23 -28 23 -36 1 -7 -20 -11
-18 -60 25 -28 25 -52 53 -53 62 -1 10 -4 7 -8 -8 -8 -26 -9 -27 -53 -16 -28
6 -40 -7 -15 -17 11 -4 165 -125 193 -152 32 -30 109 -91 128 -100 95 -50 176
-98 186 -110 15 -18 -3 -16 -170 25 -63 15 -127 30 -142 34 -14 3 -48 26 -75
50 -26 24 -106 91 -178 150 -71 59 -164 136 -206 170 -62 53 -80 63 -105 60
-16 -2 -6 3 21 11 61 18 91 19 51 2 l-30 -13 30 -11 c55 -21 64 -22 93 -17 19
4 28 11 25 19 -3 7 -1 16 5 20 6 3 11 -1 11 -11 0 -13 6 -15 30 -10 17 3 30 1
30 -3 0 -5 -13 -12 -30 -16 -36 -8 -39 -21 -6 -29 13 -3 30 -8 38 -11 10 -4
12 7 10 53 -3 49 -1 60 14 66 24 9 26 5 31 -68 5 -58 8 -65 30 -71 46 -11 56
5 54 88 l-2 76 38 10 c113 28 118 28 125 7 3 -12 6 -42 7 -69z m1080 70 l23
-15 -38 -11 c-51 -14 -51 -14 -92 11 -27 17 -32 23 -19 27 31 11 104 4 126
-12z m326 14 c3 -5 2 -12 -3 -15 -5 -3 -9 1 -9 9 0 17 3 19 12 6z m1395 -16
c6 3 10 2 10 -3 0 -15 -51 -25 -63 -13 -6 6 -12 17 -13 26 -2 13 1 13 27 -1
16 -8 34 -12 39 -9z m-3688 1 c4 -6 -2 -19 -15 -28 -12 -9 -19 -20 -15 -24 4
-4 14 -2 21 5 19 15 103 6 122 -13 18 -18 20 -32 3 -19 -22 17 -61 22 -108 13
-48 -9 -63 0 -53 29 5 13 3 13 -13 -2 -16 -15 -17 -19 -4 -27 12 -7 10 -9 -7
-7 -29 2 -38 43 -10 51 12 3 17 10 14 19 -6 17 54 20 65 3z m1763 4 c-3 -5
-12 -10 -18 -10 -7 0 -6 4 3 10 19 12 23 12 15 0z m-1975 -32 c0 -5 -7 -8 -15
-5 -8 4 -17 2 -20 -3 -4 -6 -11 -10 -17 -10 -6 0 -1 9 12 20 22 19 40 19 40
-2z m2039 -2 l23 -24 -31 -7 c-21 -4 -40 -1 -60 11 -45 27 -44 39 4 41 33 2
46 -2 64 -21z m-1989 0 c0 -8 -7 -16 -15 -20 -12 -4 -13 -2 -2 14 14 24 17 25
17 6z m635 -26 c-11 -5 -29 -8 -40 -8 -16 0 -15 2 5 8 34 11 60 11 35 0z
m1585 1 c0 -5 -26 -15 -57 -22 -36 -8 -50 -14 -36 -17 28 -4 53 -32 29 -32 -9
0 -16 -4 -16 -10 0 -5 6 -10 13 -10 6 0 -1 -7 -17 -15 -27 -15 -31 -14 -77 16
-27 17 -49 35 -49 40 0 5 19 9 42 9 23 0 49 6 57 14 9 8 36 19 61 24 25 5 46
10 48 11 1 1 2 -3 2 -8z m-208 -27 c-13 -9 -26 -13 -30 -9 -8 8 17 25 38 25 9
0 6 -6 -8 -16z m-3062 -36 c0 -14 -19 1 -31 25 -12 22 -12 22 10 3 11 -11 21
-23 21 -28z m1065 22 c-3 -5 -10 -10 -16 -10 -5 0 -9 5 -9 10 0 6 7 10 16 10
8 0 12 -4 9 -10z m113 -8 c6 -18 -15 -14 -22 4 -4 10 -1 14 6 12 6 -2 14 -10
16 -16z m-1528 -2 c0 -5 -4 -10 -9 -10 -6 0 -13 5 -16 10 -3 6 1 10 9 10 9 0
16 -4 16 -10z m1704 -5 c3 -8 1 -15 -3 -15 -5 0 -11 7 -15 15 -3 8 -1 15 3 15
5 0 11 -7 15 -15z m526 5 c0 -5 -4 -10 -10 -10 -5 0 -10 5 -10 10 0 6 5 10 10
10 6 0 10 -4 10 -10z m-2245 -28 c-7 -8 -35 7 -35 18 0 6 7 6 20 -2 10 -7 17
-14 15 -16z m1834 19 c8 -5 9 -11 3 -15 -5 -3 -15 1 -22 9 -14 16 -3 20 19 6z
m-74 -11 c3 -5 1 -10 -4 -10 -6 0 -11 5 -11 10 0 6 2 10 4 10 3 0 8 -4 11 -10z
m-296 -35 c9 -5 20 -10 26 -10 5 0 11 -8 13 -17 2 -12 -2 -15 -16 -11 -11 2
-29 0 -41 -6 -25 -14 -29 3 -4 17 16 9 16 11 0 27 -10 9 -14 22 -10 28 4 7 8
6 11 -3 3 -8 12 -19 21 -25z m-1074 15 c3 -5 2 -10 -4 -10 -5 0 -13 5 -16 10
-3 6 -2 10 4 10 5 0 13 -4 16 -10z m41 -4 c8 -8 14 -20 14 -26 0 -6 10 -21 23
-33 20 -22 35 -87 19 -87 -4 0 -16 17 -26 38 -10 20 -22 45 -28 55 -16 32 -28
67 -22 67 3 0 12 -6 20 -14z m119 -27 c5 -30 13 -43 32 -50 14 -5 21 -14 17
-20 -5 -8 -8 -8 -14 0 -3 7 -14 9 -23 5 -12 -4 -17 -1 -17 11 0 9 -4 14 -9 11
-12 -8 -23 41 -16 65 10 31 23 22 30 -22z m55 0 c0 -10 4 -20 9 -23 13 -9 21
-48 9 -44 -6 2 -19 28 -28 56 -13 40 -14 49 -4 41 8 -6 14 -20 14 -30z m950
10 c0 -18 -1 -18 -19 -2 -22 18 -19 35 4 26 8 -3 15 -14 15 -24z m277 15 c-3
-3 -12 -4 -19 -1 -8 3 -5 6 6 6 11 1 17 -2 13 -5z m1348 -36 c-29 -94 -55
-159 -70 -181 l-17 -22 7 25 c4 14 10 27 14 30 3 3 8 14 9 25 2 11 7 25 12 30
11 15 36 94 39 128 1 4 5 7 10 7 5 0 3 -19 -4 -42z m-2455 2 c-18 -11 -22 -7
-14 14 5 13 10 14 18 6 8 -8 7 -13 -4 -20z m55 4 c22 -22 7 -91 -27 -125 -21
-21 -32 -69 -16 -69 9 0 9 -3 3 -8 -6 -4 -17 -27 -24 -52 -12 -41 -14 -43 -27
-25 -15 20 -19 75 -6 75 5 0 9 7 9 15 0 8 -4 15 -9 15 -4 0 -8 5 -8 11 0 5 3
8 8 6 4 -3 12 1 19 8 10 10 9 16 -4 27 -15 11 -16 11 -9 -7 6 -16 5 -18 -5 -7
-19 18 3 35 41 34 23 0 29 3 22 11 -18 24 -23 65 -7 71 8 3 12 12 9 21 -8 20
10 19 31 -1z m3402 -16 c-3 -7 -5 -2 -5 12 0 14 2 19 5 13 2 -7 2 -19 0 -25z
m-3750 -46 c8 -18 12 -38 9 -45 -2 -7 -8 -2 -12 11 -3 13 -21 29 -38 37 -27
12 -28 13 -8 14 16 1 22 7 23 24 0 14 2 16 6 7 2 -8 11 -30 20 -48z m1105 28
c6 0 17 -8 25 -17 10 -14 13 -14 11 -3 -3 17 0 17 65 0 26 -7 46 -18 44 -24
-4 -11 -93 -13 -104 -2 -16 16 -24 4 -9 -13 24 -26 18 -67 -9 -63 -30 5 -43
21 -26 32 12 7 12 12 -3 34 -9 14 -21 26 -26 26 -6 0 -10 7 -10 15 0 9 6 12
15 9 10 -4 14 -1 12 7 -2 8 -2 11 0 7 3 -5 9 -8 15 -8z m-133 -26 c2 -2 -3 -4
-12 -4 -9 0 -17 -8 -17 -17 -1 -16 -2 -16 -15 1 -22 29 -18 37 13 30 15 -4 29
-8 31 -10z m2846 6 c3 -6 -1 -7 -9 -4 -18 7 -21 14 -7 14 6 0 13 -4 16 -10z
m-3725 -31 c0 -6 -4 -7 -10 -4 -5 3 -10 11 -10 16 0 6 5 7 10 4 6 -3 10 -11
10 -16z m710 2 c0 -5 -7 -12 -16 -15 -14 -5 -15 -4 -4 9 14 17 20 19 20 6z
m270 -6 c11 -13 9 -15 -11 -11 -13 3 -26 5 -29 5 -4 1 21 20 26 21 1 0 7 -7
14 -15z m1163 -77 c56 -45 104 -83 106 -85 2 -2 2 -5 0 -7 -5 -5 -162 113
-199 150 -50 49 -7 22 93 -58z m-1237 35 c1 -37 12 -56 28 -50 7 3 13 -4 13
-14 1 -11 -2 -17 -7 -14 -5 3 -3 -7 5 -22 15 -29 21 -92 8 -79 -5 4 -13 24
-18 44 -8 26 -17 38 -32 40 -18 3 -22 9 -21 38 1 19 -6 42 -15 52 -21 23 -22
36 -2 28 8 -3 15 -1 15 5 0 26 25 -1 26 -28z m3246 2 c3 -14 1 -25 -3 -25 -5
0 -9 11 -9 25 0 14 2 25 4 25 2 0 6 -11 8 -25z m-3313 -25 c0 -10 -3 -8 -9 5
-12 27 -12 43 0 25 5 -8 9 -22 9 -30z m115 21 c3 -5 -1 -14 -8 -20 -12 -10
-13 -8 -9 8 6 23 9 25 17 12z m36 -11 c0 -5 -4 -10 -10 -10 -5 0 -10 5 -10 10
0 6 5 10 10 10 6 0 10 -4 10 -10z m1985 -88 c-5 -5 -97 61 -116 85 -8 9 16 -5
53 -32 37 -27 66 -51 63 -53z m1266 73 c-49 -28 -61 -31 -61 -12 0 8 17 18 38
24 62 18 69 14 23 -12z m-3948 -45 c20 0 20 0 1 -14 -24 -18 -44 -3 -36 27 5
18 7 19 10 5 2 -11 13 -18 25 -18z m-236 -2 c-3 -8 -6 -5 -6 6 -1 11 2 17 5
13 3 -3 4 -12 1 -19z m5386 -2 c11 -9 14 -17 8 -21 -13 -7 -51 12 -51 25 0 14
22 12 43 -4z m-4743 -17 c0 -5 -4 -9 -10 -9 -5 0 -10 7 -10 16 0 8 5 12 10 9
6 -3 10 -10 10 -16z m-650 -20 c0 -10 5 -19 10 -19 6 0 10 -11 10 -25 0 -14
-4 -25 -10 -25 -5 0 -10 11 -10 25 0 14 -6 25 -14 25 -9 0 -12 8 -8 25 5 28
22 24 22 -6z m71 4 c25 -7 42 -133 18 -133 -6 0 -9 7 -5 15 3 8 1 15 -3 15 -5
0 -11 -6 -14 -12 -3 -9 -9 -7 -20 7 -9 11 -12 24 -7 29 5 5 5 19 0 31 -5 14
-4 27 3 34 8 8 5 11 -12 11 -13 0 -20 4 -16 11 4 6 14 7 24 4 9 -4 23 -9 32
-12z m-555 -63 c8 0 12 -5 9 -10 -4 -6 -10 -8 -15 -5 -5 3 -14 -4 -20 -15 -6
-11 -16 -20 -23 -20 -8 0 -8 3 2 9 11 7 10 11 -5 20 -15 8 -16 11 -4 12 8 1
21 1 29 0 7 -2 10 3 6 9 -4 6 -15 8 -26 5 -27 -9 -24 4 4 14 16 6 23 5 25 -5
2 -8 10 -14 18 -14z m19 20 c3 -5 1 -10 -4 -10 -6 0 -11 5 -11 10 0 6 2 10 4
10 3 0 8 -4 11 -10z m780 -10 c2 -4 -7 -5 -20 -2 -14 2 -25 8 -25 12 0 10 38
1 45 -10z m-902 0 c18 0 19 -2 7 -10 -13 -8 -12 -10 3 -10 9 0 17 -4 17 -10 0
-5 -4 -10 -9 -10 -5 0 -16 -3 -25 -6 -10 -4 -17 2 -22 20 -3 14 -10 23 -15 20
-5 -3 -9 0 -9 6 0 7 7 9 16 6 9 -3 25 -6 37 -6z m1387 6 c0 -11 -19 -15 -25
-6 -3 5 1 10 9 10 9 0 16 -2 16 -4z m2308 -23 c-3 -25 -9 -28 -162 -67 -88
-23 -152 -42 -143 -44 14 -3 17 -17 17 -83 0 -43 -3 -79 -7 -79 -5 0 -6 34 -5
76 3 68 2 76 -13 70 -9 -3 -23 -6 -30 -6 -10 0 -14 -15 -14 -52 1 -29 0 -58 0
-63 -1 -13 -41 -17 -41 -4 0 5 7 9 15 9 12 0 15 13 15 60 l0 60 -27 -7 c-16
-3 -47 -15 -70 -25 -37 -16 -43 -23 -43 -50 0 -24 3 -28 13 -19 8 6 17 8 20 4
15 -14 -27 -30 -60 -23 -38 9 -47 2 -28 -23 11 -16 14 -16 28 -2 22 21 27 19
27 -10 0 -20 -5 -25 -25 -25 -24 0 -24 0 -7 -30 9 -16 19 -25 20 -20 2 6 8 10
13 10 5 0 3 -13 -6 -29 -15 -29 -12 -61 6 -61 19 0 8 -31 -16 -42 -28 -13 -33
-28 -9 -28 8 0 13 -4 10 -9 -3 -5 1 -12 10 -15 8 -3 13 -10 10 -15 -3 -5 1
-14 9 -21 10 -9 15 -9 15 -1 0 6 -5 11 -12 11 -6 0 -8 3 -5 7 4 3 2 12 -4 19
-11 14 -4 34 11 34 5 0 7 -7 4 -15 -5 -11 3 -17 27 -22 19 -4 37 -6 40 -6 4 1
14 -6 23 -16 13 -14 14 -21 5 -27 -7 -4 -10 -3 -6 3 4 6 0 16 -8 23 -12 10
-15 9 -15 -4 0 -22 -27 -21 -33 1 -3 11 -5 6 -6 -11 -1 -22 3 -27 15 -22 17 6
47 -17 36 -28 -4 -4 5 -3 20 3 20 8 29 7 38 -5 13 -15 9 -17 -29 -14 -13 1
-21 -3 -17 -8 3 -5 -1 -13 -10 -16 -15 -6 -15 -8 1 -26 10 -11 23 -20 28 -20
6 0 2 7 -9 15 -20 15 -16 19 10 9 9 -3 16 -10 16 -16 0 -5 7 -16 15 -24 8 -9
15 -12 15 -8 0 3 7 1 16 -6 8 -8 33 -14 55 -14 42 -1 61 -18 51 -44 -3 -10 -1
-13 6 -8 6 3 13 2 17 -4 10 -17 35 -11 35 8 0 12 4 10 13 -8 7 -14 20 -25 28
-24 8 1 15 -7 15 -17 0 -13 -7 -18 -23 -17 -13 2 -23 5 -23 8 0 3 -15 11 -32
17 l-33 12 28 -22 c15 -13 27 -26 27 -31 0 -21 -60 11 -128 67 -77 64 -85 71
-267 219 l-107 88 66 30 c60 27 66 32 56 49 -6 11 -10 24 -9 28 3 19 -2 33
-12 33 -5 0 -7 -4 -4 -10 3 -6 -1 -7 -10 -4 -9 4 -14 12 -11 19 2 7 -1 18 -7
25 -9 10 -9 11 1 6 6 -4 12 -3 12 2 0 17 -11 19 -50 12 -22 -4 -37 -3 -34 1 3
5 14 9 25 9 10 0 19 4 19 10 0 5 6 7 14 4 18 -7 31 15 17 29 -8 8 -14 7 -23
-5 -7 -9 -22 -18 -33 -20 -16 -2 -19 2 -17 19 2 14 -4 23 -18 28 -16 5 -18 10
-9 26 5 11 14 17 19 14 6 -3 17 -2 26 3 13 7 14 11 4 17 -7 4 -16 2 -20 -5 -5
-8 -10 -9 -14 -2 -3 6 0 13 6 15 10 4 9 8 -2 16 -40 27 -159 127 -160 134 0 4
29 -16 65 -44 102 -80 92 -80 407 1 150 38 287 74 303 79 45 14 47 13 43 -16z
m-3501 -19 c7 -7 9 -15 4 -18 -5 -3 -11 1 -15 9 -3 8 -12 15 -20 15 -8 0 -18
5 -22 11 -9 15 36 1 53 -17z m-32 -17 c7 -7 4 -8 -7 -4 -21 7 -24 -3 -6 -21 6
-6 9 -14 6 -18 -11 -10 -49 36 -41 49 4 7 0 7 -10 -2 -10 -7 -17 -9 -17 -3 0
23 53 22 75 -1z m805 12 c0 -13 -28 -18 -33 -6 -3 7 3 13 14 13 11 0 19 -3 19
-7z m417 -40 c1 -26 -2 -39 -9 -37 -14 5 -18 47 -5 55 5 3 3 9 -4 14 -11 7
-11 9 1 9 11 0 16 -11 17 -41z m-765 -1 c-9 -9 -12 -7 -12 12 0 19 3 21 12 12
9 -9 9 -15 0 -24z m388 16 c0 -21 -27 -47 -35 -34 -3 5 -2 10 3 10 6 0 8 9 5
20 -4 14 0 20 11 20 9 0 16 -7 16 -16z m468 -18 c3 -20 8 -26 18 -22 8 3 13 2
10 -3 -3 -5 -20 -11 -36 -13 -24 -4 -30 -1 -25 9 3 8 5 26 5 40 0 34 24 25 28
-11z m226 -22 c28 -26 52 -52 52 -58 1 -6 2 -15 3 -21 1 -5 5 -5 9 2 8 13 6
15 174 -139 69 -62 92 -78 108 -73 12 4 27 1 35 -5 11 -9 44 -4 147 24 333 89
511 136 520 136 5 0 8 -12 6 -27 -3 -24 -10 -30 -48 -39 -33 -8 -46 -16 -47
-30 -2 -16 -1 -16 3 -1 7 21 54 24 54 2 0 -8 -7 -15 -15 -15 -8 0 -12 -6 -9
-13 2 -7 -3 -21 -12 -32 -8 -11 -13 -15 -11 -10 2 6 1 19 -4 30 -5 13 -8 -3
-8 -47 -1 -91 -18 -87 -20 4 -1 39 -4 74 -6 78 -3 4 -16 5 -30 2 -24 -4 -25
-6 -25 -88 0 -46 -3 -84 -7 -84 -5 0 -7 21 -6 47 0 26 -1 61 -4 79 -5 29 -8
31 -32 25 -25 -7 -26 -9 -26 -89 0 -45 -3 -82 -7 -82 -5 0 -8 28 -9 63 0 34
-5 71 -10 82 -9 18 -9 18 -5 -3 4 -21 2 -22 -32 -15 -51 11 -106 9 -134 -4
-13 -6 -34 -16 -48 -22 -24 -10 -24 -10 5 -4 l30 6 -37 -37 c-46 -47 -50 -76
-10 -76 27 0 52 -15 52 -33 0 -4 -9 -6 -20 -2 -15 5 -23 0 -32 -20 -6 -14 -17
-24 -24 -21 -7 3 -22 -7 -32 -21 -15 -21 -22 -24 -38 -15 -30 16 -44 -15 -44
-99 0 -62 -2 -70 -15 -59 -8 7 -15 18 -15 24 0 7 -14 34 -32 62 -47 72 -59 95
-52 105 3 5 0 9 -6 9 -7 0 -9 7 -6 16 3 9 2 12 -5 9 -6 -4 -9 0 -7 11 2 12 -5
23 -18 28 -25 11 -59 69 -51 88 3 8 -6 24 -19 37 -13 13 -24 28 -24 35 0 6
-13 26 -30 44 -16 18 -30 38 -30 43 0 6 -5 7 -10 4 -6 -4 -17 -1 -26 5 -12 11
-12 9 -1 -11 7 -13 21 -37 32 -54 85 -133 117 -182 126 -193 6 -7 8 -16 4 -20
-4 -4 -12 1 -19 12 -142 234 -165 261 -221 272 -19 3 -33 10 -30 14 3 5 21 4
41 -2 20 -5 38 -7 42 -4 3 3 -1 6 -9 6 -11 0 -11 2 1 10 13 8 12 10 -3 10 -10
0 -15 5 -12 10 3 6 -1 10 -10 10 -12 0 -15 5 -11 16 5 14 4 15 -8 5 -8 -7 -19
-10 -25 -7 -5 3 -7 -3 -4 -14 3 -11 1 -21 -3 -21 -5 -1 -20 -3 -34 -4 -14 -2
-40 -8 -57 -13 -30 -10 -33 -9 -34 11 -2 22 -2 22 -6 0 -5 -28 -23 -30 -23 -3
0 12 -7 20 -17 20 -15 0 -15 -2 -4 -9 18 -11 6 -45 -13 -38 -8 3 -24 -1 -35
-10 -12 -8 -25 -13 -27 -10 -7 6 36 47 50 47 5 0 7 2 4 5 -3 3 -24 -2 -48 -10
-24 -8 -45 -13 -48 -11 -2 3 7 8 22 12 29 7 35 31 10 41 -9 3 -32 1 -52 -5
-24 -8 -38 -8 -40 -2 -2 6 -10 10 -18 10 -8 0 -14 7 -14 16 0 8 -4 12 -10 9
-5 -3 -10 -2 -10 3 0 11 33 25 112 47 52 15 60 15 87 1 16 -9 37 -16 46 -16 9
0 13 -5 10 -10 -8 -13 16 -37 51 -50 22 -9 29 -7 41 10 8 11 25 20 38 20 22 0
23 2 12 30 -12 32 -43 40 -65 18 -6 -6 -23 -13 -38 -14 -26 -3 -26 -2 -7 11
11 8 39 19 62 24 46 10 58 17 48 27 -4 4 -27 1 -52 -6 -25 -7 -48 -10 -51 -7
-3 3 11 10 32 16 22 6 46 15 54 21 20 13 16 15 74 -36z m2001 -81 c9 -3 36 13
65 37 27 23 50 39 50 36 0 -3 -56 -51 -125 -106 -69 -55 -125 -97 -125 -92 0
4 23 25 50 46 52 40 63 53 33 41 -56 -22 -73 -24 -73 -6 0 13 9 18 35 19 20 1
40 4 45 7 4 3 10 0 12 -6 2 -7 8 -6 16 4 10 12 10 17 1 23 -7 4 -9 3 -6 -2 3
-6 -12 -11 -33 -11 -22 -1 -43 3 -46 9 -5 7 -2 9 9 5 9 -3 19 -2 22 3 4 6 -2
10 -12 10 -14 0 -15 2 -4 9 9 6 10 10 2 16 -7 4 -18 2 -25 -4 -16 -14 -27 -4
-19 17 5 11 2 14 -10 9 -11 -4 -17 -1 -17 9 0 12 4 13 21 4 17 -10 21 -8 26 9
5 20 17 25 68 33 18 3 20 -3 23 -55 2 -39 8 -60 17 -64z m-1250 107 c-3 -5
-13 -10 -21 -10 -18 0 -20 -76 -1 -83 7 -3 5 -6 -5 -6 -14 -1 -18 7 -18 39 0
31 -4 40 -17 40 -27 0 -2 18 32 23 17 2 31 5 33 6 2 0 0 -3 -3 -9z m98 -62
c19 2 27 9 27 23 0 10 5 19 10 19 6 0 10 -9 10 -20 0 -14 -11 -22 -37 -29 -60
-17 -63 -15 -62 32 l1 42 12 -35 c9 -30 15 -35 39 -32z m-2431 -11 c-2 -12 1
-17 7 -13 6 4 11 2 11 -3 0 -6 6 -11 13 -11 21 0 67 -50 67 -73 0 -21 0 -21
-16 3 -26 38 -45 50 -71 44 -14 -4 -23 -2 -23 5 0 6 -13 11 -29 11 -17 0 -33
5 -36 10 -3 6 3 10 14 10 23 0 28 16 9 23 -7 2 -27 2 -45 -1 -28 -4 -31 -2
-26 17 5 22 37 29 48 11 11 -18 35 -10 35 12 0 22 0 22 22 -2 13 -13 21 -33
20 -43z m963 54 c-3 -5 -1 -12 4 -16 6 -3 8 -12 5 -19 -3 -8 -1 -17 5 -21 6
-3 11 -13 11 -22 0 -13 -3 -13 -15 -3 -24 20 -30 4 -11 -26 21 -31 16 -39 -21
-30 -21 6 -24 9 -12 17 11 7 10 9 -7 9 -30 0 -33 6 -21 51 8 35 13 40 32 37
18 -4 21 -1 17 14 -2 10 1 18 7 18 7 0 10 -4 6 -9z m2930 -36 c75 -19 149 -42
165 -50 36 -19 41 -19 34 0 -9 22 1 19 52 -20 l46 -36 -43 6 -44 6 27 -24 c15
-14 33 -27 40 -30 21 -7 5 -16 -56 -32 l-56 -15 -160 116 c-88 63 -160 118
-160 120 0 3 4 3 9 0 5 -4 71 -22 146 -41z m-4035 15 c-8 -6 -24 -9 -35 -9
-15 0 -13 4 10 14 32 14 49 10 25 -5z m676 -59 c-2 -23 -1 -43 3 -46 8 -5 5
-66 -6 -125 l-6 -35 -7 40 c-4 22 -9 54 -12 70 -3 17 -3 24 -1 17 3 -7 8 -10
13 -7 5 3 2 21 -5 39 -10 23 -11 36 -4 38 11 4 1 38 -11 38 -5 0 -11 -12 -13
-27 -3 -22 -4 -20 -6 10 -1 34 1 38 19 32 11 -4 20 -2 20 4 0 6 -5 11 -11 11
-5 0 -7 5 -4 11 14 21 35 -28 31 -70z m499 69 c-3 -5 -2 -10 2 -10 5 0 9 -24
9 -54 l0 -54 -22 16 c-22 16 -35 50 -14 37 19 -12 31 5 19 26 -10 20 -6 49 6
49 4 0 3 -4 0 -10z m1895 -6 c0 -8 -5 -12 -10 -9 -6 4 -8 11 -5 16 9 14 15 11
15 -7z m-2040 -20 c0 -8 -4 -12 -10 -9 -5 3 -10 10 -10 16 0 5 5 9 10 9 6 0
10 -7 10 -16z m-1035 -14 c-3 -5 -12 -10 -18 -10 -7 0 -6 4 3 10 19 12 23 12
15 0z m1639 -5 c-10 -8 -23 -14 -29 -14 -5 0 -1 6 9 14 11 8 24 15 30 15 5 0
1 -7 -10 -15z m713 -52 c-4 -6 -22 -14 -38 -17 -16 -3 -43 -9 -60 -12 -31 -6
-31 -6 -11 14 12 12 29 18 43 16 31 -6 47 6 53 36 7 37 8 38 15 5 4 -16 3 -35
-2 -42z m-1338 35 c0 -22 -1 -22 -9 -3 -8 21 -8 21 -23 -25 -4 -10 -6 -8 -6 6
-1 20 16 44 31 44 4 0 8 -10 7 -22z m-979 -13 c10 -12 10 -15 -3 -15 -8 0 -17
7 -21 15 -3 8 -2 15 3 15 5 0 14 -7 21 -15z m3252 -78 c2 -48 4 -83 6 -77 2 5
22 15 44 21 31 8 38 13 27 20 -11 7 -9 9 7 9 13 0 21 -7 22 -17 1 -29 -19 -62
-34 -56 -10 4 -14 -4 -15 -23 -1 -28 -1 -29 -8 -4 -3 14 -14 26 -23 28 -19 3
-48 -40 -30 -46 6 -2 8 -10 5 -18 -3 -7 2 -17 11 -20 18 -7 22 -24 5 -24 -6 0
-26 7 -45 16 -26 13 -33 21 -29 35 4 12 2 19 -6 19 -8 0 -6 7 5 19 13 14 14
20 5 23 -8 3 -10 11 -6 22 6 15 10 16 23 5 14 -11 16 -9 14 16 -2 17 1 38 5
48 4 9 5 29 2 44 -5 25 1 58 9 51 2 -2 4 -43 6 -91z m-3327 73 c-3 -5 -11 -10
-16 -10 -6 0 -7 5 -4 10 3 6 11 10 16 10 6 0 7 -4 4 -10z m3080 -10 c-3 -5
-12 -10 -18 -10 -7 0 -6 4 3 10 19 12 23 12 15 0z m-2939 -25 c1 -8 -4 -11
-11 -8 -8 2 -11 11 -8 19 6 16 16 11 19 -11z m3154 15 c0 -5 -7 -10 -16 -10
-8 0 -12 5 -9 10 3 6 10 10 16 10 5 0 9 -4 9 -10z m-2339 -14 c-14 -8 -19 -15
-12 -17 9 -3 7 -15 -5 -44 -18 -42 -21 -48 -23 -66 0 -5 -5 -8 -10 -5 -15 10
-9 55 10 72 13 12 16 20 8 24 -18 12 8 50 34 50 22 -1 22 -1 -2 -14z m252 0
c3 -8 -2 -16 -13 -19 -20 -5 -23 12 -5 25 13 10 12 10 18 -6z m3432 -53 c10
-26 33 -79 50 -118 41 -90 49 -115 36 -115 -6 0 -11 5 -11 11 0 6 -14 41 -31
77 -46 99 -79 180 -79 192 0 23 18 -1 35 -47z m-4570 31 c-17 -13 -18 -16 -5
-24 13 -8 13 -11 -2 -27 -10 -9 -21 -13 -25 -9 -4 4 -1 11 7 16 12 8 12 10 -3
16 -9 3 -17 11 -17 17 0 6 3 7 6 4 4 -3 16 0 28 8 27 20 37 19 11 -1z m145
-26 c0 -4 8 -8 18 -8 15 0 15 2 2 11 -13 9 -13 10 0 5 8 -3 23 -9 33 -12 16
-6 23 -34 11 -47 -4 -3 -13 0 -21 8 -8 8 -23 15 -34 15 -10 0 -19 5 -19 10 0
18 -22 10 -27 -10 -3 -11 -9 -17 -14 -14 -12 7 13 44 30 44 12 0 12 3 3 12 -7
7 -12 17 -12 23 1 11 30 -25 30 -37z m1140 28 c0 -2 -7 -7 -16 -10 -8 -3 -12
-2 -9 4 6 10 25 14 25 6z m-1210 -16 c0 -5 -7 -10 -15 -10 -8 0 -15 5 -15 10
0 6 7 10 15 10 8 0 15 -4 15 -10z m1034 -12 c-3 -5 -12 -4 -20 3 -19 16 -18
18 6 12 11 -3 17 -9 14 -15z m4996 -17 c0 -24 -7 -46 -17 -57 -17 -17 -18 -16
-21 25 -3 40 10 71 29 71 5 0 9 -18 9 -39z m-5070 3 c0 -12 -4 -12 -19 -2 -11
7 -18 15 -15 20 7 11 34 -3 34 -18z m-8 -34 c3 10 8 10 27 1 24 -13 45 -6 22
8 -10 6 -9 10 4 15 26 10 57 7 50 -4 -4 -6 -11 -8 -16 -5 -5 4 -9 1 -9 -4 0
-6 7 -11 15 -11 22 0 14 -43 -10 -55 -15 -8 -20 -20 -19 -48 1 -24 -3 -36 -10
-34 -6 2 -10 12 -10 21 1 10 -8 28 -21 42 -25 27 -37 31 -29 10 3 -8 0 -17 -7
-22 -9 -5 -10 -2 -6 9 3 10 2 17 -4 17 -6 0 -7 6 -1 17 7 12 3 23 -14 42 -13
14 -24 33 -24 41 0 9 12 2 29 -19 18 -22 30 -30 33 -21z m-770 3 c20 -18 25
-57 6 -51 -7 3 -14 14 -16 26 -2 12 -8 22 -13 22 -5 0 -9 5 -9 10 0 15 11 12
32 -7z m952 6 c-4 -7 5 -10 27 -8 56 3 89 0 89 -11 0 -5 -10 -10 -22 -10 -32
1 -61 -5 -74 -13 -12 -7 -37 37 -27 47 10 10 15 7 7 -5z m2336 -25 c-8 -8 -23
-20 -34 -25 -13 -7 -9 -1 9 15 34 29 43 33 25 10z m-2375 -4 c-3 -5 -10 -10
-16 -10 -5 0 -9 5 -9 10 0 6 7 10 16 10 8 0 12 -4 9 -10z m25 -20 c0 -5 -5
-10 -11 -10 -5 0 -7 5 -4 10 3 6 8 10 11 10 2 0 4 -4 4 -10z m-1063 -22 c-3
-8 -6 -5 -6 6 -1 11 2 17 5 13 3 -3 4 -12 1 -19z m4180 -9 c43 -18 96 -38 118
-45 142 -48 147 -50 293 -159 37 -27 87 -54 111 -61 56 -14 63 -30 14 -31 -31
-1 -111 15 -309 64 -12 3 -26 -2 -35 -13 -13 -16 -12 -17 14 -12 39 8 21 -6
-28 -20 -52 -16 -114 -67 -99 -82 8 -8 39 -3 115 19 134 37 150 41 144 31 -3
-4 -17 -11 -32 -14 -65 -15 -198 -60 -201 -68 -6 -15 -40 -8 -44 9 -4 24 -48
25 -48 1 0 -21 -11 -23 -28 -6 -15 15 -16 32 -2 23 13 -8 233 166 223 176 -5
3 -73 54 -153 113 -79 58 -141 106 -137 106 3 0 41 -14 84 -31z m-2257 17 c0
-3 -4 -8 -10 -11 -5 -3 -10 -1 -10 4 0 6 5 11 10 11 6 0 10 -2 10 -4z m1050
-2 c0 -19 -15 -30 -35 -26 -39 7 -39 30 1 29 19 -1 34 -2 34 -3z m-130 -24 c0
-5 -2 -10 -4 -10 -3 0 -8 5 -11 10 -3 6 -1 10 4 10 6 0 11 -4 11 -10z m-1898
-74 c3 3 8 -9 10 -25 3 -18 0 -32 -8 -35 -16 -6 -28 25 -13 34 8 6 8 9 -1 12
-8 2 -14 13 -16 24 -3 18 -2 18 10 2 7 -10 15 -15 18 -12z m1888 -43 c0 -20
-12 -15 -55 23 l-40 36 48 -23 c26 -13 47 -29 47 -36z m-282 16 c-2 -6 -7 -10
-11 -10 -4 1 -15 1 -24 1 -15 0 -16 2 -3 10 20 13 43 13 38 -1z m-119 -43
c-83 -50 -99 -53 -99 -22 0 20 5 26 23 26 12 0 42 7 67 14 68 22 70 19 9 -18z
m-2256 -15 c16 -6 26 -15 23 -20 -4 -5 2 -7 11 -5 23 5 48 -14 57 -44 6 -17 3
-22 -10 -22 -14 0 -14 -2 -3 -16 11 -14 10 -18 -6 -30 -10 -8 -13 -14 -6 -14
7 0 10 -4 7 -9 -8 -13 29 -42 55 -44 36 -2 52 -22 44 -56 -5 -22 -11 -28 -22
-24 -14 6 -14 7 1 18 17 13 22 35 7 35 -6 0 -13 -4 -16 -10 -3 -5 -12 -10 -18
-10 -9 0 -8 3 1 8 16 10 -60 51 -99 54 -17 1 -25 7 -22 15 7 17 -37 52 -56 45
-9 -3 -12 -1 -7 6 4 7 2 12 -3 12 -6 0 -11 5 -11 11 0 6 9 8 20 4 14 -4 20 -2
20 8 0 9 6 17 13 20 7 3 5 8 -8 13 -33 13 -50 34 -36 44 9 5 11 16 6 31 -7 23
-7 23 11 7 11 -9 32 -21 47 -27z m4669 -15 c-8 -15 -20 16 -14 38 6 20 6 20
12 -4 4 -14 5 -29 2 -34z m-4732 24 c0 -5 -7 -10 -16 -10 -8 0 -12 5 -9 10 3
6 10 10 16 10 5 0 9 -4 9 -10z m3398 -71 c53 -44 99 -84 100 -90 2 -5 -42 26
-99 68 -89 68 -125 103 -105 103 4 0 50 -36 104 -81z m-958 41 c0 -5 -4 -10
-10 -10 -5 0 -10 5 -10 10 0 6 5 10 10 10 6 0 10 -4 10 -10z m-2670 -10 c0 -5
-4 -10 -10 -10 -5 0 -10 5 -10 10 0 6 5 10 10 10 6 0 10 -4 10 -10z m198 -90
c7 0 12 -7 12 -15 0 -8 11 -17 25 -21 14 -3 25 -10 25 -15 0 -5 -7 -6 -16 -2
-11 4 -22 -1 -30 -12 -14 -19 -19 -11 -15 21 1 6 -6 17 -15 25 -13 10 -17 10
-24 -1 -7 -11 -11 -10 -25 3 -9 10 -21 15 -26 12 -5 -4 -9 1 -9 9 0 9 5 16 10
16 6 0 10 -4 10 -10 0 -5 7 -10 15 -10 8 0 15 7 15 15 0 8 -5 15 -11 15 -5 0
-7 5 -3 12 5 8 14 3 28 -15 12 -15 27 -27 34 -27z m3701 16 c13 -14 21 -32 18
-43 -4 -16 -6 -16 -12 4 -4 13 -11 20 -16 17 -5 -3 -9 0 -9 7 0 6 -8 18 -17
25 -16 11 -16 13 -2 14 8 0 26 -11 38 -24z m240 5 c8 -14 7 -20 -3 -24 -18 -7
-26 1 -26 25 0 24 17 23 29 -1z m-740 -31 c21 0 11 -18 -15 -24 -26 -7 -54 7
-54 27 0 7 4 7 12 -1 18 -18 27 -14 21 11 -4 20 -3 21 10 5 8 -10 19 -18 26
-18z m-3465 11 c3 -5 -1 -11 -9 -15 -9 -3 -15 0 -15 9 0 16 16 20 24 6z m1696
-1 c0 -5 -7 -7 -15 -4 -8 4 -15 8 -15 10 0 2 7 4 15 4 8 0 15 -4 15 -10z
m-1212 -27 c15 -35 15 -43 -2 -43 -21 0 -36 24 -29 48 7 29 15 28 31 -5z
m3023 10 c13 -16 12 -17 -3 -4 -17 13 -22 21 -14 21 2 0 10 -8 17 -17z m-1735
-10 c19 -25 17 -38 -2 -22 -15 12 -16 11 -9 -10 5 -16 4 -21 -4 -17 -12 8 -16
66 -5 66 4 0 13 -8 20 -17z m2389 -3 c3 -5 1 -10 -4 -10 -6 0 -11 5 -11 10 0
6 2 10 4 10 3 0 8 -4 11 -10z m85 -32 c0 -4 7 -8 16 -8 9 0 14 -6 12 -12 -3
-7 5 -17 16 -23 11 -6 21 -17 22 -25 0 -8 -1 -10 -3 -3 -2 6 -14 13 -26 15
-14 2 -21 10 -21 20 1 10 -6 20 -16 23 -10 3 -20 18 -23 33 -5 25 -4 25 9 7 8
-10 14 -22 14 -27z m-3670 -14 c0 -13 6 -27 14 -30 8 -3 12 -13 8 -26 -5 -19
-6 -19 -21 8 -8 16 -16 36 -17 44 -2 8 -10 20 -18 26 -21 15 -8 26 15 13 11
-5 19 -21 19 -35z m1160 26 c0 -5 -4 -10 -10 -10 -5 0 -10 5 -10 10 0 6 5 10
10 10 6 0 10 -4 10 -10z m-1755 -19 c-3 -6 -11 -11 -17 -11 -6 0 -6 6 2 15 14
17 26 13 15 -4z m3505 9 c0 -5 -10 -10 -22 -10 -19 0 -20 2 -8 10 19 13 30 13
30 0z m-3164 -35 c-9 -9 -14 -21 -11 -26 4 -5 2 -9 -4 -9 -5 0 -14 8 -20 17
-7 14 -4 20 17 29 33 14 39 10 18 -11z m3496 8 c-6 -3 -10 -9 -7 -14 4 -5 -1
-6 -9 -3 -9 3 -16 10 -16 16 0 5 4 7 9 3 5 -3 13 0 16 6 4 5 10 7 14 3 3 -4 0
-9 -7 -11z m-2185 -15 c-3 -8 -6 -5 -6 6 -1 11 2 17 5 13 3 -3 4 -12 1 -19z
m2418 -8 c1 -10 -2 -17 -7 -14 -4 3 -8 15 -8 26 0 26 13 15 15 -12z m135 12
c0 -12 -3 -12 -17 -1 -10 7 -20 14 -22 16 -2 1 6 1 18 0 11 -1 21 -8 21 -15z
m-4210 -2 c0 -5 -4 -10 -10 -10 -5 0 -10 5 -10 10 0 6 5 10 10 10 6 0 10 -4
10 -10z m3935 -6 c13 -8 26 -23 30 -32 5 -14 4 -14 -13 1 -11 10 -26 15 -36
11 -12 -4 -16 -1 -16 15 0 25 4 26 35 5z m420 6 c3 -5 1 -10 -4 -10 -6 0 -11
5 -11 10 0 6 2 10 4 10 3 0 8 -4 11 -10z m-3865 -77 c0 -2 -4 -3 -10 -3 -5 0
-10 9 -10 21 0 11 -4 17 -10 14 -11 -7 -13 6 -4 30 5 13 10 7 20 -22 8 -21 14
-39 14 -40z m817 71 c-3 -3 -12 -4 -19 -1 -8 3 -5 6 6 6 11 1 17 -2 13 -5z
m-1057 -30 c0 -8 -6 -14 -14 -14 -9 0 -12 7 -9 20 6 22 23 18 23 -6z m151 3
c-10 -9 -11 -8 -5 6 3 10 9 15 12 12 3 -3 0 -11 -7 -18z m1009 13 c0 -5 -7 -7
-15 -4 -8 4 -15 8 -15 10 0 2 7 4 15 4 8 0 15 -4 15 -10z m250 -4 c0 -3 -4 -8
-10 -11 -5 -3 -10 -1 -10 4 0 6 5 11 10 11 6 0 10 -2 10 -4z m2824 -17 c-33
-13 -48 -11 -35 5 7 8 21 12 33 8 21 -5 21 -6 2 -13z m426 7 c0 -9 -8 -12 -25
-8 -14 2 -25 8 -25 13 0 5 11 9 25 9 14 0 25 -6 25 -14z m-3466 -27 c-10 -16
-24 -9 -24 12 0 18 2 19 15 9 8 -7 12 -16 9 -21z m2681 21 c8 -13 -5 -13 -25
0 -13 8 -13 10 2 10 9 0 20 -4 23 -10z m-3836 -31 c-11 -7 -10 -9 5 -9 13 0
16 -5 12 -16 -4 -10 1 -25 10 -36 10 -10 14 -21 10 -25 -3 -4 -13 3 -22 15
-20 29 -32 28 -36 -5 -2 -14 -9 -29 -17 -31 -9 -3 -11 0 -7 7 4 7 2 18 -4 26
-10 12 -9 15 5 15 15 0 17 6 12 35 -4 25 -2 33 5 29 8 -5 9 -1 5 10 -6 14 -4
15 15 5 16 -9 18 -13 7 -20z m-99 11 c0 -5 -4 -10 -10 -10 -5 0 -10 5 -10 10
0 6 5 10 10 10 6 0 10 -4 10 -10z m1540 -13 c0 -7 -4 -6 -10 3 -8 12 -10 11
-10 -7 0 -24 14 -31 25 -13 3 6 16 9 28 9 17 -1 18 -2 5 -6 -10 -2 -18 -9 -18
-14 0 -5 -9 -9 -19 -9 -11 0 -21 -6 -24 -12 -4 -10 -7 -10 -17 -1 -11 10 -11
15 -1 27 7 8 10 19 7 25 -7 10 14 21 27 14 4 -2 7 -10 7 -16z m1135 -227 c196
-175 232 -210 218 -210 -6 0 -15 4 -18 10 -9 15 -27 12 -19 -2 4 -7 -3 -4 -16
7 -13 11 -20 15 -17 9 7 -12 -22 -24 -58 -24 -10 0 -37 17 -60 39 -24 23 -68
49 -110 66 -95 37 -127 54 -120 64 3 5 -11 28 -30 51 -35 42 -35 43 -35 138
l0 96 58 -55 c31 -31 125 -116 207 -189z m1265 230 c0 -5 -2 -10 -4 -10 -3 0
-8 5 -11 10 -3 6 -1 10 4 10 6 0 11 -4 11 -10z m831 -10 l24 -20 -30 12 c-39
15 -54 28 -33 28 9 0 26 -9 39 -20z m-3100 -7 c4 -4 11 -28 15 -53 7 -41 6
-44 -9 -31 -10 7 -17 20 -17 28 0 8 -4 12 -9 9 -5 -3 -12 4 -16 17 -6 21 -7
21 -17 -6 -8 -23 -7 -32 8 -48 19 -22 3 -27 -19 -5 -9 9 -19 11 -28 5 -26 -16
-34 -9 -11 11 13 11 18 21 12 25 -6 4 -2 14 10 27 11 12 17 25 14 29 -6 10 56
3 67 -8z m2516 -5 c-3 -8 -6 -5 -6 6 -1 11 2 17 5 13 3 -3 4 -12 1 -19z
m-3927 -25 c0 -7 -5 -13 -11 -13 -6 0 -8 7 -5 16 5 12 2 15 -10 10 -14 -5 -15
-4 -4 9 11 13 15 13 21 3 5 -7 9 -19 9 -25z m940 27 c12 -8 9 -10 -13 -10 -16
0 -26 4 -22 10 8 12 16 12 35 0z m250 -5 c0 -8 -7 -15 -15 -15 -9 0 -12 6 -9
15 4 8 10 15 15 15 5 0 9 -7 9 -15z m41 -41 c5 -6 7 -19 3 -28 -4 -11 -1 -16
10 -16 9 0 16 -8 16 -17 0 -13 -2 -15 -8 -5 -5 7 -17 10 -28 6 -16 -5 -16 -4
-4 5 13 9 8 15 -12 12 -3 0 -5 7 -3 17 2 9 4 33 6 52 1 28 3 30 6 10 3 -14 9
-30 14 -36z m2059 46 c0 -5 -2 -10 -4 -10 -3 0 -8 5 -11 10 -3 6 -1 10 4 10 6
0 11 -4 11 -10z m717 -20 c6 -22 29 -27 36 -7 2 6 3 2 1 -9 -3 -14 3 -25 14
-29 15 -7 13 -9 -8 -15 l-25 -8 27 -1 c24 -1 27 -5 25 -31 -1 -19 -9 -32 -19
-36 -21 -6 -24 -24 -4 -24 7 0 21 15 30 33 9 19 16 25 16 15 0 -10 7 -18 15
-18 8 0 15 -7 15 -15 0 -10 10 -15 28 -16 15 0 21 -3 15 -6 -18 -7 -16 -23 1
-23 8 0 17 -8 20 -17 3 -10 4 -1 3 20 -2 24 1 37 9 37 7 0 21 3 31 6 15 4 14
3 -2 -8 -19 -12 -24 -48 -7 -48 4 0 17 -3 30 -6 20 -6 22 -3 22 29 0 19 -5 37
-11 39 -6 2 33 16 87 31 97 27 144 31 62 6 -35 -12 -44 -19 -46 -41 -2 -17 2
-28 8 -28 7 0 10 -7 6 -15 -3 -8 -1 -15 4 -15 6 0 10 5 10 11 0 5 5 7 10 4 6
-3 10 -14 10 -24 0 -14 -12 -21 -47 -29 -127 -28 -172 -45 -178 -69 -3 -13
-10 -21 -15 -18 -6 3 -10 1 -10 -6 0 -7 -8 -9 -22 -4 -13 3 -29 7 -35 7 -19 2
-16 18 3 18 14 0 14 2 3 16 -8 10 -22 14 -38 11 -23 -5 -26 -2 -27 24 -1 28
-1 28 13 9 24 -34 34 -22 13 15 -11 19 -17 41 -14 48 7 19 -28 18 -42 -1 -9
-12 -8 -24 2 -49 19 -44 18 -49 -6 -28 -11 10 -17 21 -15 25 3 4 -3 14 -12 21
-14 12 -16 12 -9 0 6 -9 4 -12 -5 -9 -8 3 -15 20 -16 39 -1 19 1 27 3 17 8
-25 27 -27 48 -7 12 11 14 19 7 19 -7 0 0 11 15 25 20 19 23 25 11 25 -12 0
-19 12 -23 40 -5 30 -11 40 -25 40 -14 0 -19 7 -19 25 0 30 20 33 27 5z
m-3976 -7 c13 -16 12 -17 -3 -4 -17 13 -22 21 -14 21 2 0 10 -8 17 -17z m-131
-3 c0 -5 -4 -10 -10 -10 -5 0 -10 5 -10 10 0 6 5 10 10 10 6 0 10 -4 10 -10z
m35 -30 c4 -17 11 -28 16 -24 5 3 19 -5 30 -18 14 -15 19 -18 15 -6 -2 9 2 19
10 22 17 6 18 1 4 -25 -9 -15 -7 -19 5 -19 10 0 13 -5 9 -11 -5 -8 1 -10 19
-7 37 7 56 -16 26 -32 -14 -8 -19 -8 -15 -1 5 7 1 9 -9 5 -8 -4 -21 -16 -27
-28 -10 -19 -10 -20 6 -7 15 13 19 13 27 0 11 -18 12 -39 0 -39 -5 0 -11 6
-14 13 -3 9 -7 9 -19 -1 -21 -17 -28 -5 -30 55 -2 58 -19 82 -53 75 -26 -4
-33 6 -15 24 6 6 6 15 0 24 -8 12 -10 10 -10 -7 0 -13 -5 -23 -11 -23 -5 0 -7
-4 -4 -10 10 -17 -12 -11 -26 7 -8 10 -9 14 -2 10 7 -5 18 5 29 28 18 40 30
38 39 -5z m4155 33 c0 -17 -19 -37 -27 -29 -4 5 -2 11 5 13 6 3 10 9 6 14 -3
5 0 9 5 9 6 0 11 -3 11 -7z m-772 -42 c3 -9 -4 -9 -26 3 -43 22 -51 40 -11 23
18 -7 35 -19 37 -26z m596 23 c5 -14 4 -15 -9 -4 -17 14 -19 20 -6 20 5 0 12
-7 15 -16z m-2739 -36 c-3 -24 -8 -51 -11 -60 -6 -19 -24 -25 -24 -8 0 6 5 10
11 10 6 0 8 7 5 16 -4 9 -1 23 5 30 7 9 8 14 1 14 -5 0 -8 9 -5 20 10 38 24
20 18 -22z m130 32 c3 -5 1 -10 -4 -10 -6 0 -11 5 -11 10 0 6 2 10 4 10 3 0 8
-4 11 -10z m2373 -22 c0 -16 0 -28 -2 -28 -1 0 -12 13 -24 29 l-21 29 23 -2
c18 -1 23 -7 24 -28z m81 -8 c0 -10 -2 -11 -6 -2 -2 6 -9 12 -14 12 -4 0 -5
-7 -2 -17 4 -10 2 -14 -4 -10 -6 4 -10 18 -10 31 0 22 2 23 18 13 11 -7 19
-19 18 -27z m-399 26 c0 -11 -19 -15 -25 -6 -3 5 1 10 9 10 9 0 16 -2 16 -4z
m1205 -16 c-3 -5 -12 -10 -18 -10 -7 0 -6 4 3 10 19 12 23 12 15 0z m-3085
-111 c0 -5 10 -9 23 -10 l22 0 -22 -9 c-13 -5 -23 -14 -23 -20 0 -8 -6 -8 -20
0 -11 6 -20 18 -20 27 0 14 2 14 15 -3 14 -18 14 -18 15 -1 0 11 -9 21 -20 24
-11 3 -20 11 -20 18 0 7 -9 15 -20 18 -14 4 -20 14 -20 33 0 27 1 26 45 -20
25 -27 45 -52 45 -57z m3047 95 c-3 -3 -12 -4 -19 -1 -8 3 -5 6 6 6 11 1 17
-2 13 -5z m-2586 -20 c-18 -8 -38 -13 -45 -11 -6 3 5 9 24 15 50 15 60 13 21
-4z m2039 6 c0 -5 -2 -10 -4 -10 -3 0 -8 5 -11 10 -3 6 -1 10 4 10 6 0 11 -4
11 -10z m-4079 -34 c-8 -9 -8 -15 -2 -18 7 -2 7 -8 1 -18 -8 -13 -10 -12 -10
3 0 9 -6 17 -12 17 -8 0 -5 7 6 15 25 19 32 19 17 1z m1934 -1 c-16 -8 -37
-14 -45 -14 -8 0 1 7 20 14 46 18 64 17 25 0z m-445 -15 c23 -23 19 -39 -10
-37 -10 1 -17 5 -14 9 3 4 12 5 22 2 14 -5 14 -3 -2 10 -11 9 -26 16 -33 16
-7 0 -13 5 -13 10 0 17 29 11 50 -10z m330 -20 c-30 -11 -66 -19 -80 -19 -16
0 -5 7 30 19 30 10 66 18 80 18 16 0 5 -7 -30 -18z m1973 -32 c22 -17 21 -17
-9 -6 -26 9 -30 15 -25 37 4 22 6 23 9 6 2 -11 14 -28 25 -37z m-2352 24 c-7
-2 -18 1 -23 6 -8 8 -4 9 13 5 13 -4 18 -8 10 -11z m1636 -14 c-3 -7 -5 -2 -5
12 0 14 2 19 5 13 2 -7 2 -19 0 -25z m-1629 -9 c12 0 10 -3 -6 -10 -25 -10
-42 -5 -42 13 0 5 7 7 16 4 9 -3 23 -6 32 -7z m2602 1 c0 -5 -4 -10 -10 -10
-5 0 -10 5 -10 10 0 6 5 10 10 10 6 0 10 -4 10 -10z m-2386 -15 c-25 -19 -34
-19 -34 0 0 10 10 15 27 15 26 0 26 -1 7 -15z m3979 2 c4 3 7 1 7 -6 0 -17
-32 -10 -38 9 -4 12 -3 13 10 3 8 -7 18 -10 21 -6z m-1896 -19 c-3 -8 -6 -5
-6 6 -1 11 2 17 5 13 3 -3 4 -12 1 -19z m-2447 2 c0 -5 -5 -10 -11 -10 -5 0
-7 5 -4 10 3 6 8 10 11 10 2 0 4 -4 4 -10z m930 -6 c0 -2 -7 -4 -15 -4 -8 0
-15 4 -15 10 0 5 7 7 15 4 8 -4 15 -8 15 -10z m-2310 -4 c0 -5 -2 -10 -4 -10
-3 0 -8 5 -11 10 -3 6 -1 10 4 10 6 0 11 -4 11 -10z m1555 -18 c-6 -7 -34 11
-29 19 3 5 11 3 19 -4 7 -6 12 -13 10 -15z m4095 21 c-8 -3 -21 -10 -27 -16
-9 -7 -13 -5 -13 7 0 11 8 16 28 15 15 0 21 -3 12 -6z m-1675 -14 c11 -17 -1
-21 -15 -4 -8 9 -8 15 -2 15 6 0 14 -5 17 -11z m-2665 -8 c0 -5 -7 -12 -16
-15 -14 -5 -15 -4 -4 9 14 17 20 19 20 6z m415 -1 c3 -5 -1 -10 -10 -10 -9 0
-13 5 -10 10 3 6 8 10 10 10 2 0 7 -4 10 -10z m3832 -22 c-3 -7 -5 -2 -5 12 0
14 2 19 5 13 2 -7 2 -19 0 -25z m-922 12 c3 -6 -4 -10 -17 -10 -18 0 -20 2 -8
10 19 12 18 12 25 0z m572 -37 c-3 -10 -5 -4 -5 12 0 17 2 24 5 18 2 -7 2 -21
0 -30z m-5143 0 c-7 -2 -10 -13 -7 -23 3 -11 1 -20 -5 -20 -16 0 -23 30 -11
52 8 16 13 17 22 8 9 -9 9 -14 1 -17z m4156 -13 c0 -5 -2 -10 -4 -10 -3 0 -8
5 -11 10 -3 6 -1 10 4 10 6 0 11 -4 11 -10z m227 -12 c-3 -8 -6 -5 -6 6 -1 11
2 17 5 13 3 -3 4 -12 1 -19z m80 0 c-3 -8 -6 -5 -6 6 -1 11 2 17 5 13 3 -3 4
-12 1 -19z m-117 2 c0 -5 -5 -10 -11 -10 -5 0 -7 5 -4 10 3 6 8 10 11 10 2 0
4 -4 4 -10z m-4390 -10 c0 -5 -5 -10 -11 -10 -5 0 -7 5 -4 10 3 6 8 10 11 10
2 0 4 -4 4 -10z m4550 -22 c0 -5 -4 -8 -10 -8 -5 0 -10 10 -10 23 0 18 2 19
10 7 5 -8 10 -18 10 -22z m580 17 c0 -8 -4 -15 -10 -15 -5 0 -7 7 -4 15 4 8 8
15 10 15 2 0 4 -7 4 -15z m47 -37 c-2 -13 -4 -5 -4 17 -1 22 1 32 4 23 2 -10
2 -28 0 -40z m-5446 9 c-8 -8 -11 -7 -11 4 0 20 13 34 18 19 3 -7 -1 -17 -7
-23z m509 23 c0 -5 -4 -10 -10 -10 -5 0 -10 5 -10 10 0 6 5 10 10 10 6 0 10
-4 10 -10z m1395 -10 c10 -11 15 -23 12 -27 -8 -7 -47 25 -47 39 0 14 16 9 35
-12z m2569 4 c4 -10 1 -14 -6 -12 -15 5 -23 28 -10 28 5 0 13 -7 16 -16z
m-3939 -4 c3 -5 1 -10 -4 -10 -6 0 -11 5 -11 10 0 6 2 10 4 10 3 0 8 -4 11
-10z m4360 -39 c-7 -6 -35 27 -35 41 0 7 9 2 20 -12 10 -14 17 -26 15 -29z
m-4325 29 c0 -5 -2 -10 -4 -10 -3 0 -8 5 -11 10 -3 6 -1 10 4 10 6 0 11 -4 11
-10z m-150 -35 c0 -8 -4 -15 -10 -15 -5 0 -7 7 -4 15 4 8 8 15 10 15 2 0 4 -7
4 -15z m4083 -6 c-8 -8 -13 -7 -18 2 -5 8 -4 10 3 5 7 -4 12 -2 12 5 0 7 3 9
7 6 4 -4 2 -12 -4 -18z m-1663 -9 c0 -5 -5 -10 -11 -10 -5 0 -7 5 -4 10 3 6 8
10 11 10 2 0 4 -4 4 -10z"/>
<path d="M1229 3753 c-31 -5 -64 -37 -54 -53 7 -12 85 -9 85 4 0 4 6 6 13 3 8
-3 14 1 14 9 0 7 -5 11 -11 8 -6 -3 0 4 13 15 l23 21 -28 -1 c-16 -1 -41 -4
-55 -6z"/>
<path d="M1302 3720 c0 -14 2 -19 5 -12 2 6 2 18 0 25 -3 6 -5 1 -5 -13z"/>
<path d="M2803 3775 c-9 -10 -9 -15 0 -25 10 -10 7 -10 -10 -1 -35 18 -27 5
11 -18 37 -23 57 -28 38 -9 -7 7 -12 22 -12 34 0 28 -11 36 -27 19z"/>
<path d="M2680 3725 c31 -18 41 -19 34 -2 -2 7 -17 14 -32 15 l-27 1 25 -14z"/>
<path d="M3071 3710 c-1 -35 4 -48 19 -58 19 -12 20 -10 20 38 0 27 -4 50 -10
50 -5 0 -10 -6 -11 -12 0 -7 -4 -4 -9 7 -7 15 -9 9 -9 -25z m22 -25 c-7 -21
-12 -19 -10 4 0 11 5 18 9 15 4 -3 5 -11 1 -19z"/>
<path d="M3831 3777 c-6 -8 -8 -17 -4 -20 7 -8 33 11 33 24 0 13 -16 11 -29
-4z"/>
<path d="M3659 3753 c-23 -6 -32 -43 -12 -50 18 -7 50 10 45 23 -2 5 -9 8 -15
6 -6 -2 -5 4 3 12 12 16 9 17 -21 9z"/>
<path d="M3452 3660 c0 -27 4 -50 8 -50 11 0 16 28 12 68 -6 50 -20 38 -20
-18z"/>
<path d="M3394 3653 c5 -65 5 -65 15 -59 15 10 11 106 -5 106 -9 0 -12 -13
-10 -47z"/>
<path d="M2453 3663 c9 -2 25 -2 35 0 9 3 1 5 -18 5 -19 0 -27 -2 -17 -5z"/>
<path d="M2630 3491 c0 -43 3 -51 19 -51 15 0 18 7 16 47 -1 36 -6 49 -18 51
-14 3 -17 -5 -17 -47z"/>
<path d="M2580 3480 c0 -43 3 -50 20 -50 18 0 20 6 18 50 -2 40 -7 50 -20 50
-15 0 -18 -9 -18 -50z"/>
<path d="M2418 3495 c-5 -6 1 -87 8 -94 2 -2 9 -1 16 2 17 6 11 97 -6 97 -7 0
-15 -2 -18 -5z"/>
<path d="M2364 3468 c3 -13 5 -35 5 -50 1 -15 6 -25 14 -24 15 2 17 7 17 56 0
33 -3 40 -20 40 -15 0 -19 -5 -16 -22z"/>
<path d="M1423 3455 c0 -27 2 -38 4 -22 2 15 2 37 0 50 -2 12 -4 0 -4 -28z"/>
<path d="M1440 3463 c0 -13 5 -23 10 -23 13 0 13 11 0 30 -8 12 -10 11 -10 -7z"/>
<path d="M1534 3414 c2 -10 8 -20 15 -22 8 -3 12 3 9 14 -4 23 -27 31 -24 8z"/>
<path d="M1955 3421 c-16 -3 -29 -10 -27 -14 1 -4 2 -28 2 -53 l0 -46 47 7
c26 3 49 7 50 9 1 1 0 26 -4 54 -6 55 -7 56 -68 43z"/>
<path d="M1728 3383 c-27 -4 -28 -7 -28 -60 l0 -56 38 7 c20 3 43 6 50 6 8 0
12 18 12 55 0 60 1 59 -72 48z"/>
<path d="M1390 3277 c0 -8 7 -18 16 -21 11 -4 14 -1 12 11 -4 21 -28 30 -28
10z"/>
<path d="M3986 3258 c2 -40 6 -54 18 -56 9 -2 16 -8 16 -13 0 -5 5 -9 10 -9 6
0 9 21 7 50 -2 35 -8 54 -22 64 -29 22 -31 21 -29 -36z m34 12 c0 -5 -2 -10
-4 -10 -3 0 -8 5 -11 10 -3 6 -1 10 4 10 6 0 11 -4 11 -10z m-3 -40 c-1 -21
-10 -18 -13 5 -1 8 2 15 6 15 5 0 8 -9 7 -20z"/>
<path d="M4535 3003 c0 -63 21 -86 28 -31 l4 33 1 -37 c2 -27 7 -38 18 -38 12
0 14 10 12 52 -2 30 -8 53 -15 56 -7 2 -13 -5 -14 -15 -1 -13 -3 -11 -8 6 -12
46 -26 32 -26 -26z"/>
<path d="M4440 3025 c0 -14 5 -25 10 -25 6 0 10 10 10 22 0 25 13 17 15 -10 2
-25 19 -26 23 -1 4 23 -12 39 -40 39 -13 0 -18 -8 -18 -25z"/>
<path d="M4475 3310 c3 -5 11 -10 16 -10 6 0 7 5 4 10 -3 6 -11 10 -16 10 -6
0 -7 -4 -4 -10z"/>
<path d="M4472 3270 c0 -14 2 -19 5 -12 2 6 2 18 0 25 -3 6 -5 1 -5 -13z"/>
<path d="M4521 3266 c-1 -13 -6 -16 -18 -12 -15 5 -14 3 2 -9 18 -15 20 -15
23 0 2 8 1 21 -1 28 -3 6 -6 4 -6 -7z"/>
<path d="M914 3234 c-8 -3 -10 -21 -7 -47 3 -31 2 -38 -6 -27 -6 8 -11 27 -11
43 0 17 -5 27 -14 27 -20 0 -30 -18 -18 -33 15 -20 24 -67 11 -67 -6 0 -9 -5
-7 -12 5 -15 48 -17 47 -3 0 6 9 12 21 15 12 3 21 8 21 13 -1 4 -1 27 -1 52 0
44 -7 51 -36 39z"/>
<path d="M797 3173 c-12 -11 -7 -19 13 -20 11 -1 20 4 20 13 0 14 -21 19 -33
7z"/>
<path d="M810 3132 c0 -5 7 -13 16 -16 10 -4 14 -1 12 6 -5 15 -28 23 -28 10z"/>
<path d="M2224 2966 c-7 -19 3 -36 22 -36 10 0 14 8 12 22 -4 26 -26 36 -34
14z"/>
<path d="M2358 2863 c5 -21 7 -23 10 -9 2 10 0 22 -6 28 -6 6 -7 0 -4 -19z"/>
<path d="M2392 2845 c0 -16 2 -22 5 -12 2 9 2 23 0 30 -3 6 -5 -1 -5 -18z"/>
<path d="M2678 2853 c-22 -5 -30 -29 -14 -42 18 -15 46 -3 46 19 0 22 -9 28
-32 23z"/>
<path d="M2633 2738 c1 -21 21 -19 25 4 2 8 -4 15 -12 15 -8 0 -14 -9 -13 -19z"/>
<path d="M2685 2694 c9 -9 18 -14 21 -11 9 9 -6 27 -22 27 -13 0 -13 -2 1 -16z"/>
<path d="M2700 2645 c0 -8 2 -15 4 -15 2 0 6 7 10 15 3 8 1 15 -4 15 -6 0 -10
-7 -10 -15z"/>
<path d="M3380 3040 c-9 -6 -10 -10 -3 -10 6 0 15 5 18 10 8 12 4 12 -15 0z"/>
<path d="M3478 3023 c-19 -5 -25 -43 -8 -43 6 0 10 7 10 15 0 8 7 15 15 15 8
0 15 5 15 10 0 10 -3 11 -32 3z"/>
<path d="M3495 2989 c-4 -6 -5 -13 -2 -16 7 -7 27 6 27 18 0 12 -17 12 -25 -2z"/>
<path d="M4867 2902 c-2 -4 -5 -35 -6 -68 -2 -61 -2 -61 29 -67 16 -4 33 -8
37 -9 3 -2 7 23 8 54 2 48 -1 58 -16 63 -11 4 -19 10 -19 15 0 11 -28 21 -33
12z"/>
<path d="M5576 2863 c-4 -9 -2 -21 3 -26 12 -12 51 9 51 28 0 21 -46 19 -54
-2z"/>
<path d="M4982 2838 c-24 -24 -7 -48 34 -48 19 0 18 46 -2 54 -20 8 -18 8 -32
-6z"/>
<path d="M5368 2814 c-8 -8 3 -44 13 -44 5 0 9 4 9 9 0 5 3 16 6 25 6 15 -16
23 -28 10z"/>
<path d="M5300 2774 c0 -31 22 -28 27 4 2 14 -2 22 -12 22 -9 0 -15 -10 -15
-26z"/>
<path d="M5368 2755 c-8 -8 3 -55 13 -55 5 0 9 14 9 30 0 28 -9 38 -22 25z"/>
<path d="M5300 2709 c0 -20 4 -29 13 -27 17 6 18 58 1 58 -9 0 -14 -12 -14
-31z"/>
<path d="M5810 2711 c0 -5 8 -11 18 -13 10 -3 19 0 19 6 0 7 -9 13 -19 13 -10
1 -18 -2 -18 -6z"/>
<path d="M5140 2650 c-4 -10 -7 -80 -4 -80 13 0 23 42 15 62 -6 13 -10 21 -11
18z"/>
<path d="M1560 2830 c0 -5 5 -10 11 -10 5 0 7 5 4 10 -3 6 -8 10 -11 10 -2 0
-4 -4 -4 -10z"/>
<path d="M4359 2608 c0 -2 -2 -11 -4 -21 -2 -11 -7 -22 -10 -25 -4 -4 -5 1 -3
10 1 9 0 17 -4 17 -33 3 -35 0 -34 -56 1 -46 4 -57 16 -54 8 2 28 5 43 7 43 6
47 11 47 70 0 51 -1 54 -25 54 -14 0 -25 -1 -26 -2z"/>
<path d="M4138 2552 c-15 -3 -18 -14 -18 -63 0 -32 3 -59 8 -59 24 1 33 20 30
71 -3 46 -6 54 -20 51z"/>
<path d="M4067 2533 c-4 -3 -7 -30 -7 -60 0 -46 3 -53 20 -53 16 0 20 7 21 33
0 17 2 44 4 60 3 20 -1 27 -14 27 -10 0 -21 -3 -24 -7z"/>
<path d="M4395 2481 c-2 -5 -25 -12 -50 -15 -24 -4 -47 -11 -50 -16 -3 -4 23
-2 57 6 84 19 84 19 65 27 -9 3 -19 2 -22 -2z"/>
<path d="M4107 2413 c-32 -9 -56 -17 -54 -20 6 -5 116 23 125 31 8 8 -4 6 -71
-11z"/>
<path d="M5497 2663 c-9 -2 -15 -9 -12 -14 9 -14 22 -11 29 6 3 8 4 14 3 14
-1 -1 -10 -3 -20 -6z"/>
<path d="M5939 2411 c10 -6 -3 -13 -43 -21 -32 -6 -55 -14 -52 -17 3 -3 29 1
58 8 29 7 56 12 61 11 14 -4 7 16 -9 22 -23 9 -31 7 -15 -3z"/>
<path d="M5298 2383 c7 -3 16 -2 19 1 4 3 -2 6 -13 5 -11 0 -14 -3 -6 -6z"/>
<path d="M5790 2359 c0 -5 5 -7 10 -4 6 3 10 8 10 11 0 2 -4 4 -10 4 -5 0 -10
-5 -10 -11z"/>
<path d="M5735 2350 c3 -5 11 -10 16 -10 6 0 7 5 4 10 -3 6 -11 10 -16 10 -6
0 -7 -4 -4 -10z"/>
<path d="M5708 2333 c7 -3 16 -2 19 1 4 3 -2 6 -13 5 -11 0 -14 -3 -6 -6z"/>
<path d="M3620 2384 c0 -57 2 -62 20 -57 17 5 20 14 20 64 0 52 -2 58 -20 56
-18 -1 -20 -8 -20 -63z"/>
<path d="M3574 2432 c-11 -8 -13 -119 -1 -114 4 1 14 2 22 2 12 0 15 13 15 60
0 59 -8 71 -36 52z"/>
<path d="M3473 2417 l-43 -10 0 -53 c0 -42 3 -54 16 -54 10 0 12 5 7 13 -4 6
-8 21 -9 32 0 17 4 20 31 17 20 -2 38 2 47 12 14 14 16 11 14 -29 l-1 -43 -52
-7 c-29 -3 -53 -11 -53 -17 0 -6 10 -8 23 -4 12 3 39 9 60 12 l37 7 0 68 c0
77 2 75 -77 56z m24 -23 c-3 -3 -12 -4 -19 -1 -8 3 -5 6 6 6 11 1 17 -2 13 -5z
m-4 -21 c-7 -2 -19 -2 -25 0 -7 3 -2 5 12 5 14 0 19 -2 13 -5z"/>
<path d="M3362 2330 c2 -55 4 -61 23 -58 17 3 20 11 21 61 1 53 -1 57 -22 57
-22 0 -24 -3 -22 -60z"/>
<path d="M3309 2376 c-2 -2 -3 -31 -1 -64 3 -53 6 -59 23 -55 16 5 19 15 19
64 0 51 -3 59 -18 59 -10 0 -21 -2 -23 -4z"/>
<path d="M3521 2344 c0 -11 3 -14 6 -6 3 7 2 16 -1 19 -3 4 -6 -2 -5 -13z"/>
<path d="M3480 2340 c0 -5 7 -10 15 -10 8 0 15 5 15 10 0 6 -7 10 -15 10 -8 0
-15 -4 -15 -10z"/>
<path d="M3488 2313 c6 -2 18 -2 25 0 6 3 1 5 -13 5 -14 0 -19 -2 -12 -5z"/>
<path d="M3257 2226 c-9 -22 8 -47 32 -45 14 1 14 2 -1 6 -9 2 -18 16 -20 31
-3 23 -4 24 -11 8z"/>
<path d="M3401 2217 c-52 -11 -90 -22 -84 -24 11 -4 194 35 202 43 7 7 -20 3
-118 -19z"/>
<path d="M2458 2122 c-15 -3 -18 -14 -18 -63 0 -36 4 -59 11 -59 6 0 9 7 6 15
-4 8 -2 17 3 20 6 4 10 -3 10 -15 0 -12 4 -19 9 -16 7 5 4 118 -3 122 0 0 -9
-1 -18 -4z m12 -33 c0 -5 -4 -9 -10 -9 -5 0 -10 7 -10 16 0 8 5 12 10 9 6 -3
10 -10 10 -16z m0 -29 c0 -5 -4 -10 -10 -10 -5 0 -10 5 -10 10 0 6 5 10 10 10
6 0 10 -4 10 -10z"/>
<path d="M2402 2050 c1 -33 6 -60 10 -60 4 0 8 27 8 60 0 33 -4 60 -10 60 -5
0 -9 -26 -8 -60z"/>
<path d="M2370 2090 c0 -5 5 -10 10 -10 6 0 10 5 10 10 0 6 -4 10 -10 10 -5 0
-10 -4 -10 -10z"/>
<path d="M2376 2028 c7 -59 14 -61 14 -5 0 26 -4 47 -9 47 -6 0 -8 -19 -5 -42z"/>
<path d="M2159 2054 c-1 -16 3 -119 5 -121 1 -1 11 0 23 3 16 5 21 12 18 32
-2 15 -4 42 -4 60 -1 17 -5 32 -10 32 -5 0 -7 -25 -5 -55 2 -30 0 -55 -5 -55
-4 0 -9 23 -10 52 -1 45 -9 79 -12 52z"/>
<path d="M2120 1987 c0 -37 4 -67 9 -67 11 0 9 116 -2 126 -4 4 -7 -23 -7 -59z"/>
<path d="M2090 1995 c0 -25 4 -45 8 -45 4 0 8 20 8 45 0 25 -4 45 -8 45 -4 0
-8 -20 -8 -45z"/>
<path d="M2468 1983 c7 -3 16 -2 19 1 4 3 -2 6 -13 5 -11 0 -14 -3 -6 -6z"/>
<path d="M2388 1963 c7 -3 16 -2 19 1 4 3 -2 6 -13 5 -11 0 -14 -3 -6 -6z"/>
<path d="M2090 1931 c0 -6 5 -13 10 -16 6 -3 10 1 10 9 0 9 -4 16 -10 16 -5 0
-10 -4 -10 -9z"/>
<path d="M2168 1913 c7 -3 16 -2 19 1 4 3 -2 6 -13 5 -11 0 -14 -3 -6 -6z"/>
<path d="M2128 1903 c7 -3 16 -2 19 1 4 3 -2 6 -13 5 -11 0 -14 -3 -6 -6z"/>
<path d="M2088 1893 c7 -3 16 -2 19 1 4 3 -2 6 -13 5 -11 0 -14 -3 -6 -6z"/>
<path d="M3425 2040 c-3 -5 -1 -10 4 -10 6 0 11 5 11 10 0 6 -2 10 -4 10 -3 0
-8 -4 -11 -10z"/>
<path d="M1616 1931 c-4 -5 -2 -20 3 -33 9 -21 10 -21 10 10 1 32 -3 39 -13
23z"/>
<path d="M1580 1920 c0 -5 5 -10 10 -10 6 0 10 5 10 10 0 6 -4 10 -10 10 -5 0
-10 -4 -10 -10z"/>
<path d="M1515 1900 c-3 -5 -1 -10 4 -10 6 0 11 5 11 10 0 6 -2 10 -4 10 -3 0
-8 -4 -11 -10z"/>
<path d="M1551 1874 c0 -11 3 -14 6 -6 3 7 2 16 -1 19 -3 4 -6 -2 -5 -13z"/>
<path d="M1555 1840 c3 -5 8 -10 11 -10 2 0 4 5 4 10 0 6 -5 10 -11 10 -5 0
-7 -4 -4 -10z"/>
<path d="M825 1399 c-4 -6 -5 -12 -2 -15 2 -3 7 2 10 11 7 17 1 20 -8 4z"/>
<path d="M3448 1173 c7 -3 16 -2 19 1 4 3 -2 6 -13 5 -11 0 -14 -3 -6 -6z"/>
<path d="M3255 1120 c3 -5 11 -10 16 -10 6 0 7 5 4 10 -3 6 -11 10 -16 10 -6
0 -7 -4 -4 -10z"/>
<path d="M3220 1091 c11 -22 44 -28 56 -10 4 8 0 9 -15 4 -15 -4 -21 -3 -19 6
2 7 -5 15 -15 17 -16 3 -17 1 -7 -17z"/>
<path d="M3180 1080 c0 -5 7 -10 16 -10 8 0 12 5 9 10 -3 6 -10 10 -16 10 -5
0 -9 -4 -9 -10z"/>
<path d="M3330 666 c0 -2 8 -10 18 -17 15 -13 16 -12 3 4 -13 16 -21 21 -21
13z"/>
<path d="M1830 1105 c0 -8 14 -24 31 -36 24 -17 33 -19 39 -9 15 25 -5 54 -39
56 -20 1 -31 -3 -31 -11z"/>
<path d="M1515 1100 c-4 -7 -3 -16 3 -22 13 -13 54 0 49 15 -5 16 -43 21 -52
7z"/>
<path d="M2016 913 c6 -79 10 -93 22 -93 12 0 13 72 1 86 -7 9 -7 14 -1 14 14
0 -1 63 -16 68 -10 3 -11 -14 -6 -75z"/>
<path d="M2065 874 c3 -80 25 -132 25 -58 0 22 -5 45 -12 52 -9 9 -9 12 0 12
16 0 15 45 -2 59 -11 9 -13 -2 -11 -65z"/>
<path d="M3317 895 c3 -14 9 -25 14 -25 16 0 16 15 -1 33 -17 17 -17 17 -13
-8z"/>
<path d="M1140 970 c0 -5 9 -10 21 -10 11 0 17 5 14 10 -3 6 -13 10 -21 10 -8
0 -14 -4 -14 -10z"/>
<path d="M380 735 c-9 -10 -6 -15 9 -20 12 -3 21 -13 21 -21 0 -8 5 -14 10
-14 6 0 10 -5 10 -11 0 -6 -6 -9 -12 -6 -8 3 -14 -5 -14 -19 -2 -32 27 -40 48
-14 10 12 16 26 13 30 -3 4 2 10 10 14 18 6 10 33 -10 33 -8 0 -12 -4 -9 -9 3
-4 -1 -8 -9 -8 -8 0 -18 11 -21 24 -7 29 -30 40 -46 21z m74 -90 c-6 -16 -24
-21 -24 -7 0 11 11 22 21 22 5 0 6 -7 3 -15z"/>
<path d="M435 580 c-3 -6 1 -7 9 -4 18 7 21 14 7 14 -6 0 -13 -4 -16 -10z"/>
<path d="M2760 256 c0 -37 4 -66 10 -66 6 0 10 26 10 59 0 33 -4 63 -10 66 -6
4 -10 -18 -10 -59z"/>
<path d="M2808 215 c3 -57 7 -75 18 -75 15 0 15 -1 16 66 1 32 -5 51 -18 65
-19 18 -19 17 -16 -56z"/>
<path d="M4809 283 c0 -11 -3 -13 -6 -5 -9 22 -33 13 -33 -13 0 -28 0 -28 34
-15 16 6 26 17 26 30 0 24 -20 27 -21 3z"/>
<path d="M4565 261 c-3 -5 0 -13 6 -17 8 -5 8 -9 -1 -14 -10 -6 -8 -15 9 -38
11 -17 21 -34 21 -39 0 -13 34 -43 48 -43 15 0 11 20 -6 38 -15 16 -10 38 7
34 6 -1 11 5 11 15 0 9 -3 14 -6 10 -8 -8 -33 16 -27 26 2 4 -2 7 -10 7 -8 0
-17 7 -21 15 -6 17 -22 20 -31 6z"/>
<path d="M4650 160 c0 -5 5 -10 10 -10 6 0 10 5 10 10 0 6 -4 10 -10 10 -5 0
-10 -4 -10 -10z"/>
<path d="M482 260 c0 -14 2 -19 5 -12 2 6 2 18 0 25 -3 6 -5 1 -5 -13z"/>
<path d="M1508 4263 c7 -3 16 -2 19 1 4 3 -2 6 -13 5 -11 0 -14 -3 -6 -6z"/>
<path d="M1820 4259 c0 -5 5 -7 10 -4 6 3 10 8 10 11 0 2 -4 4 -10 4 -5 0 -10
-5 -10 -11z"/>
<path d="M1854 4248 c3 -13 6 -27 6 -31 0 -4 12 -6 28 -3 15 2 30 5 35 5 4 1
7 12 7 26 0 23 -4 25 -41 25 -38 0 -41 -2 -35 -22z"/>
<path d="M3666 4258 c3 -5 10 -6 15 -3 13 9 11 12 -6 12 -8 0 -12 -4 -9 -9z"/>
<path d="M3740 4240 c0 -16 2 -30 4 -30 2 0 11 -3 20 -6 13 -5 16 1 16 31 0
20 -4 34 -9 31 -4 -3 -6 -18 -3 -32 3 -19 1 -25 -7 -20 -6 4 -9 18 -7 32 3 13
0 24 -5 24 -5 0 -9 -13 -9 -30z"/>
<path d="M5248 4264 c-5 -4 -8 -22 -8 -41 0 -29 3 -33 25 -33 23 0 25 4 25 40
0 22 -5 40 -11 40 -5 0 -9 -8 -8 -17 3 -36 -4 -47 -10 -15 -3 19 -9 30 -13 26z"/>
<path d="M5600 4231 c63 -21 120 -35 125 -31 6 4 35 7 65 7 45 0 167 17 400
56 14 2 -75 5 -198 6 l-222 1 -10 -25 c-5 -14 -12 -25 -16 -25 -3 0 -4 11 -2
25 l5 25 -131 -1 -131 -1 115 -37z"/>
<path d="M3847 4208 c2 -58 5 -60 13 -13 l7 40 2 -42 c0 -24 6 -43 11 -43 6 0
9 20 8 45 0 25 -5 45 -9 45 -4 0 -13 2 -21 5 -10 4 -13 -5 -11 -37z"/>
<path d="M5520 4156 c0 -41 1 -43 26 -38 21 4 25 9 22 35 -2 20 -10 32 -25 38
-22 8 -23 6 -23 -35z"/>
<path d="M765 4151 c-16 -3 -29 -10 -27 -14 1 -4 2 -25 2 -47 l0 -39 43 5 c23
4 44 8 46 10 2 2 0 24 -3 49 -7 46 -9 47 -61 36z"/>
<path d="M5617 4153 c-13 -12 -7 -23 13 -23 11 0 20 7 20 15 0 15 -21 21 -33
8z"/>
<path d="M5750 4150 c0 -5 5 -10 10 -10 6 0 10 5 10 10 0 6 -4 10 -10 10 -5 0
-10 -4 -10 -10z"/>
<path d="M5860 4131 c0 -6 5 -13 10 -16 6 -3 10 1 10 9 0 9 -4 16 -10 16 -5 0
-10 -4 -10 -9z"/>
<path d="M4180 4119 c0 -5 9 -9 20 -9 11 0 20 2 20 4 0 2 -9 6 -20 9 -11 3
-20 1 -20 -4z"/>
<path d="M721 4094 c0 -11 3 -14 6 -6 3 7 2 16 -1 19 -3 4 -6 -2 -5 -13z"/>
<path d="M5660 4091 c8 -17 18 -21 33 -17 12 3 29 6 37 7 8 1 2 5 -15 9 -16 4
-38 11 -49 15 -16 7 -17 6 -6 -14z"/>
<path d="M4180 4089 c0 -5 5 -7 10 -4 6 3 10 8 10 11 0 2 -4 4 -10 4 -5 0 -10
-5 -10 -11z"/>
<path d="M490 4064 c0 -8 5 -12 10 -9 6 3 10 10 10 16 0 5 -4 9 -10 9 -5 0
-10 -7 -10 -16z"/>
<path d="M4155 4071 c-3 -5 -2 -12 3 -15 5 -3 9 1 9 9 0 17 -3 19 -12 6z"/>
<path d="M4180 4054 c0 -15 67 -60 76 -51 3 2 0 17 -6 33 -9 22 -13 25 -20 14
-8 -12 -13 -13 -30 -2 -11 7 -20 10 -20 6z"/>
<path d="M768 4033 c6 -2 18 -2 25 0 6 3 1 5 -13 5 -14 0 -19 -2 -12 -5z"/>
<path d="M4272 4020 c0 -14 2 -19 5 -12 2 6 2 18 0 25 -3 6 -5 1 -5 -13z"/>
<path d="M608 4003 c6 -2 18 -2 25 0 6 3 1 5 -13 5 -14 0 -19 -2 -12 -5z"/>
<path d="M5092 3985 c-25 -11 -33 -20 -30 -36 2 -12 10 -23 18 -25 8 -1 35 -9
59 -18 61 -22 71 -21 70 12 l-1 27 -8 -25 c-8 -24 -8 -23 -9 7 -1 26 -4 31
-17 26 -12 -4 -15 -2 -12 8 3 8 15 13 29 11 18 -3 21 -1 13 7 -18 19 -77 22
-112 6z"/>
<path d="M5240 3996 c0 -2 7 -9 15 -16 9 -7 15 -8 15 -2 0 5 -7 12 -15 16 -8
3 -15 4 -15 2z"/>
<path d="M4503 3950 c-2 -21 2 -42 7 -45 6 -4 10 12 10 39 0 56 -14 61 -17 6z"/>
<path d="M5513 3973 c9 -2 23 -2 30 0 6 3 -1 5 -18 5 -16 0 -22 -2 -12 -5z"/>
<path d="M5399 3957 c5 -5 28 -4 52 1 l44 10 -52 -2 c-28 0 -48 -5 -44 -9z"/>
<path d="M5660 3963 c0 -5 5 -15 10 -23 8 -12 10 -11 10 8 0 12 -4 22 -10 22
-5 0 -10 -3 -10 -7z"/>
<path d="M4532 3925 c1 -19 5 -35 10 -35 10 0 7 60 -4 66 -4 3 -7 -11 -6 -31z"/>
<path d="M4882 3948 c-19 -19 -14 -28 13 -28 27 0 28 1 19 24 -7 19 -16 20
-32 4z"/>
<path d="M5308 3933 c7 -3 16 -2 19 1 4 3 -2 6 -13 5 -11 0 -14 -3 -6 -6z"/>
<path d="M5240 3900 c0 -27 3 -30 30 -30 l31 0 -23 30 c-12 17 -25 30 -30 30
-4 0 -8 -13 -8 -30z"/>
<path d="M4660 3885 c0 -31 -17 -33 -23 -2 -4 20 -4 19 -6 -4 -1 -19 5 -28 19
-32 17 -4 20 0 20 29 0 19 -2 34 -5 34 -3 0 -5 -11 -5 -25z"/>
<path d="M5142 3730 c0 -14 2 -19 5 -12 2 6 2 18 0 25 -3 6 -5 1 -5 -13z"/>
<path d="M5162 3695 c-3 -51 -1 -56 23 -65 42 -16 45 -13 45 45 0 43 -4 56
-19 65 -38 20 -46 12 -49 -45z"/>
<path d="M5130 3670 c0 -5 5 -10 11 -10 5 0 7 5 4 10 -3 6 -8 10 -11 10 -2 0
-4 -4 -4 -10z"/>
<path d="M5530 3565 c0 -19 4 -35 8 -35 4 0 8 16 9 35 0 19 -3 35 -8 35 -5 0
-9 -16 -9 -35z"/>
<path d="M6216 3591 c-8 -12 3 -41 15 -41 5 0 9 11 9 25 0 25 -14 34 -24 16z"/>
<path d="M6160 3560 c0 -11 5 -20 10 -20 6 0 10 9 10 20 0 11 -4 20 -10 20 -5
0 -10 -9 -10 -20z"/>
<path d="M5956 3533 c-10 -24 7 -35 37 -24 30 12 35 26 11 35 -26 10 -42 7
-48 -11z"/>
<path d="M5678 3494 c-3 -42 -1 -47 24 -60 15 -8 29 -14 31 -14 2 0 5 22 6 49
1 35 -3 50 -14 55 -11 4 -15 -2 -15 -25 0 -17 -4 -28 -8 -25 -5 3 -7 19 -4 36
2 16 0 30 -6 30 -5 0 -12 -21 -14 -46z"/>
<path d="M250 3170 c0 -5 5 -10 11 -10 5 0 7 5 4 10 -3 6 -8 10 -11 10 -2 0
-4 -4 -4 -10z"/>
<path d="M160 3163 c-163 -25 -160 -24 -160 -44 0 -12 4 -17 11 -13 15 9 107
33 154 40 22 4 49 10 60 15 17 6 15 8 -10 7 -16 0 -41 -2 -55 -5z"/>
<path d="M168 3058 c2 -29 5 -54 6 -55 1 -1 12 0 24 4 15 4 20 11 18 27 -3 11
-5 33 -5 49 -1 21 -6 27 -25 27 -22 0 -23 -3 -18 -52z"/>
<path d="M104 3084 c3 -9 6 -34 6 -55 0 -37 2 -40 23 -33 12 3 22 7 23 8 0 0
-1 22 -4 49 -4 42 -6 47 -29 47 -19 0 -24 -4 -19 -16z"/>
<path d="M190 2990 l-35 -7 32 -2 c17 0 35 4 38 9 3 6 5 9 3 9 -2 -1 -19 -5
-38 -9z"/>
<path d="M7 2775 c3 -8 9 -12 14 -9 12 7 11 11 -5 17 -10 4 -13 1 -9 -8z"/>
<path d="M27 1679 c7 -7 15 -10 18 -7 3 3 -2 9 -12 12 -14 6 -15 5 -6 -5z"/>
<path d="M5321 929 c-2 -64 8 -99 28 -99 4 0 6 37 6 82 0 68 -3 83 -16 86 -14
2 -16 -9 -18 -69z"/>
<path d="M5388 884 c-2 -63 0 -78 14 -85 14 -8 17 0 20 64 3 67 -3 97 -22 97
-5 0 -10 -34 -12 -76z"/>
<path d="M60 885 c7 -9 15 -13 17 -11 7 7 -7 26 -19 26 -6 0 -6 -6 2 -15z"/>
<path d="M70 850 c8 -5 22 -9 30 -9 10 0 8 3 -5 9 -27 12 -43 12 -25 0z"/>
<path d="M5593 812 c-10 -32 -10 -39 4 -49 9 -7 27 -13 40 -13 20 0 23 5 23
34 0 27 -5 36 -22 42 -13 4 -25 10 -28 15 -3 4 -11 -9 -17 -29z"/>
<path d="M96 815 c-3 -9 0 -15 9 -15 16 0 20 16 6 24 -5 3 -11 -1 -15 -9z"/>
<path d="M241 823 c-1 -7 -7 -13 -13 -13 -23 0 -39 -16 -32 -33 3 -9 14 -17
23 -17 14 1 14 2 -1 14 -19 14 -14 26 9 26 8 0 12 -4 9 -9 -6 -9 35 -24 43
-16 2 3 -1 5 -8 5 -8 0 -10 7 -6 21 5 14 3 19 -3 15 -6 -3 -13 0 -15 6 -4 10
-6 10 -6 1z"/>
<path d="M6358 813 c-12 -3 -19 -19 -23 -51 -9 -68 -13 -73 -14 -19 -1 45 -2
48 -23 41 -13 -3 -24 -7 -24 -8 -1 0 -4 -34 -6 -74 -5 -68 -4 -73 13 -69 11 3
19 1 19 -3 0 -5 -8 -10 -17 -12 -10 -2 5 -5 32 -6 86 -2 85 -4 85 109 0 102 0
103 -42 92z"/>
<path d="M171 803 c0 -6 -10 -9 -20 -6 -16 4 -19 1 -14 -15 5 -20 31 -37 40
-28 3 2 3 17 0 33 -2 15 -5 23 -6 16z"/>
<path d="M0 775 c0 -15 4 -24 10 -20 5 3 10 1 10 -4 0 -15 37 -14 46 1 4 7 3
8 -4 4 -7 -4 -12 -3 -12 2 0 5 -11 17 -25 26 -24 16 -25 16 -25 -9z"/>
<path d="M6055 711 c-18 -7 -21 -19 -23 -80 -2 -45 1 -71 7 -71 6 0 11 4 11
10 0 5 7 7 15 4 10 -4 15 0 16 12 0 11 3 45 5 77 5 59 3 62 -31 48z m15 -65
c0 -3 -4 -8 -10 -11 -5 -3 -10 -1 -10 4 0 6 5 11 10 11 6 0 10 -2 10 -4z m0
-40 c0 -3 -4 -8 -10 -11 -5 -3 -10 -1 -10 4 0 6 5 11 10 11 6 0 10 -2 10 -4z"/>
<path d="M5984 693 c-20 -4 -22 -11 -23 -79 -1 -74 -1 -75 21 -69 13 4 24 8
25 9 6 5 11 146 5 145 -4 -1 -17 -4 -28 -6z m16 -27 c0 -3 -4 -8 -10 -11 -5
-3 -10 -1 -10 4 0 6 5 11 10 11 6 0 10 -2 10 -4z m0 -80 c0 -3 -4 -8 -10 -11
-5 -3 -10 -1 -10 4 0 6 5 11 10 11 6 0 10 -2 10 -4z"/>
<path d="M4695 21 c-3 -5 -1 -12 5 -16 5 -3 10 1 10 9 0 18 -6 21 -15 7z"/>
<path d="M4650 10 c0 -5 7 -10 16 -10 8 0 12 5 9 10 -3 6 -10 10 -16 10 -5 0
-9 -4 -9 -10z"/>
</g>
</svg>
