<?xml version="1.0" standalone="no"?>
<!DOCTYPE svg PUBLIC "-//W3C//DTD SVG 20010904//EN"
 "http://www.w3.org/TR/2001/REC-SVG-20010904/DTD/svg10.dtd">
<svg version="1.0" xmlns="http://www.w3.org/2000/svg"
 width="2400.000000pt" height="2400.000000pt" viewBox="0 0 2400.000000 2400.000000"
 preserveAspectRatio="xMidYMid meet">

<g transform="translate(0.000000,2400.000000) scale(0.100000,-0.100000)"
fill="#000000" stroke="none">
<path d="M10509 22826 c-71 -29 -102 -51 -164 -117 -92 -98 -132 -189 -142
-326 -5 -73 -9 -83 -27 -89 -52 -16 -272 -107 -378 -157 -348 -164 -600 -339
-854 -592 -518 -516 -850 -1184 -958 -1925 -60 -414 -42 -789 45 -911 10 -15
19 -32 19 -38 0 -7 -153 -193 -340 -416 l-341 -404 -117 -62 c-412 -218 -741
-455 -1053 -757 -95 -91 -98 -93 -160 -103 -416 -64 -870 -231 -1247 -457
-253 -152 -448 -306 -672 -531 -560 -561 -889 -1245 -992 -2061 -21 -165 -17
-651 5 -820 96 -704 371 -1333 815 -1860 l89 -106 6 -369 c9 -541 40 -945 113
-1470 261 -1888 948 -3644 1945 -4972 996 -1326 2214 -2116 3517 -2283 548
-70 1292 -52 3632 85 1647 97 2363 157 2810 236 1010 178 1839 706 2555 1624
119 152 355 508 465 700 567 988 952 2243 1109 3615 88 765 104 1628 46 2430
-196 2689 -1165 5218 -2621 6840 -253 282 -595 600 -876 814 -580 441 -1232
740 -1838 845 -321 55 -723 72 -1040 42 -391 -35 -1064 -144 -1980 -319 -113
-22 -206 -39 -208 -37 -8 7 -31 170 -24 176 4 4 93 21 197 39 977 164 2076
388 2361 482 141 46 193 79 226 146 72 146 -23 513 -243 942 -252 491 -619
916 -1069 1235 -281 199 -651 376 -941 450 -133 34 -258 55 -265 44 -4 -8 21
-13 29 -6 2 1 12 -6 22 -16 9 -10 23 -16 30 -13 7 2 21 -2 32 -9 10 -8 26 -15
36 -15 9 0 17 -5 17 -11 0 -7 10 -9 25 -6 14 2 23 2 20 -1 -6 -6 82 -50 101
-51 6 -1 17 -8 24 -16 7 -8 50 -36 97 -62 47 -27 94 -53 105 -59 10 -6 32 -23
47 -38 15 -14 32 -26 39 -26 7 0 11 -5 10 -12 -2 -7 2 -12 7 -13 10 0 125
-112 125 -121 0 -3 -6 -2 -12 2 -7 4 -2 -4 12 -17 14 -13 27 -20 29 -14 2 5
-1 11 -7 13 -7 2 -12 9 -12 15 1 7 14 -3 30 -22 15 -18 26 -39 24 -45 -3 -7 7
-23 21 -36 14 -13 25 -31 25 -41 0 -10 5 -21 10 -24 6 -3 10 -15 10 -26 0 -12
4 -17 11 -13 8 5 9 2 1 -12 -12 -22 13 -73 38 -75 8 -1 2 -5 -15 -9 -16 -4
-22 -8 -12 -9 14 -1 17 -6 12 -21 -3 -11 -2 -20 3 -20 16 0 23 -31 11 -46 -7
-9 -7 -19 1 -35 11 -19 10 -21 -4 -16 -13 5 -15 2 -10 -18 4 -16 2 -25 -6 -25
-6 0 -8 -4 -5 -10 5 -9 -15 -15 -38 -11 -4 1 -2 -8 5 -19 7 -11 18 -18 23 -16
6 2 12 -5 12 -16 1 -13 -8 -24 -29 -32 -18 -8 -26 -16 -19 -20 6 -4 16 -4 21
-1 6 3 10 2 10 -2 0 -5 -9 -14 -19 -20 -17 -10 -20 -9 -25 13 -4 13 -2 33 4
44 6 11 7 20 3 20 -4 0 -2 4 6 9 9 6 10 11 2 15 -6 4 -14 -1 -17 -11 -18 -52
-31 -74 -47 -79 -9 -3 -15 -10 -12 -15 4 -5 14 -3 25 3 24 16 33 7 22 -22 -5
-15 -18 -24 -35 -26 -31 -3 -76 -34 -77 -52 0 -15 41 -13 52 3 4 6 8 2 8 -9 0
-12 -5 -16 -15 -12 -8 3 -15 0 -15 -6 0 -7 -14 -8 -40 -4 -23 3 -40 2 -40 -3
0 -5 -13 -12 -30 -16 -16 -4 -30 -11 -30 -16 0 -6 5 -7 10 -4 6 4 10 -5 10
-19 0 -14 -4 -26 -10 -26 -5 0 -10 6 -10 14 0 21 -32 9 -54 -21 -15 -21 -16
-27 -5 -35 10 -7 5 -8 -18 -4 -30 5 -59 -12 -48 -28 3 -3 0 -2 -6 3 -14 11 11
53 28 46 7 -2 18 6 24 18 6 12 30 40 53 61 36 35 38 39 16 33 -14 -4 -29 -7
-34 -7 -4 0 -6 -7 -2 -15 3 -8 1 -15 -4 -15 -6 0 -10 8 -10 18 0 14 -2 14 -9
3 -5 -8 -7 -20 -4 -27 7 -18 -23 -48 -31 -31 -5 9 -7 9 -12 0 -3 -7 -15 -13
-26 -13 -15 0 -18 -3 -10 -12 16 -21 -4 -61 -27 -55 -21 5 -67 -34 -54 -46 3
-4 1 -7 -5 -7 -7 0 -12 6 -12 14 0 12 -6 13 -32 4 -38 -11 -44 -12 -75 -4 -16
3 -26 -1 -32 -13 -7 -12 -22 -18 -43 -18 l-33 0 37 16 c21 9 38 19 38 24 0 10
-18 9 -25 -3 -3 -5 -17 -10 -29 -10 -25 0 -51 -22 -39 -33 3 -4 -1 -7 -11 -7
-9 0 -15 4 -12 9 6 9 -84 34 -92 26 -11 -11 12 -24 36 -21 15 2 19 1 10 -1
-10 -2 -18 -10 -18 -16 0 -7 -6 -5 -15 4 -20 20 -95 10 -121 -15 -12 -13 -26
-16 -48 -12 -27 5 -29 4 -14 -8 10 -7 15 -16 11 -19 -10 -11 -25 -8 -18 3 11
17 -135 16 -167 -1 -10 -6 -18 -6 -18 -1 0 4 -30 6 -67 4 -38 -2 -65 -1 -60 4
4 4 28 7 52 5 26 -1 45 2 45 9 0 5 6 10 13 10 7 0 22 7 33 15 17 13 15 14 -31
14 -41 -1 -45 -3 -25 -9 15 -6 -24 -7 -97 -4 -68 2 -133 9 -146 15 -14 6 -31
7 -47 1 -22 -9 -21 -10 14 -9 23 1 41 -4 44 -11 2 -7 27 -12 65 -13 58 -1 60
-1 34 -13 -35 -16 -113 -6 -109 13 2 11 -12 13 -73 8 -41 -3 -75 -2 -75 3 0 5
10 11 23 13 12 3 0 3 -26 1 -27 -2 -61 -1 -77 3 -24 4 -27 8 -16 19 7 7 33 14
57 17 41 3 40 4 -12 5 -40 1 -60 -2 -69 -13 -7 -8 -24 -15 -39 -15 -24 -1 -25
-2 -8 -14 15 -12 13 -14 -23 -20 -23 -3 -45 -4 -51 -1 -16 10 -10 23 14 28 12
3 -25 5 -83 4 -112 0 -150 6 -150 28 0 7 -7 16 -16 19 -24 9 -56 7 -50 -3 12
-18 -53 -22 -106 -6 -30 8 -62 13 -71 9 -9 -3 -24 -1 -34 5 -16 9 -14 11 12
12 17 1 46 1 65 0 l35 -2 -31 19 c-29 19 -34 19 -78 5 -42 -14 -48 -14 -71 1
-13 9 -35 16 -49 16 -16 0 -27 7 -31 20 -7 22 -20 26 -30 10 -11 -17 -54 1
-128 51 -39 27 -76 49 -84 49 -19 0 -73 35 -89 59 -8 11 -24 21 -35 21 -28 0
-83 56 -75 76 3 8 1 24 -5 35 -9 17 -13 18 -25 8 -13 -10 -17 -10 -25 2 -5 8
-9 21 -9 30 0 9 -9 27 -19 40 -15 19 -18 34 -14 70 4 34 1 49 -11 61 -24 24
-20 40 21 87 25 30 33 45 24 50 -8 6 -9 15 -2 34 7 18 7 27 -1 29 -17 6 32 90
60 104 13 7 32 25 42 40 32 51 137 151 188 180 18 10 30 24 28 31 -3 7 -1 15
4 18 4 3 10 0 12 -6 2 -7 34 7 78 35 41 25 80 46 87 46 6 0 32 14 56 30 25 17
49 30 55 30 15 0 21 37 9 49 -6 6 -17 11 -24 11 -7 0 -17 9 -23 19 -13 25 -13
41 0 21 7 -11 10 -2 10 31 0 35 7 56 30 88 27 37 33 40 51 30 15 -8 19 -8 15
0 -10 15 7 14 22 -1 7 -7 12 -8 12 -3 0 5 7 0 15 -12 9 -13 15 -40 13 -67 0
-26 1 -49 4 -52 7 -6 180 24 216 37 17 7 22 16 22 44 0 51 13 70 62 93 72 33
76 33 137 2 42 -21 62 -37 71 -61 l14 -32 80 7 c45 3 93 6 108 6 l27 0 -20 57
c-37 108 -119 206 -222 266 -78 45 -92 42 -37 -9 33 -30 50 -55 50 -70 0 -13
-5 -24 -10 -24 -6 0 -15 -11 -19 -24 -8 -18 -24 -27 -78 -40 -62 -16 -208 -23
-258 -12 -11 2 -40 7 -65 11 -25 4 -53 14 -62 22 -9 8 -22 12 -27 8 -6 -3 -11
1 -11 9 0 9 -4 16 -8 16 -15 0 -11 42 8 72 10 18 38 44 61 60 51 34 42 35 -32
4z m-763 -1082 c-3 -9 -6 -22 -6 -30 0 -8 -4 -14 -10 -14 -11 0 -14 43 -3 53
12 13 25 7 19 -9z m2848 -649 c-4 -8 -8 -15 -10 -15 -2 0 -4 7 -4 15 0 8 4 15
10 15 5 0 7 -7 4 -15z m-2511 -12 c-7 -2 -19 -2 -25 0 -7 3 -2 5 12 5 14 0 19
-2 13 -5z m2462 -33 c3 -5 -1 -10 -9 -10 -8 0 -18 5 -21 10 -3 6 1 10 9 10 8
0 18 -4 21 -10z m45 1 c0 -5 -7 -12 -16 -15 -14 -5 -15 -4 -4 9 14 17 20 19
20 6z m-83 -53 c-3 -8 -6 -5 -6 6 -1 11 2 17 5 13 3 -3 4 -12 1 -19z m-317
-78 c0 -12 -48 -32 -60 -25 -8 5 -4 11 12 19 26 14 48 16 48 6z m-1315 -20 c8
-13 -15 -13 -35 0 -12 8 -11 10 7 10 12 0 25 -4 28 -10z m1107 -5 c39 5 49 4
38 -4 -8 -6 -24 -11 -35 -12 l-20 0 20 -9 c11 -5 14 -9 7 -9 -7 -1 -23 4 -35
11 -12 6 -41 10 -64 9 -24 0 -43 3 -43 8 0 13 52 19 67 8 6 -4 35 -5 65 -2z
m-137 -25 c3 -5 -1 -10 -10 -10 -9 0 -13 5 -10 10 3 6 8 10 10 10 2 0 7 -4 10
-10z m-565 -14 c0 -9 -40 -13 -46 -5 -3 5 6 9 20 9 14 0 26 -2 26 -4z m810
-275 c0 -5 -16 -8 -35 -6 -19 2 -35 -2 -35 -7 0 -6 17 -8 40 -6 22 2 40 0 40
-5 0 -4 5 -5 11 -1 8 4 7 9 -2 15 -7 4 -10 11 -7 15 4 3 26 -4 50 -16 24 -12
40 -19 36 -14 -12 11 34 31 60 26 16 -3 20 -8 12 -17 -18 -21 2 -25 28 -5 26
21 67 27 76 11 3 -5 -8 -14 -24 -20 -17 -5 -30 -7 -30 -4 0 3 -7 0 -15 -7 -17
-15 -20 -40 -4 -40 6 0 8 7 5 16 -5 13 0 16 28 12 23 -2 32 0 29 8 -2 7 5 10
21 9 39 -5 96 -26 96 -36 0 -12 -17 -11 -41 1 -11 6 -26 7 -34 3 -25 -15 87
-36 120 -23 29 11 25 24 -10 33 -18 4 -18 5 2 6 26 1 73 -39 73 -62 0 -10 11
-17 33 -19 20 -2 32 -8 32 -18 0 -8 -8 -14 -17 -14 -10 1 -18 -2 -18 -7 0 -5
12 -9 26 -9 19 0 28 -7 37 -29 9 -26 15 -29 39 -24 23 4 28 2 29 -13 0 -11 3
-14 6 -6 7 17 24 15 53 -9 16 -14 19 -19 8 -15 -30 9 -20 -12 13 -28 28 -14
30 -14 27 4 -6 36 17 21 25 -16 4 -20 18 -47 32 -60 14 -13 25 -32 25 -44 0
-11 5 -20 10 -20 6 0 15 -10 21 -23 6 -13 20 -27 32 -32 12 -6 27 -21 34 -35
7 -14 13 -20 13 -15 0 6 5 3 10 -5 8 -13 10 -13 10 2 0 36 28 5 37 -40 6 -35
13 -46 25 -44 16 2 28 -35 28 -87 0 -20 -2 -23 -10 -11 -5 8 -12 12 -15 8 -4
-3 -1 -15 6 -26 16 -25 6 -50 -25 -62 -13 -5 -30 -17 -36 -27 -9 -14 -12 -15
-17 -4 -5 11 -7 11 -14 0 -6 -10 -9 -7 -9 10 0 23 -1 23 -18 8 -10 -10 -24
-17 -30 -17 -7 0 -12 -10 -13 -22 0 -13 -3 -17 -6 -10 -4 11 -8 10 -22 -2 -9
-8 -37 -16 -63 -18 -25 -2 -44 -6 -42 -10 6 -9 -33 -21 -45 -13 -5 3 -27 -1
-48 -9 -21 -9 -49 -17 -63 -19 -14 -2 -32 -7 -40 -10 -8 -4 -44 -11 -80 -16
-83 -13 -180 -34 -250 -55 -76 -22 -319 -47 -640 -64 -195 -11 -253 -10 -284
3 -14 6 -17 5 -12 -3 4 -7 2 -12 -3 -12 -6 0 -11 5 -11 11 0 6 -7 8 -16 5 -8
-3 -24 -1 -35 4 -15 9 -19 7 -19 -5 0 -24 -20 -7 -21 18 -1 17 -2 18 -6 5 -2
-10 -9 -18 -14 -18 -6 0 -7 10 -4 23 7 21 6 21 -7 4 -13 -18 -15 -17 -26 8
-11 23 -10 32 3 51 17 27 19 62 5 84 -8 11 -9 8 -4 -13 3 -15 2 -27 -2 -26
-20 3 -28 -2 -16 -10 11 -6 10 -11 -3 -25 -24 -24 -35 -20 -35 13 0 17 6 31
16 35 10 4 13 13 9 26 -3 11 -2 28 4 37 10 17 10 17 11 0 0 -13 8 -8 34 19 22
23 32 43 30 60 -1 15 5 29 19 39 15 10 21 26 21 52 1 21 4 43 9 50 4 6 4 18 1
27 -3 9 -1 16 6 16 6 0 9 4 6 9 -3 5 4 11 15 14 17 5 20 11 15 31 -4 15 -2 26
4 26 5 0 10 7 10 15 0 27 20 15 21 -12 1 -24 2 -25 8 -8 16 47 35 75 53 75 10
0 18 5 18 11 0 6 6 9 13 6 9 -3 20 8 29 29 9 19 14 34 11 34 -16 0 -63 -33
-63 -45 0 -8 -4 -15 -10 -15 -5 0 -10 7 -10 16 0 27 20 54 40 54 11 0 20 6 20
14 0 26 52 94 76 100 15 4 24 14 24 26 0 11 5 20 11 20 7 0 8 -12 4 -32 l-6
-33 20 25 c14 18 17 28 9 37 -7 9 -7 13 1 13 6 0 11 6 11 14 0 18 39 66 53 66
7 0 6 -4 -3 -10 -13 -9 -13 -11 0 -20 8 -5 11 -10 5 -10 -21 -1 -35 -17 -29
-33 9 -25 37 -6 54 37 14 37 36 51 25 16 -7 -23 16 -28 37 -7 7 7 29 12 50 12
20 0 34 3 31 8 -2 4 3 7 12 7 8 0 20 11 26 24 7 15 23 26 41 30 23 5 29 10 25
25 -3 15 0 17 17 13 11 -3 18 -1 14 3 -14 15 14 35 48 35 19 0 34 -4 34 -9z
m-151 -44 c-29 -23 -36 -14 -14 19 13 21 19 24 26 13 6 -10 2 -20 -12 -32z
m576 23 c3 -6 -1 -7 -9 -4 -18 7 -21 14 -7 14 6 0 13 -4 16 -10z m-650 -21
c-10 -15 -25 -10 -19 6 4 8 10 12 15 9 5 -3 7 -10 4 -15z m-2 -26 c-26 -10
-12 -22 13 -12 15 5 28 8 30 6 8 -8 -32 -36 -61 -42 -23 -5 -26 -4 -15 4 13 9
13 11 -2 11 -10 0 -18 5 -18 10 0 11 36 29 55 29 6 -1 4 -3 -2 -6z m-123 -23
c0 -5 -6 -10 -14 -10 -8 0 -18 5 -21 10 -3 6 3 10 14 10 12 0 21 -4 21 -10z
m975 -101 c4 -6 14 -8 22 -5 8 3 11 1 8 -4 -4 -6 4 -15 17 -20 18 -8 13 -9
-22 -4 -53 7 -60 11 -60 30 0 16 26 19 35 3z m-1130 -39 c-3 -5 -14 -10 -23
-10 -15 0 -15 2 -2 10 20 13 33 13 25 0z m-2225 -62 c0 -6 -11 -7 -25 -4 -29
7 -31 3 -9 -18 12 -12 20 -13 35 -6 20 11 43 5 34 -10 -3 -4 5 -10 17 -13 13
-4 26 -1 30 6 4 7 8 9 8 5 0 -4 11 -3 25 2 20 7 27 6 31 -4 3 -8 12 -12 20 -9
8 3 14 -1 14 -9 0 -10 10 -14 35 -12 25 2 35 -1 35 -11 0 -8 11 -17 24 -21 13
-3 26 -14 29 -24 3 -13 1 -17 -10 -13 -13 5 -13 2 -4 -15 15 -27 14 -32 -4
-32 -22 0 -18 -16 9 -42 36 -36 86 -62 71 -38 -3 6 1 10 9 10 12 0 16 -11 16
-42 0 -24 -4 -38 -8 -32 -10 15 -42 25 -42 14 0 -5 9 -14 20 -20 11 -6 20 -17
20 -25 0 -9 6 -12 18 -9 12 4 11 0 -6 -15 -19 -17 -22 -26 -16 -56 5 -29 9
-33 20 -24 8 6 14 20 14 30 0 35 16 19 17 -17 1 -22 -4 -37 -13 -41 -16 -6
-19 -29 -5 -35 10 -4 19 -178 9 -178 -4 0 -6 -12 -6 -27 0 -16 -3 -43 -7 -62
l-7 -33 -19 28 c-14 22 -19 25 -19 11 0 -10 7 -29 16 -43 12 -17 15 -36 11
-62 -5 -25 -3 -32 3 -22 8 13 10 13 10 -2 0 -9 -4 -19 -9 -22 -15 -9 -19 -57
-9 -95 12 -45 28 -66 38 -51 5 7 11 6 19 -4 19 -23 4 -36 -40 -36 -28 0 -38
-4 -33 -11 5 -8 -1 -10 -18 -6 -35 9 -188 -10 -232 -28 -20 -9 -39 -22 -43
-30 -3 -8 -11 -15 -18 -15 -7 0 -22 -11 -32 -25 -14 -20 -37 -30 -103 -46 -96
-23 -243 -47 -340 -55 -132 -12 -165 -8 -178 19 -8 17 -11 18 -11 5 -2 -34
-29 -18 -51 28 -13 29 -23 73 -25 117 -4 61 -2 73 15 89 14 13 18 26 14 44 -3
13 -1 31 6 39 12 14 16 117 6 158 -3 12 -3 16 0 10 10 -22 24 -14 24 13 0 23
-2 25 -16 13 -15 -12 -16 -11 -9 11 4 14 14 32 21 41 8 8 14 22 14 30 -1 10
-5 8 -15 -5 -19 -26 -19 -6 0 30 8 16 15 37 15 46 0 10 9 22 20 28 12 6 20 21
20 35 0 27 19 75 31 75 4 0 5 10 2 23 -4 18 -3 19 6 7 8 -12 11 -8 11 18 0 19
8 40 20 52 21 21 28 46 10 35 -13 -8 -13 1 1 27 9 17 13 18 21 7 7 -10 8 -6 5
13 -2 15 -1 25 3 23 4 -2 23 7 42 20 27 18 36 31 34 50 -1 26 -10 32 -21 15
-3 -5 -10 -10 -16 -10 -5 0 -4 9 3 20 8 13 19 18 34 14 17 -4 23 0 28 20 3 14
13 26 22 26 8 0 17 7 20 15 4 8 10 15 16 15 5 0 6 -4 3 -10 -9 -15 17 -11 39
5 19 14 18 15 -15 15 l-34 0 34 21 c24 15 45 19 76 16 32 -4 42 -2 39 7 -6 15
12 31 49 45 17 7 27 7 27 1 0 -6 -8 -10 -19 -10 -20 0 -48 -27 -38 -37 4 -3 1
-13 -6 -22 -11 -14 -10 -14 5 -3 10 8 16 19 15 24 -1 6 15 20 36 31 22 12 33
23 26 28 -7 4 -3 12 11 22 23 16 50 13 50 -5z m-132 -16 c-10 -2 -18 -8 -18
-13 0 -5 -7 -9 -15 -9 -8 0 -14 -5 -12 -12 1 -6 -6 -14 -15 -16 -10 -2 -18 0
-18 5 1 13 74 61 85 54 6 -3 2 -7 -7 -9z m211 -19 c-10 -11 -14 -11 -20 -1
-14 21 -10 26 11 21 16 -4 18 -8 9 -20z m-322 -19 c-3 -3 -12 -4 -19 -1 -8 3
-5 6 6 6 11 1 17 -2 13 -5z m2353 -4 c0 -5 -5 -10 -11 -10 -5 0 -7 5 -4 10 3
6 8 10 11 10 2 0 4 -4 4 -10z m-45 -69 c-3 -12 -10 -21 -15 -21 -5 0 -4 11 2
25 13 29 23 26 13 -4z m67 -3 c-6 -6 -15 -8 -19 -4 -4 4 -1 11 7 16 19 12 27
3 12 -12z m1541 -40 c6 -22 5 -22 -8 -4 -17 22 -20 40 -6 32 5 -3 11 -16 14
-28z m-3333 4 c0 -13 -12 -22 -22 -16 -10 6 -1 24 13 24 5 0 9 -4 9 -8z m1713
-22 c-3 -11 -9 -20 -14 -20 -11 0 -11 3 -3 24 9 23 23 20 17 -4z m-1707 -19
c-3 -5 1 -11 9 -15 24 -9 17 -26 -11 -26 -19 0 -25 4 -20 15 3 10 -1 15 -14
15 -10 0 -22 5 -25 10 -4 6 8 10 30 10 20 0 34 -4 31 -9z m-756 -61 c0 -5 -5
-10 -11 -10 -5 0 -7 5 -4 10 3 6 8 10 11 10 2 0 4 -4 4 -10z m2390 -5 c0 -8
-4 -15 -10 -15 -5 0 -7 7 -4 15 4 8 8 15 10 15 2 0 4 -7 4 -15z m-60 -133 c0
-15 -2 -15 -10 -2 -13 20 -13 33 0 25 6 -3 10 -14 10 -23z m-2430 14 c0 -3 -4
-8 -10 -11 -5 -3 -10 -1 -10 4 0 6 5 11 10 11 6 0 10 -2 10 -4z m2403 -73 c-5
-33 -23 -46 -23 -17 0 16 20 58 25 52 1 -1 0 -18 -2 -35z m1922 17 c3 -5 1
-10 -4 -10 -6 0 -11 5 -11 10 0 6 2 10 4 10 3 0 8 -4 11 -10z m-4372 -60 c-3
-11 -9 -20 -14 -20 -4 0 -7 9 -6 20 1 11 7 20 13 20 7 0 10 -8 7 -20z m2447
-20 c0 -4 -6 -10 -14 -13 -10 -4 -12 0 -9 14 5 18 23 18 23 -1z m-2480 -54 c0
-3 -4 -8 -10 -11 -5 -3 -10 -1 -10 4 0 6 5 11 10 11 6 0 10 -2 10 -4z m1037
-18 c-3 -8 -6 -5 -6 6 -1 11 2 17 5 13 3 -3 4 -12 1 -19z m0 -100 c-3 -8 -6
-5 -6 6 -1 11 2 17 5 13 3 -3 4 -12 1 -19z m-6 -108 c-8 -43 -8 -44 -16 -17
-5 18 -3 38 5 55 17 36 22 18 11 -38z m-1107 -189 c-4 -17 -9 -30 -11 -27 -3
2 -2 19 2 36 9 41 17 33 9 -9z m2731 -39 c10 -26 68 -325 68 -352 0 -66 0 -67
-60 -79 -81 -16 -107 -15 -99 5 4 9 2 22 -3 28 -18 21 -41 147 -41 220 0 40
-3 75 -6 79 -3 3 -7 26 -8 52 -2 44 -1 46 34 55 80 20 105 19 115 -8z m-369
-57 c8 -8 14 -20 13 -27 -2 -7 3 -33 10 -58 18 -63 28 -106 41 -175 13 -63 29
-104 30 -75 0 8 -4 31 -10 50 -5 19 -7 50 -3 70 6 34 6 34 16 10 13 -34 38
-190 32 -200 -2 -4 -15 -10 -27 -13 -13 -3 -40 -10 -60 -15 -50 -13 -57 -3
-64 94 -3 43 -10 90 -15 104 -10 27 -28 230 -22 243 7 12 44 8 59 -8z m2623
-40 c-3 -2 -66 -25 -140 -51 -348 -120 -615 -250 -904 -439 -661 -432 -1237
-1073 -1750 -1945 -117 -198 -161 -267 -184 -290 -18 -18 -23 -20 -18 -6 4 9
16 52 27 94 26 104 98 280 200 497 153 325 181 373 400 700 38 57 60 88 103
142 15 20 27 39 27 43 0 6 16 29 68 95 4 6 24 33 44 60 20 28 47 60 60 72 12
11 41 42 63 68 22 26 49 55 59 64 11 9 45 39 76 66 112 100 126 112 210 179
46 38 107 84 135 102 27 18 61 42 75 53 14 11 30 21 37 21 6 0 18 6 25 13 39
34 226 126 395 193 121 48 294 104 533 173 119 34 181 49 370 89 51 11 96 14
89 7z m-5012 -147 c-3 -8 -6 -5 -6 6 -1 11 2 17 5 13 3 -3 4 -12 1 -19z m-58
-73 c87 -21 179 -66 228 -112 21 -21 35 -35 29 -30 -19 14 -27 7 -15 -15 10
-18 9 -20 -5 -15 -9 4 -16 2 -16 -3 0 -6 -6 -10 -13 -10 -12 0 -117 -105 -117
-117 0 -3 -20 -25 -45 -49 -44 -41 -57 -61 -32 -49 6 4 3 -1 -7 -9 -11 -9 -24
-16 -29 -16 -5 0 -7 -6 -4 -14 4 -9 -17 -34 -53 -66 -32 -28 -66 -67 -75 -86
-10 -22 -23 -34 -35 -34 -11 0 -20 -4 -20 -10 0 -5 5 -10 10 -10 6 0 10 -4 10
-10 0 -5 -4 -10 -10 -10 -12 0 -50 -36 -50 -47 0 -15 -126 -143 -141 -144 -10
0 -10 -2 -1 -6 15 -6 16 -23 1 -23 -13 0 -69 -57 -62 -63 2 -3 -7 -7 -21 -11
-18 -4 -23 -11 -19 -26 4 -16 -2 -23 -27 -31 -22 -8 -28 -14 -19 -20 10 -6 9
-12 -5 -28 -10 -11 -27 -23 -38 -27 -11 -3 -17 -12 -14 -19 2 -7 -6 -21 -20
-29 -13 -9 -24 -23 -24 -31 0 -8 -14 -30 -31 -50 -38 -43 -74 -46 -180 -11
-41 13 -99 31 -129 40 -30 9 -71 23 -90 30 -19 8 -43 17 -52 20 -15 4 -16 8
-2 34 8 17 22 36 31 43 9 8 24 26 33 42 9 15 36 47 58 71 23 25 42 48 42 51 0
6 38 52 150 181 30 35 82 95 115 134 33 40 77 90 98 112 20 23 37 45 37 49 0
4 32 45 71 91 39 45 82 97 96 113 14 17 57 69 95 117 78 96 108 114 198 117
19 0 64 -6 99 -14z m2320 -72 c7 -38 14 -82 17 -99 5 -27 2 -32 -18 -36 -12
-3 -255 -51 -538 -107 -283 -56 -687 -138 -897 -182 -210 -43 -387 -79 -393
-79 -5 0 -10 17 -10 38 0 53 -26 136 -62 201 -19 34 -26 56 -19 60 6 4 95 17
198 29 232 28 1153 160 1438 206 295 47 271 50 284 -31z m-1951 -219 c17 -36
15 -54 -6 -54 -36 0 -72 61 -57 97 7 19 48 -9 63 -43z m-1462 -951 c13 -15 23
-32 24 -38 0 -5 17 -21 38 -34 20 -14 46 -33 57 -42 11 -10 43 -26 71 -37 28
-11 71 -34 96 -51 25 -17 48 -31 50 -31 3 0 3 30 -1 62 -1 4 -12 19 -26 34
-14 15 -25 33 -25 40 0 8 -4 14 -10 14 -21 0 -9 31 16 41 37 14 62 3 161 -65
24 -18 89 -147 98 -199 4 -20 3 -43 -3 -52 -8 -15 -13 -14 -44 14 -22 19 -42
29 -51 25 -9 -3 -26 3 -38 15 -27 25 -49 27 -49 6 0 -18 -5 -19 -33 -3 -33 17
-169 119 -194 145 -12 13 -31 23 -42 23 -11 0 -22 4 -25 9 -4 5 -46 10 -95 10
-87 1 -90 0 -150 -39 -82 -53 -95 -53 -86 3 14 82 61 149 120 170 60 22 113
14 141 -20z m1084 -83 c5 0 10 -8 10 -19 0 -10 7 -24 15 -31 8 -7 15 -25 15
-41 0 -19 5 -29 15 -29 8 0 15 -9 15 -20 0 -11 4 -20 9 -20 5 0 12 -13 16 -29
3 -16 12 -32 20 -34 7 -3 16 -19 20 -35 3 -17 15 -38 25 -47 10 -9 22 -36 25
-58 7 -42 61 -144 95 -182 17 -19 24 -43 21 -72 -2 -25 -54 -13 -97 23 -24 19
-44 39 -44 44 0 15 -72 81 -94 84 -13 2 -20 10 -18 20 2 9 -4 16 -14 16 -9 0
-14 6 -11 14 3 7 -12 36 -34 65 -22 29 -37 56 -34 61 3 5 -3 14 -14 19 -21 12
-60 72 -72 114 -6 22 -1 39 28 90 20 34 46 72 57 85 20 23 20 23 28 2 4 -11
12 -20 18 -20z m-1563 -656 c-3 -3 -12 -4 -19 -1 -8 3 -5 6 6 6 11 1 17 -2 13
-5z m205 -23 c315 -55 567 -133 858 -268 113 -52 262 -146 247 -155 -15 -8
-36 -6 -54 5 -7 5 -18 5 -24 1 -6 -3 30 -46 88 -103 54 -53 125 -126 159 -162
71 -75 132 -124 141 -115 4 4 2 16 -5 26 -7 12 -8 20 -2 20 9 0 -7 49 -21 60
-3 3 -11 20 -17 39 -11 31 -10 32 6 20 22 -17 72 -69 137 -144 148 -171 292
-446 356 -680 37 -139 49 -222 36 -267 l-12 -40 -44 51 c-24 28 -46 63 -47 77
-2 15 -14 39 -28 53 -26 28 -65 106 -66 132 0 15 -53 121 -75 149 -6 8 -17 28
-23 43 -11 27 -11 28 9 22 19 -6 16 2 -21 72 -29 54 -63 98 -112 146 -69 66
-93 81 -82 53 8 -20 -33 -31 -52 -15 -13 10 -17 10 -24 0 -4 -8 -12 -11 -18
-7 -5 3 -20 -3 -32 -14 -27 -23 -36 -20 -22 7 6 12 5 26 -3 40 -11 22 -12 22
-28 2 -18 -21 -23 -54 -7 -44 6 4 7 11 4 17 -4 6 -1 9 7 6 33 -12 -10 -88 -50
-89 -14 0 -35 -5 -46 -10 -19 -9 -18 -9 3 -5 12 2 22 1 22 -4 0 -11 63 -7 73
5 5 6 7 4 4 -5 -2 -8 -16 -16 -30 -18 -16 -2 -27 -10 -27 -18 0 -8 -7 -17 -15
-20 -8 -4 -15 -10 -15 -15 0 -4 7 -6 15 -3 22 9 18 -13 -6 -29 -11 -8 -21 -25
-22 -38 -1 -13 -7 -28 -13 -34 -7 -5 -14 -21 -16 -34 -4 -35 -25 -38 -23 -4 1
16 0 20 -2 10 -3 -10 -11 -21 -19 -24 -8 -3 -14 -11 -14 -19 0 -8 -4 -14 -10
-14 -5 0 -10 5 -10 11 0 8 -6 7 -17 -2 -15 -12 -16 -12 -11 8 3 12 1 24 -6 27
-7 3 -5 9 7 16 9 6 17 19 17 28 -1 15 -2 15 -15 -2 -8 -11 -15 -14 -15 -8 0 7
-7 12 -16 12 -14 0 -14 -3 -4 -15 11 -13 8 -21 -15 -45 -15 -16 -31 -28 -34
-25 -4 2 -7 -5 -7 -16 0 -23 5 -24 21 -2 8 11 19 14 31 9 15 -6 16 -9 4 -16
-8 -5 -18 -7 -22 -4 -4 3 -10 -7 -14 -21 -6 -23 -10 -25 -37 -19 -26 5 -29 4
-23 -11 4 -13 2 -16 -9 -11 -8 3 -15 1 -15 -3 0 -5 -7 -12 -16 -15 -15 -6 -15
-4 0 18 21 33 20 43 -1 24 -24 -21 -83 -29 -90 -12 -2 7 -11 10 -19 7 -8 -3
-11 -10 -7 -16 4 -6 -2 -8 -16 -4 -31 8 -58 -2 -39 -14 10 -7 7 -11 -10 -15
-13 -4 -19 -10 -13 -13 6 -4 2 -12 -9 -19 -11 -7 -20 -8 -20 -2 0 11 -21 5
-67 -18 -24 -12 -35 -13 -45 -4 -10 8 -26 8 -58 1 -24 -6 -60 -7 -80 -4 -28 5
-44 1 -73 -19 -21 -15 -49 -26 -62 -26 -13 0 -25 -5 -27 -11 -2 -6 -17 -9 -33
-7 l-30 3 35 17 c33 16 33 18 10 19 -14 1 -29 1 -33 0 -5 -1 -5 3 -2 9 4 6 14
9 24 5 12 -5 13 -4 4 6 -9 9 -18 9 -40 0 -15 -6 -66 -13 -113 -15 -47 -2 -92
-6 -100 -9 -8 -3 -22 -8 -30 -10 -9 -4 -6 -6 8 -6 12 -1 22 -6 22 -12 0 -7 -7
-8 -17 -3 -10 4 -37 9 -60 12 -42 4 -55 15 -30 25 13 6 -13 10 -75 12 -62 2
-54 13 14 19 136 13 140 14 38 10 -144 -6 -161 -5 -193 7 -21 9 -42 9 -86 -1
-59 -12 -105 -5 -65 11 15 6 12 8 -14 8 -18 1 -41 5 -50 10 -21 10 -113 21
-108 12 4 -5 -31 -6 -96 -2 -10 1 -18 6 -18 12 0 6 11 8 28 5 15 -3 45 -2 67
2 l40 8 -61 7 c-34 3 -92 4 -128 0 -50 -4 -66 -3 -66 7 0 7 -8 10 -20 7 -11
-3 -23 -1 -26 4 -3 5 2 9 11 9 9 0 13 5 10 10 -3 6 -26 10 -51 10 -24 0 -44 5
-44 10 0 6 -13 10 -29 10 -16 0 -36 6 -44 14 -8 8 -32 18 -53 21 -21 4 -58 15
-81 26 -24 10 -50 19 -58 19 -25 0 -76 30 -70 40 4 6 -2 9 -12 8 -39 -3 -51 3
-63 33 -10 22 -18 29 -32 26 -10 -3 -21 -1 -24 4 -3 5 -20 15 -38 23 -43 18
-102 78 -121 122 -8 20 -19 33 -25 29 -11 -7 -28 5 -75 53 -31 32 -55 88 -55
129 0 11 -9 32 -20 46 -32 40 -25 75 32 161 37 57 48 80 39 85 -10 6 -9 10 2
14 9 3 23 21 32 40 18 39 73 95 62 64 -6 -16 -4 -16 23 3 17 12 30 18 30 14 0
-4 11 3 25 16 14 13 23 25 20 28 -8 9 16 43 26 36 6 -3 18 1 27 9 20 18 61 35
105 42 17 4 34 9 37 12 3 3 -5 3 -18 0 -36 -9 -21 14 24 38 21 11 59 27 84 34
25 8 64 22 86 33 23 10 67 23 97 28 31 5 69 16 86 24 16 9 43 16 59 16 15 0
51 6 78 14 27 8 69 15 94 15 73 2 104 6 116 13 6 4 133 6 282 4 227 -3 272 -1
276 11 3 8 2 12 -2 9 -4 -2 -14 -1 -22 5 -25 15 59 11 182 -10z m6128 -555
c52 -28 77 -65 86 -127 5 -39 2 -51 -25 -91 -35 -51 -56 -62 -121 -58 -61 3
-111 43 -128 103 -12 39 -12 49 3 76 8 17 15 37 14 44 -5 40 2 57 24 57 12 0
29 5 37 10 25 16 63 11 110 -14z m-454 -129 c-1 -6 -5 -17 -9 -24 -4 -6 -3
-14 2 -17 11 -7 3 -46 -10 -46 -15 0 -30 39 -23 65 3 14 13 25 21 25 8 0 11 5
7 12 -4 6 -3 8 4 5 5 -4 9 -13 8 -20z m2265 -330 c40 -33 49 -51 56 -117 5
-52 4 -60 -11 -60 -10 0 -21 -12 -27 -29 -6 -16 -18 -31 -27 -33 -31 -8 -37
-10 -61 -20 -28 -10 -76 5 -85 28 -3 8 -11 14 -19 14 -18 0 -47 52 -47 84 0
36 23 88 57 131 28 36 29 36 83 30 33 -4 65 -15 81 -28z m-6616 6 c-11 -3 -32
-17 -47 -31 -16 -14 -28 -22 -28 -17 0 16 54 54 75 53 l20 0 -20 -5z m229 -89
c5 -14 4 -15 -9 -4 -17 14 -19 20 -6 20 5 0 12 -7 15 -16z m5919 -107 c-5 -18
-6 -18 -24 -1 -24 21 -24 52 -2 84 l18 25 7 -45 c3 -25 4 -53 1 -63z m-6243
84 c0 -6 -4 -13 -10 -16 -5 -3 -10 1 -10 9 0 9 5 16 10 16 6 0 10 -4 10 -9z
m0 -41 c0 -5 -7 -10 -15 -10 -9 0 -15 -9 -15 -22 0 -20 -18 -61 -21 -48 -5 28
-4 50 3 50 4 0 8 6 8 14 0 13 13 23 33 25 4 1 7 -3 7 -9z m-200 -210 c0 -5 -4
-10 -10 -10 -5 0 -10 5 -10 10 0 6 5 10 10 10 6 0 10 -4 10 -10z m-54 -25 c-3
-20 -16 -31 -16 -13 0 13 8 28 16 28 1 0 1 -7 0 -15z m-166 -45 c0 -5 -6 -10
-14 -10 -8 0 -21 -3 -30 -6 -9 -3 -16 -1 -16 4 0 9 9 13 53 21 4 0 7 -3 7 -9z
m-108 -32 c-7 -7 -12 -8 -12 -2 0 14 12 26 19 19 2 -3 -1 -11 -7 -17z m-12
-29 c0 -5 -7 -9 -15 -9 -9 0 -12 6 -9 15 6 15 24 11 24 -6z m-1105 1 c8 -13
-15 -13 -35 0 -12 8 -11 10 7 10 12 0 25 -4 28 -10z m1145 -9 c0 -5 -7 -11
-15 -15 -15 -5 -20 5 -8 17 9 10 23 9 23 -2z m-166 -15 c-9 -23 18 -31 33 -11
7 11 13 14 13 8 0 -21 -28 -35 -49 -24 -11 6 -27 8 -35 5 -9 -3 -16 -1 -16 5
0 6 9 11 20 11 11 0 20 5 20 10 0 6 4 10 10 10 5 0 7 -6 4 -14z m-141 -10 c26
-2 47 0 47 5 0 5 7 9 16 9 9 0 14 -6 11 -12 -2 -8 -24 -13 -56 -14 -28 -1 -55
-5 -59 -9 -4 -5 2 -5 13 -1 11 4 16 4 12 0 -4 -4 -33 -8 -66 -8 -46 -1 -58 1
-53 12 7 18 42 32 67 26 11 -2 41 -6 68 -8z m-303 -11 c-14 -16 -60 -21 -60
-6 0 6 15 12 33 14 17 2 34 5 36 5 2 1 -2 -5 -9 -13z m440 -25 c0 -5 -4 -10
-10 -10 -5 0 -10 5 -10 10 0 6 5 10 10 10 6 0 10 -4 10 -10z m-3280 -29 c114
-43 182 -123 194 -227 l5 -42 -39 19 c-22 11 -54 19 -72 19 -26 0 -30 3 -18
10 11 8 9 9 -10 5 -58 -12 -155 -22 -160 -16 -3 4 -32 12 -65 18 -33 6 -73 17
-90 24 -16 7 -36 11 -43 10 -17 -3 -82 49 -82 66 0 8 -5 11 -11 7 -17 -10 -2
46 18 68 19 21 78 49 123 59 60 13 190 3 250 -20z m7263 -6 c57 -44 67 -62 72
-128 3 -44 0 -58 -23 -91 -15 -22 -44 -47 -65 -56 -35 -16 -41 -16 -86 -1 -28
9 -59 29 -74 47 -30 36 -29 47 22 159 54 118 77 129 154 70z m-4503 15 c-8 -5
-19 -10 -25 -10 -5 0 -3 5 5 10 8 5 20 10 25 10 6 0 3 -5 -5 -10z m123 -17
c-7 -2 -19 -2 -25 0 -7 3 -2 5 12 5 14 0 19 -2 13 -5z m34 -189 c-3 -3 -12 -4
-19 -1 -8 3 -5 6 6 6 11 1 17 -2 13 -5z m143 -24 c0 -14 26 -13 50 3 17 10 26
9 50 -5 17 -10 37 -15 45 -12 21 8 65 -4 65 -17 0 -6 -7 -8 -16 -5 -20 8 -65
-3 -59 -15 3 -4 -6 -14 -20 -21 -25 -13 -25 -13 -4 -26 12 -8 18 -9 14 -3 -10
16 19 40 57 47 18 4 42 12 53 19 26 16 67 14 73 -4 3 -10 -2 -12 -20 -8 -18 5
-25 2 -25 -8 0 -17 30 -31 35 -16 2 6 10 11 17 11 7 0 15 5 17 12 5 13 38 4
38 -11 0 -6 -7 -8 -15 -5 -9 4 -15 0 -15 -9 0 -8 -6 -18 -12 -20 -7 -3 -2 -6
10 -6 13 -1 31 8 40 19 l17 21 17 -20 c11 -14 14 -23 6 -27 -5 -4 -14 0 -19 7
-7 11 -9 11 -9 1 0 -19 30 -27 52 -13 14 9 24 9 41 -1 12 -6 33 -12 47 -12 14
-1 24 -6 23 -12 -1 -7 7 -14 17 -17 11 -3 18 -1 14 4 -3 5 -1 9 5 9 5 0 13 -8
16 -17 9 -26 93 -93 204 -166 21 -13 39 -36 46 -57 7 -19 19 -36 29 -38 9 -2
14 -8 11 -13 -4 -5 -2 -9 4 -9 22 0 19 18 -6 29 -32 14 -25 24 11 15 17 -4 28
-15 32 -33 10 -38 36 -81 51 -81 7 0 13 -7 13 -16 0 -8 -4 -12 -10 -9 -21 13
-9 -12 16 -36 l27 -24 -13 25 c-7 14 -9 22 -5 18 5 -4 15 -2 22 4 12 9 14 9
12 -3 -3 -20 11 -49 25 -49 14 0 69 -61 61 -68 -3 -3 -19 7 -35 23 -16 16 -32
26 -35 24 -7 -8 25 -50 34 -45 4 3 21 -8 36 -24 16 -17 23 -30 17 -30 -7 0
-12 -10 -12 -22 1 -22 1 -22 12 -3 11 19 11 19 19 0 7 -20 8 -20 8 0 1 17 3
17 11 5 13 -21 12 -43 -1 -34 -12 7 -10 -19 6 -61 5 -16 5 -17 -4 -5 -8 12
-10 7 -7 -20 4 -36 15 -71 25 -80 20 -17 35 -84 35 -152 -1 -62 2 -74 11 -61
8 11 14 13 19 5 4 -7 2 -12 -3 -12 -6 0 -11 -9 -11 -21 0 -11 -3 -18 -7 -16
-5 3 -9 -16 -9 -41 -2 -42 0 -44 12 -27 8 10 14 23 14 28 0 4 5 5 10 2 8 -5 8
-11 0 -20 -6 -7 -8 -25 -4 -39 4 -16 2 -26 -5 -26 -6 0 -11 5 -11 12 0 6 -2 9
-5 6 -3 -3 1 -21 9 -40 15 -35 12 -78 -5 -78 -5 0 -10 -15 -10 -32 -1 -23 -3
-26 -6 -11 -5 28 -33 19 -32 -11 0 -20 1 -21 10 -1 6 14 8 4 6 -38 -3 -37 0
-53 6 -45 6 9 7 8 3 -5 -3 -10 -6 -23 -6 -28 0 -6 -4 -8 -9 -5 -12 8 -22 -20
-15 -41 5 -17 5 -17 -8 -1 -13 15 -15 15 -26 -3 -17 -27 -15 -37 3 -13 13 17
14 17 15 2 0 -23 -31 -59 -43 -51 -6 4 -7 -4 -3 -21 8 -34 -2 -76 -20 -76 -12
0 -19 -18 -16 -42 1 -3 -5 -11 -13 -18 -7 -6 -12 -17 -9 -25 3 -7 1 -16 -5
-20 -6 -3 -11 -13 -11 -21 0 -10 5 -12 13 -8 8 5 8 2 -2 -9 -14 -18 -36 -24
-26 -7 3 6 1 10 -4 10 -10 0 -15 -14 -12 -33 1 -5 -8 -20 -19 -34 -15 -20 -20
-22 -20 -9 0 10 -4 14 -10 11 -5 -3 -10 -15 -10 -26 0 -13 4 -18 12 -13 7 4 8
3 4 -5 -4 -6 -12 -8 -18 -5 -7 5 -9 2 -6 -8 4 -8 2 -21 -4 -29 -7 -10 -8 -3
-4 24 3 27 1 37 -7 34 -7 -2 -13 -13 -15 -25 -2 -16 -10 -22 -28 -22 -15 0
-24 -6 -24 -15 0 -8 -5 -15 -11 -15 -6 0 -9 7 -5 15 3 8 2 15 -2 15 -9 0 -36
-69 -29 -76 2 -2 16 5 30 17 21 16 27 17 27 6 0 -9 6 -18 13 -21 6 -3 0 -4
-14 -1 -18 3 -32 -2 -44 -15 -10 -11 -27 -20 -37 -20 -17 0 -18 1 -2 25 9 14
14 28 12 31 -7 6 -78 -35 -78 -46 0 -4 17 -11 37 -15 26 -5 33 -9 23 -15 -9
-6 -17 -4 -22 3 -6 9 -8 9 -8 0 0 -7 -7 -10 -15 -7 -8 4 -27 3 -41 0 -20 -5
-24 -10 -15 -19 8 -8 14 -8 23 1 18 18 27 15 21 -8 -4 -16 -11 -18 -32 -13
-14 3 -30 11 -34 17 -5 6 -5 1 -2 -11 4 -16 2 -23 -7 -23 -11 0 -11 -2 0 -9
10 -6 7 -12 -13 -25 -26 -17 -26 -17 -19 10 l7 26 -25 -24 c-13 -12 -22 -29
-20 -35 2 -7 -3 -13 -12 -13 -9 0 -16 -5 -16 -11 0 -5 -4 -7 -10 -4 -5 3 -10
1 -10 -4 0 -6 -5 -11 -10 -11 -6 0 -5 8 2 20 7 11 19 20 26 20 8 0 12 6 9 13
-2 6 4 27 14 45 10 17 15 32 10 32 -4 0 -13 -11 -19 -25 -7 -15 -20 -25 -32
-25 -13 0 -20 -7 -20 -20 0 -11 -5 -20 -11 -20 -5 0 -7 6 -3 13 6 10 4 10 -7
0 -16 -15 -39 -17 -39 -3 0 5 8 7 18 4 16 -5 16 -5 -1 9 -23 19 -57 11 -83
-22 -18 -21 -24 -23 -37 -13 -9 8 -18 9 -21 3 -9 -15 31 -24 53 -12 11 6 39
11 63 10 24 0 36 -3 28 -6 -8 -3 -21 -12 -27 -21 -14 -17 -82 -19 -113 -2 -11
6 -21 6 -24 1 -7 -11 -46 -3 -46 9 0 5 6 10 13 13 6 2 3 2 -8 0 -56 -13 -77
-15 -72 -7 3 5 -20 10 -51 11 -59 1 -53 -10 12 -21 29 -6 36 -10 27 -19 -9 -9
-14 -9 -20 2 -5 8 -29 14 -65 15 -30 0 -51 3 -45 4 17 6 -11 32 -35 32 -17 0
-18 2 -6 10 11 7 1 10 -35 9 -49 0 -50 0 -20 -13 19 -8 25 -15 18 -19 -15 -9
-83 18 -83 32 0 16 -41 13 -60 -4 -21 -19 -56 -10 -40 10 9 10 3 15 -22 20
-40 9 -108 42 -108 53 0 4 -16 14 -35 21 -20 7 -41 21 -48 32 -6 10 -21 19
-32 20 -11 0 -14 3 -7 6 6 2 12 9 12 14 0 12 -72 47 -87 42 -13 -5 -61 64 -83
118 l-13 31 -13 -24 c-12 -22 -13 -22 -19 -3 -4 11 -19 44 -33 73 -15 29 -35
69 -45 89 -10 20 -25 42 -32 49 -11 12 -14 11 -18 -4 -3 -12 -5 -9 -6 8 -1 14
-8 36 -16 50 -8 14 -15 43 -16 65 -1 24 -3 31 -6 18 -7 -38 -21 -26 -28 25
-10 74 -13 80 -14 32 -3 -62 -16 -26 -24 65 -6 63 -5 68 8 51 14 -19 15 -19
15 5 0 26 -21 79 -31 79 -3 0 -3 -15 -1 -32 3 -18 1 -30 -3 -26 -4 4 -18 -5
-31 -20 l-24 -27 7 30 c5 17 8 53 8 82 0 28 3 49 6 48 3 -2 6 31 6 73 1 87 11
162 23 162 4 0 11 7 14 16 3 9 2 12 -5 8 -7 -4 -9 5 -7 27 2 25 -1 34 -12 34
-8 0 -17 11 -18 25 -2 14 -9 31 -15 39 -9 11 -9 15 -1 18 7 2 10 14 7 26 -4
18 -3 19 6 7 9 -13 11 -13 11 2 0 9 3 19 8 21 4 3 6 -20 4 -51 -2 -39 0 -52 7
-43 5 8 7 20 4 28 -3 7 0 13 6 13 6 0 11 -9 11 -21 0 -12 4 -17 11 -13 6 3 9
15 6 25 -3 11 -1 19 4 19 5 0 9 11 9 25 0 18 -4 23 -15 19 -8 -4 -15 -2 -15 4
0 6 -3 17 -6 25 -3 8 2 17 11 21 13 5 15 1 10 -15 -5 -15 -4 -19 4 -15 6 4 11
15 11 24 0 10 8 29 17 42 l17 25 -24 -15 c-14 -9 -38 -22 -55 -29 -29 -12 -29
-12 -12 6 9 11 17 27 17 37 0 9 11 22 25 28 27 12 33 33 13 41 -10 4 -10 6 -1
6 6 1 15 -4 18 -9 12 -19 83 51 85 83 0 14 -21 7 -27 -10 -12 -34 -44 -45 -36
-13 3 11 9 20 14 20 5 0 9 9 9 20 0 10 8 23 17 29 10 5 18 17 18 27 0 9 5 19
11 21 7 2 12 -2 11 -9 -1 -29 3 -48 11 -48 4 0 7 24 7 53 -2 50 7 77 26 77 5
0 9 -8 10 -17 0 -10 11 6 25 35 19 39 33 56 55 64 16 5 29 14 29 19 0 17 34
49 52 49 10 0 18 5 18 11 0 6 -7 9 -15 5 -25 -9 -17 10 10 24 27 15 35 36 9
26 -10 -4 -14 -1 -12 6 3 7 18 14 34 16 38 5 52 18 35 35 -11 10 -12 9 -6 -2
5 -9 4 -12 -3 -7 -20 12 -13 24 12 24 19 0 24 -5 20 -22 -2 -11 -15 -31 -29
-43 -20 -18 -22 -23 -9 -23 13 0 14 -3 4 -15 -7 -8 -18 -15 -24 -15 -6 0 -19
-14 -28 -30 -9 -17 -15 -30 -13 -30 16 0 35 15 35 29 0 9 13 22 31 28 24 10
30 17 26 32 -3 11 -2 20 2 19 14 -4 80 26 70 33 -6 3 5 15 25 27 23 14 34 26
30 36 -3 7 0 17 7 22 8 5 10 3 4 -7 -6 -11 -5 -11 5 -2 7 6 27 9 46 6 31 -5
34 -4 34 21 0 14 4 26 10 26 5 0 7 -6 4 -14 -3 -8 0 -17 6 -21 13 -8 41 25 35
42 -2 6 6 13 18 15 23 4 100 -21 105 -34 6 -13 47 -9 68 7 10 8 29 15 42 15
12 0 22 4 22 10 0 14 -51 25 -59 12 -3 -6 -28 -12 -54 -14 -42 -4 -47 -3 -42
14 5 14 2 16 -11 11 -12 -4 -15 -3 -10 5 9 15 56 16 56 2z m-215 -28 c-3 -3
-11 0 -18 7 -9 10 -8 11 6 5 10 -3 15 -9 12 -12z m-5 -30 c-5 -2 -6 -10 -3
-18 3 -8 0 -14 -6 -14 -6 0 -11 5 -11 10 0 6 -9 10 -21 10 -11 0 -17 4 -14 10
4 6 16 8 28 4 20 -6 20 -6 4 10 -25 25 -21 30 7 9 13 -10 20 -19 16 -21z
m-2800 -13 c0 -5 8 -9 18 -9 10 0 33 -16 52 -35 19 -19 41 -35 51 -35 29 0 41
-26 34 -72 -14 -93 -72 -234 -100 -244 -8 -3 -27 1 -42 9 -44 23 -96 37 -118
32 -12 -3 -32 5 -50 20 -17 14 -24 25 -16 25 11 0 9 6 -5 23 -41 45 -54 75
-48 107 4 17 11 33 15 36 5 3 7 9 4 14 -3 5 1 21 10 34 9 14 13 31 9 37 -4 8
-3 9 4 5 8 -4 16 3 22 18 5 14 12 26 15 26 4 0 3 -4 0 -10 -10 -16 1 -12 38
13 25 17 44 22 71 19 20 -2 36 -8 36 -13z m2730 7 c0 -2 -7 -7 -16 -10 -8 -3
-12 -2 -9 4 6 10 25 14 25 6z m730 -6 c0 -5 -2 -10 -4 -10 -3 0 -8 5 -11 10
-3 6 -1 10 4 10 6 0 11 -4 11 -10z m-800 -15 c-7 -8 -17 -15 -22 -15 -6 0 -5
7 2 15 7 8 17 15 22 15 6 0 5 -7 -2 -15z m-3167 -18 c4 -7 5 -30 2 -52 -3 -22
-7 -56 -9 -75 -3 -19 -10 -56 -17 -83 -11 -42 -10 -53 8 -100 53 -138 55 -161
12 -198 -27 -23 -36 -26 -63 -18 -49 13 -100 78 -116 146 -7 32 -17 65 -21 74
-10 21 -11 115 -2 159 12 52 48 114 84 145 28 23 39 26 73 21 22 -4 44 -12 49
-19z m3127 -12 c7 -9 8 -15 2 -15 -5 0 -12 7 -16 15 -3 8 -4 15 -2 15 2 0 9
-7 16 -15z m-160 -105 c-8 -5 -22 -10 -30 -10 -13 0 -13 1 0 10 8 5 22 10 30
10 13 0 13 -1 0 -10z m1295 -11 c12 -19 -5 -23 -22 -6 -16 16 -16 17 -1 17 9
0 20 -5 23 -11z m-1344 -72 c-6 -8 -8 -17 -4 -20 3 -4 1 -7 -5 -7 -13 0 -16
22 -5 33 12 13 25 7 14 -6z m-41 -27 c0 -5 -4 -10 -10 -10 -5 0 -10 5 -10 10
0 6 5 10 10 10 6 0 10 -4 10 -10z m-2010 -52 c0 -5 -11 -1 -25 8 -14 9 -22 20
-19 26 6 10 44 -19 44 -34z m5339 -36 c-5 -34 -11 -75 -14 -90 -9 -47 -13 -72
-45 -267 -16 -104 -37 -230 -45 -280 -19 -114 -43 -284 -51 -355 -3 -30 -9
-80 -14 -110 -29 -176 -71 -679 -91 -1089 -15 -319 -6 -1212 15 -1526 54 -773
146 -1463 297 -2220 47 -234 67 -355 57 -355 -4 0 -8 2 -8 4 0 2 -15 48 -34
102 -100 288 -222 805 -301 1274 -178 1059 -220 2122 -124 3155 11 121 22 231
24 245 2 14 9 68 15 120 42 373 133 847 231 1205 30 110 38 134 60 190 15 37
16 41 18 62 1 10 4 13 10 8 5 -6 5 -36 0 -73z m-5449 54 c0 -7 9 -25 20 -39
11 -14 21 -39 23 -56 7 -59 16 -43 12 23 -1 36 1 66 6 66 5 0 9 -7 9 -15 0 -8
5 -15 11 -15 6 0 8 -9 4 -22 -5 -21 -5 -21 8 -6 15 19 35 11 40 -17 1 -11 6
-26 11 -33 4 -7 5 -21 1 -30 -13 -33 -16 -112 -4 -112 6 0 9 7 5 15 -3 8 -1
15 5 15 7 0 8 12 4 30 -6 25 -4 29 10 24 9 -4 14 -12 12 -18 -15 -38 -17 -55
-8 -61 6 -3 8 0 5 8 -3 8 -1 18 5 22 7 4 11 -9 10 -37 0 -33 -2 -38 -9 -23 -8
18 -9 17 -9 -8 -1 -16 -6 -38 -12 -49 -10 -18 -9 -20 6 -15 9 4 21 7 26 7 6 0
8 4 4 9 -3 5 -1 12 4 15 13 8 20 -16 10 -39 -4 -11 -8 -14 -8 -7 -1 6 -5 12
-11 12 -5 0 -10 -18 -10 -41 0 -26 4 -38 11 -33 6 3 4 -8 -5 -24 -17 -32 -22
-57 -7 -34 7 11 9 11 14 -2 4 -9 2 -16 -3 -16 -6 0 -10 -6 -10 -14 0 -8 -4
-16 -10 -18 -5 -1 -12 -20 -15 -42 -5 -28 -3 -36 5 -31 6 4 10 15 7 24 -2 9 3
23 11 31 13 12 14 10 9 -13 -4 -15 -9 -39 -12 -54 l-5 -28 11 25 c10 21 13 22
16 7 3 -10 0 -32 -6 -50 -8 -21 -8 -33 -1 -35 12 -4 14 -32 2 -32 -5 0 -14 18
-21 40 -14 49 -37 44 -38 -8 0 -20 -3 -55 -6 -77 l-7 -40 20 35 c10 19 19 29
20 21 0 -8 6 -11 15 -7 13 5 13 1 -1 -25 -9 -17 -13 -41 -10 -52 4 -15 -6 -31
-34 -58 -22 -21 -42 -34 -45 -29 -4 6 -11 10 -17 10 -5 0 0 -8 12 -18 22 -18
22 -19 5 -45 -9 -15 -21 -27 -25 -27 -4 0 -10 -21 -13 -47 -2 -27 -8 -57 -13
-68 -7 -18 -6 -18 9 -6 15 12 17 10 17 -22 0 -38 -16 -59 -22 -30 -3 11 -6 7
-9 -12 -3 -17 -2 -41 2 -55 7 -25 7 -25 8 3 1 16 5 26 11 22 6 -3 10 0 10 7 0
7 9 19 20 26 17 10 19 20 16 59 -3 26 -1 50 3 53 5 3 12 15 15 28 5 16 4 22
-6 20 -8 -2 -13 7 -14 25 -1 15 1 25 4 22 3 -3 11 0 17 5 20 16 27 -78 9 -113
-10 -18 -13 -40 -8 -65 4 -20 3 -34 -1 -30 -13 12 -44 -37 -46 -73 -2 -19 -10
-42 -18 -52 -15 -18 -16 -18 -21 4 -5 22 -6 22 -17 -4 -10 -21 -10 -26 0 -24
8 1 11 -11 9 -40 -3 -33 0 -43 11 -43 12 0 13 -7 7 -32 -4 -18 -11 -41 -15
-50 -13 -32 6 -19 21 15 l15 32 -6 -43 c-3 -25 -2 -41 4 -38 11 7 21 -17 20
-47 l0 -22 -11 23 c-6 12 -15 22 -19 22 -10 0 -23 -40 -15 -47 3 -4 6 1 6 10
0 9 4 17 9 17 5 0 7 -17 4 -39 -3 -23 -1 -41 6 -45 7 -5 11 1 11 15 0 12 3 20
6 17 3 -3 2 -23 -2 -44 -4 -22 -9 -33 -11 -26 -9 24 -23 11 -23 -20 0 -24 3
-29 9 -19 6 10 8 0 4 -27 -4 -28 -2 -42 6 -42 6 0 11 5 11 11 0 5 5 7 12 3 9
-6 9 -9 0 -12 -14 -4 -17 -72 -3 -72 4 0 7 -12 4 -27 l-3 -28 11 25 c11 24 12
23 27 -30 8 -30 15 -80 16 -110 0 -30 5 -58 10 -62 6 -4 3 -10 -8 -14 -11 -4
-22 -1 -28 7 -8 11 -9 10 -4 -3 3 -10 1 -20 -5 -24 -6 -4 -4 -15 6 -30 10 -16
13 -33 9 -47 -6 -20 -4 -19 15 5 25 31 27 50 5 46 -10 -2 -19 4 -21 12 -4 13
-3 13 6 0 9 -13 11 -13 11 3 0 9 2 17 4 17 2 0 11 3 20 6 11 4 16 0 16 -13 0
-10 6 -27 13 -38 8 -11 17 -31 20 -45 l6 -25 -19 25 c-14 18 -20 21 -21 10 -1
-8 -3 -28 -5 -43 -2 -22 1 -27 11 -23 11 4 14 -4 13 -32 0 -20 -5 -48 -10 -61
-7 -21 -7 -22 7 -11 8 7 15 19 15 26 0 8 4 14 8 14 4 0 8 -16 8 -35 0 -19 -3
-35 -8 -35 -4 0 -5 -7 -2 -15 4 -8 -1 -26 -9 -39 -13 -19 -14 -37 -9 -87 5
-41 12 -63 20 -62 6 2 14 -9 17 -25 3 -15 11 -38 18 -52 11 -21 10 -30 -8 -57
-11 -18 -27 -33 -35 -33 -11 -1 -12 -3 -2 -7 10 -4 7 -10 -10 -21 -13 -9 -27
-16 -32 -14 -5 2 -5 -5 -1 -15 5 -10 8 -32 7 -50 -1 -18 3 -35 9 -38 13 -9 -8
-34 -38 -46 -13 -5 -23 -15 -23 -24 0 -8 -4 -15 -10 -15 -5 0 -10 7 -10 15 0
8 5 15 11 15 6 0 8 7 5 16 -4 11 -2 15 8 11 7 -3 19 0 25 6 15 15 14 24 -4 24
-8 0 -15 -4 -15 -9 0 -4 -6 -8 -13 -8 -7 0 -21 -16 -31 -35 -11 -19 -23 -35
-27 -35 -4 0 -5 -9 -2 -21 4 -15 0 -22 -16 -26 -11 -3 -18 -9 -16 -14 3 -4 -4
-13 -16 -19 -12 -7 -19 -8 -15 -2 3 5 -6 13 -22 17 -26 6 -26 7 -8 21 11 8 32
14 47 14 32 0 41 10 28 30 -7 13 -9 12 -9 -2 0 -11 -6 -15 -20 -11 -12 3 -29
-2 -40 -12 -13 -11 -25 -15 -37 -10 -30 13 -53 15 -53 5 0 -6 9 -10 20 -10 22
0 25 -7 11 -28 -7 -11 -11 -11 -23 2 -12 11 -24 13 -52 6 -21 -4 -41 -11 -44
-15 -4 -4 4 -4 18 -1 19 6 21 5 10 -3 -8 -6 -33 -11 -55 -11 -32 1 -37 3 -22
11 9 5 21 8 26 4 5 -3 12 4 16 15 3 11 14 20 23 21 14 0 14 2 2 6 -8 3 -18 10
-21 15 -3 4 -20 5 -37 2 -32 -6 -32 -7 -17 -30 13 -21 13 -24 1 -24 -8 0 -18
4 -21 10 -3 5 -30 17 -60 25 -43 13 -55 21 -63 45 -6 15 -19 31 -29 34 -10 4
-31 24 -47 46 -18 24 -33 36 -37 29 -10 -17 -51 9 -47 29 3 12 -15 28 -54 52
-69 42 -135 118 -144 165 -5 30 -34 71 -34 49 0 -27 -52 74 -64 124 -7 32 -18
68 -25 80 -6 11 -12 38 -12 59 -1 37 -2 37 -8 8 -9 -41 -18 -22 -26 58 -4 37
-11 70 -16 73 -5 3 -9 1 -9 -5 0 -6 -7 -8 -16 -4 -11 4 -15 15 -12 34 3 15 1
26 -3 24 -4 -3 -10 21 -14 53 -4 31 -10 62 -15 67 -11 16 -19 56 -9 49 5 -3 9
-13 10 -22 0 -9 3 -12 5 -6 3 6 -2 23 -10 38 -9 17 -16 22 -18 14 -3 -7 -8 21
-11 62 -12 144 -16 165 -31 202 -18 42 -21 94 -6 103 6 3 10 -2 10 -11 0 -10
3 -15 6 -11 9 9 -6 97 -16 97 -5 0 -11 -8 -13 -17 -10 -37 -5 54 5 95 8 32 8
46 -1 55 -8 8 -11 6 -11 -11 0 -12 -4 -22 -10 -22 -5 0 -10 -7 -10 -17 0 -9
-3 -14 -6 -10 -4 3 0 26 7 51 7 25 16 41 20 35 3 -6 9 1 11 16 3 16 0 32 -9
41 -8 8 -16 30 -17 48 -3 27 0 33 12 28 12 -4 14 1 10 23 -10 52 11 249 29
265 12 11 14 12 8 1 -9 -16 -15 -50 -16 -104 -2 -48 10 -62 13 -16 3 49 6 83
8 89 1 3 3 35 5 72 4 95 24 124 26 38 l1 -65 9 44 c5 25 13 47 19 51 5 3 10
26 9 51 0 77 6 123 24 158 9 19 17 40 17 48 0 7 4 13 10 13 5 0 9 10 7 21 -1
12 4 24 12 27 10 3 11 -2 6 -19 -5 -18 -2 -16 14 9 25 38 27 49 6 32 -12 -10
-15 -10 -15 4 0 9 6 16 14 16 11 0 14 10 11 38 -3 20 -2 29 1 19 5 -17 7 -17
24 3 18 21 20 21 44 4 19 -12 36 -15 64 -10 69 13 137 12 166 -2 37 -18 80 -7
190 51 59 31 103 65 167 130 49 48 96 103 105 122 9 19 22 35 30 35 8 0 11 6
8 15 -4 10 0 15 14 15 16 0 19 5 14 23 -5 20 -4 21 11 8 12 -9 17 -10 17 -2 0
14 21 40 33 41 4 0 7 -6 7 -14z m50 -40 c0 -5 -9 -1 -19 8 -11 10 -17 25 -14
33 5 12 9 10 19 -8 7 -13 13 -28 14 -33z m2054 -2 c4 -11 1 -14 -11 -12 -9 2
-18 9 -21 16 -6 18 25 15 32 -4z m-60 -68 c-3 -8 -12 -17 -20 -20 -8 -3 -14
-12 -14 -21 0 -8 -3 -15 -7 -15 -5 0 -8 14 -8 30 0 20 4 29 13 25 6 -2 12 0
12 5 0 6 7 10 15 10 8 0 12 -6 9 -14z m5932 -50 c-34 -35 -66 -72 -73 -82 -10
-16 -12 -16 -12 -3 -1 25 60 110 93 130 56 34 53 20 -8 -45z m-7774 24 l-9
-24 -5 22 c-4 12 -2 20 3 16 5 -3 9 0 9 7 0 7 2 10 5 7 3 -3 2 -16 -3 -28z
m3605 -32 c-6 -4 -15 -2 -19 5 -14 21 -9 28 12 15 13 -9 16 -14 7 -20z m-3577
-102 c0 -26 -6 -18 -14 19 -5 22 -4 26 4 15 5 -8 10 -24 10 -34z m1691 -10
c-12 -12 -21 -31 -22 -42 0 -11 -3 -14 -6 -6 -6 16 16 72 28 72 5 0 10 8 10
18 1 15 2 15 6 -1 3 -11 -4 -29 -16 -41z m5899 -45 c0 -4 -5 -22 -11 -40 -11
-32 -33 -41 -42 -17 -4 9 -14 12 -26 9 -12 -3 -21 -1 -21 6 0 11 13 15 38 12
6 -1 12 5 12 13 0 14 14 24 38 25 6 1 12 -3 12 -8z m93 -8 c3 -10 3 -36 1 -58
-18 -210 10 -440 67 -556 4 -9 11 -34 15 -55 3 -22 11 -45 16 -51 6 -7 8 -19
5 -27 -4 -9 2 -17 14 -21 13 -4 19 -15 19 -36 0 -20 5 -29 16 -29 13 0 14 -3
4 -15 -11 -13 -15 -12 -31 9 -22 28 -24 42 -6 50 6 3 2 3 -10 0 -17 -4 -23 -1
-23 12 0 9 -10 31 -22 48 -13 17 -35 56 -50 86 -81 166 -102 254 -96 419 3
112 7 132 31 184 28 59 42 70 50 40z m-7678 -43 c3 -5 1 -10 -4 -10 -6 0 -11
5 -11 10 0 6 2 10 4 10 3 0 8 -4 11 -10z m-1155 -70 c0 -5 -5 -10 -11 -10 -5
0 -7 5 -4 10 3 6 8 10 11 10 2 0 4 -4 4 -10z m1187 -12 c-3 -8 -6 -5 -6 6 -1
11 2 17 5 13 3 -3 4 -12 1 -19z m1573 -14 c0 -3 -7 -12 -15 -20 -16 -17 -18
-14 -9 10 6 15 24 23 24 10z m2160 -21 c0 -5 -5 -15 -10 -23 -8 -12 -10 -11
-10 8 0 12 5 22 10 22 6 0 10 -3 10 -7z m-3774 -30 c-10 -10 -19 5 -10 18 6
11 8 11 12 0 2 -7 1 -15 -2 -18z m3784 -34 c0 -6 -4 -7 -10 -4 -5 3 -10 11
-10 16 0 6 5 7 10 4 6 -3 10 -11 10 -16z m7833 1 c38 -23 87 -86 87 -113 0
-21 -31 -99 -45 -113 -20 -20 -73 -44 -99 -44 -75 0 -145 82 -133 155 8 49 52
108 90 122 46 17 62 16 100 -7z m-11610 -40 c-8 -31 -23 -34 -23 -6 0 16 6 26
14 26 9 0 12 -7 9 -20z m1607 -24 c0 -16 -18 -31 -27 -22 -8 8 5 36 17 36 5 0
10 -6 10 -14z m9570 -91 c4 -52 2 -57 -19 -46 -18 10 -19 35 -5 80 7 22 22 0
24 -34z m-9554 22 c16 6 19 -13 4 -22 -5 -3 -10 -17 -10 -30 0 -13 -4 -27 -10
-30 -5 -3 -10 3 -10 13 0 11 -3 35 -6 53 -5 27 -4 32 6 22 7 -6 19 -9 26 -6z
m-1631 -57 c-4 -12 -9 -19 -12 -17 -3 3 -2 15 2 27 4 12 9 19 12 17 3 -3 2
-15 -2 -27z m1585 -10 c0 -11 -4 -20 -10 -20 -5 0 -10 9 -10 20 0 11 5 20 10
20 6 0 10 -9 10 -20z m-2850 -20 c0 -5 -5 -10 -11 -10 -5 0 -7 5 -4 10 3 6 8
10 11 10 2 0 4 -4 4 -10z m1241 -63 c-10 -9 -11 -8 -5 6 3 10 9 15 12 12 3 -3
0 -11 -7 -18z m-51 -113 c0 -22 -2 -25 -15 -14 -12 10 -13 16 -4 26 16 20 19
18 19 -12z m3872 -216 c-8 -8 -9 -4 -5 13 4 13 8 18 11 10 2 -7 -1 -18 -6 -23z
m4072 -69 c-9 -15 -20 -10 -20 10 0 15 3 17 13 9 7 -6 10 -14 7 -19z m-7984 2
c0 -6 -4 -13 -10 -16 -5 -3 -10 1 -10 9 0 9 5 16 10 16 6 0 10 -4 10 -9z
m11304 -173 c-89 -93 -151 -173 -336 -438 -24 -36 -99 -141 -165 -235 -66 -93
-189 -269 -275 -390 -85 -121 -174 -247 -197 -280 -464 -654 -633 -910 -613
-929 3 -4 0 -11 -7 -15 -7 -5 -15 -29 -17 -55 -2 -25 -9 -56 -16 -69 -10 -16
-13 -77 -12 -222 1 -208 6 -240 72 -452 6 -18 9 -33 7 -33 -12 0 -67 142 -91
235 -38 149 -41 337 -6 462 12 45 22 105 22 133 0 31 8 68 20 92 11 23 20 45
20 50 0 4 16 30 35 57 19 26 35 53 35 59 0 6 10 18 22 26 12 9 19 16 16 16 -4
0 3 11 16 25 12 13 29 43 36 65 8 23 22 46 33 51 10 6 16 17 13 24 -2 7 2 19
10 25 8 7 14 19 14 26 0 8 6 14 14 14 8 0 17 3 19 8 6 9 -46 8 -61 -2 -7 -4
-12 -2 -12 3 0 6 4 11 9 11 5 0 5 16 0 38 -9 42 10 82 39 81 14 0 14 -2 -3 -9
-15 -6 -16 -9 -4 -9 20 -1 18 -39 -2 -52 -9 -5 -10 -9 -2 -9 6 0 14 4 18 10 3
5 12 7 21 3 23 -8 -19 -35 -43 -27 -17 7 -17 6 0 -12 17 -18 19 -18 31 -1 27
36 42 10 22 -36 -31 -69 59 47 230 295 21 31 81 116 133 190 52 73 109 153
126 178 18 25 114 162 215 305 101 143 239 339 307 436 146 209 268 358 320
393 21 14 40 26 43 26 2 0 -23 -28 -56 -62z m-11337 -10 c-3 -7 -5 -2 -5 12 0
14 2 19 5 13 2 -7 2 -19 0 -25z m1958 -28 c-3 -5 -1 -10 5 -10 7 0 10 -7 6
-15 -3 -8 -1 -15 4 -15 5 0 7 -8 3 -17 -3 -10 -2 -15 2 -10 5 4 15 -7 22 -24
16 -39 9 -52 -8 -15 -7 14 -16 26 -20 26 -10 0 -30 70 -23 82 3 4 7 8 10 8 3
0 2 -4 -1 -10z m1791 -206 c-4 -9 -9 -15 -11 -12 -3 3 -3 13 1 22 4 9 9 15 11
12 3 -3 3 -13 -1 -22z m-4926 -88 c0 -39 -6 -31 -14 19 -5 29 -4 36 3 25 6 -8
11 -28 11 -44z m4790 10 c0 -3 -4 -8 -10 -11 -5 -3 -10 -1 -10 4 0 6 5 11 10
11 6 0 10 -2 10 -4z m-3590 -28 c0 -19 -2 -20 -10 -8 -13 19 -13 30 0 30 6 0
10 -10 10 -22z m32 -90 c-9 -9 -12 -4 -11 23 0 32 1 33 11 11 8 -17 8 -26 0
-34z m3536 30 c-2 -6 -10 -14 -16 -16 -7 -2 -10 2 -6 12 7 18 28 22 22 4z
m-58 -43 c-7 -9 -15 -13 -18 -10 -3 2 1 11 8 20 7 9 15 13 18 10 3 -2 -1 -11
-8 -20z m-3501 -9 c10 -12 8 -13 -8 -9 -12 3 -21 9 -21 14 0 14 16 11 29 -5z
m3451 -5 c0 -5 -7 -12 -16 -15 -14 -5 -15 -4 -4 9 14 17 20 19 20 6z m30 -15
c0 -3 -4 -8 -10 -11 -5 -3 -10 -1 -10 4 0 6 5 11 10 11 6 0 10 -2 10 -4z m-92
-23 c-2 -9 -8 -18 -15 -20 -7 -3 -9 3 -6 16 6 25 26 28 21 4z m-3349 -20 c0
-25 -1 -26 -9 -8 -12 27 -12 35 0 35 6 0 10 -12 9 -27z m3383 10 c-6 -2 -10
-9 -6 -14 3 -5 -2 -9 -12 -9 -13 0 -14 3 -4 15 7 8 18 15 24 14 7 0 6 -2 -2
-6z m-878 -48 c-4 -8 -10 -12 -15 -9 -11 6 -2 24 11 24 5 0 7 -7 4 -15z m796
2 c0 -1 -10 -11 -22 -21 -17 -15 -20 -15 -15 -3 4 10 -1 17 -11 20 -9 3 -2 5
16 6 17 0 32 0 32 -2z m-765 -27 c3 -5 1 -10 -4 -10 -6 0 -11 5 -11 10 0 6 2
10 4 10 3 0 8 -4 11 -10z m141 2 c-2 -4 -19 -8 -38 -9 -27 -2 -29 0 -13 7 25
11 58 12 51 2z m252 -37 c1 -1 -9 -7 -24 -13 -18 -9 -23 -9 -18 -1 4 8 -4 9
-27 4 -34 -6 -34 -6 -9 8 20 12 64 13 78 2z m212 5 c-20 -13 -43 -13 -35 0 3
6 16 10 28 10 18 0 19 -2 7 -10z m-3110 -74 c0 -3 -4 -8 -10 -11 -5 -3 -10 -1
-10 4 0 6 5 11 10 11 6 0 10 -2 10 -4z m14144 -116 c34 -116 109 -426 140
-585 233 -1190 256 -2464 65 -3555 -33 -190 -96 -470 -109 -484 -11 -12 -4 85
25 314 48 389 77 738 96 1150 13 292 7 994 -11 1270 -18 291 -66 790 -90 950
-5 36 -19 133 -30 215 -23 170 -60 397 -96 595 -45 247 -41 300 10 130z
m-14129 80 c3 -5 1 -10 -4 -10 -6 0 -11 5 -11 10 0 6 2 10 4 10 3 0 8 -4 11
-10z m31 -150 c0 -11 -4 -20 -8 -20 -10 0 -11 24 -1 33 9 9 9 10 9 -13z m24
-61 c0 -6 -4 -7 -10 -4 -5 3 -10 11 -10 16 0 6 5 7 10 4 6 -3 10 -11 10 -16z
m12788 -175 c321 -1134 396 -2516 201 -3679 -47 -280 -129 -633 -129 -554 0 8
13 109 29 224 96 689 121 1055 116 1710 -4 534 -22 814 -86 1325 -37 301 -131
858 -179 1067 -6 23 -10 50 -10 60 1 35 18 -10 58 -153z m-12782 59 c-9 -9
-27 39 -20 55 5 13 9 9 16 -17 5 -18 7 -35 4 -38z m4 -28 c0 -7 -7 -18 -15
-25 -8 -7 -12 -17 -8 -24 4 -6 8 -26 9 -44 0 -19 5 -37 11 -40 6 -4 13 -29 16
-57 4 -44 4 -48 -9 -30 -8 10 -14 31 -14 46 0 15 -4 31 -10 34 -5 3 -10 19
-10 35 0 22 -4 28 -15 24 -8 -4 -15 -2 -15 4 0 5 -3 24 -7 42 -5 28 -4 32 10
27 10 -4 18 1 22 13 7 21 35 17 35 -5z m9550 -110 c23 -38 48 -83 56 -100 8
-16 30 -59 49 -95 19 -36 35 -71 35 -77 0 -7 5 -13 12 -13 6 0 8 -3 5 -7 -4
-3 -1 -16 7 -28 18 -28 11 -125 -12 -168 -15 -27 -75 -119 -132 -201 -123
-177 -158 -226 -184 -256 -17 -19 -38 -46 -48 -60 -23 -36 -44 -15 -26 26 13
30 131 209 168 254 11 14 20 30 20 36 0 7 7 14 15 18 8 3 15 11 15 18 0 7 16
31 36 53 36 41 74 114 74 143 0 14 2 14 9 3 7 -10 11 -2 15 30 12 90 11 104
-7 119 -10 9 -19 34 -22 64 -3 27 -9 52 -14 55 -5 4 -13 19 -16 34 -4 15 -11
27 -15 27 -4 0 -15 12 -25 26 -12 18 -13 24 -4 19 8 -3 7 -1 -2 7 -18 15 -41
76 -34 88 3 5 1 10 -4 12 -4 1 -12 14 -16 28 -10 33 -5 27 45 -55z m-9595 6
c3 -5 1 -12 -5 -16 -5 -3 -10 1 -10 9 0 18 6 21 15 7z m55 -180 c0 -5 -7 -11
-14 -14 -10 -4 -13 -1 -9 9 6 15 23 19 23 5z m-50 -111 c-24 -24 -30 -25 -30
-4 0 8 4 13 9 9 5 -3 12 -1 16 5 3 5 10 10 16 10 5 0 0 -9 -11 -20z m-820 0
c8 -5 11 -12 7 -16 -4 -4 -15 0 -24 9 -18 18 -8 23 17 7z m820 -85 c0 -2 -6
-5 -13 -8 -8 -3 -14 1 -14 8 0 7 6 11 14 8 7 -3 13 -6 13 -8z m-130 -85 c0 -5
-4 -10 -10 -10 -5 0 -10 5 -10 10 0 6 5 10 10 10 6 0 10 -4 10 -10z m-323 -6
c-3 -3 -12 -4 -19 -1 -8 3 -5 6 6 6 11 1 17 -2 13 -5z m12966 -68 c36 -36 65
-122 47 -140 -5 -5 -10 -20 -10 -33 0 -13 -6 -23 -13 -23 -8 0 -22 -9 -32 -20
-43 -47 -131 -30 -182 36 -22 30 -25 41 -21 89 4 44 11 62 34 86 36 39 54 46
105 41 29 -3 50 -13 72 -36z m-12796 28 c-3 -3 -12 -4 -19 -1 -8 3 -5 6 6 6
11 1 17 -2 13 -5z m12351 -144 c-1 -45 -4 -47 -29 -25 -14 13 -15 20 -5 40 18
39 36 31 34 -15z m-1891 -282 c-16 -18 -39 -53 -50 -78 -17 -37 -21 -42 -27
-25 -8 24 20 75 62 110 42 36 52 31 15 -7z m-84 10 c-6 -7 -13 -26 -17 -42 -7
-27 -6 -28 10 -15 15 12 17 12 12 -1 -2 -8 -12 -16 -22 -18 -9 -2 -28 -14 -43
-28 -14 -13 -31 -24 -38 -24 -27 0 -40 -63 -39 -195 1 -117 7 -175 30 -285 7
-33 6 -34 -9 -18 -9 9 -17 22 -17 28 0 6 -7 13 -15 16 -8 4 -15 13 -15 20 0 8
-7 17 -15 20 -8 4 -15 12 -15 20 0 7 -9 20 -21 28 -12 8 -18 19 -14 25 3 6 2
11 -4 11 -14 0 -24 38 -23 90 1 64 10 98 32 123 11 11 20 26 20 31 1 16 36 56
49 56 6 0 11 4 11 9 0 34 104 161 132 161 15 0 18 -3 11 -12z m-838 -39 c23
-29 43 -40 29 -17 -4 7 -3 8 4 4 7 -4 12 -13 12 -21 0 -7 7 -15 15 -19 8 -3
13 -13 12 -23 -7 -36 -41 -93 -56 -93 -25 0 -90 131 -91 181 0 28 47 20 75
-12z m143 -82 c-7 -9 25 -37 43 -37 10 0 23 -9 29 -20 6 -11 17 -20 25 -20 8
0 15 -9 15 -19 0 -22 -20 -40 -21 -19 0 7 -4 3 -9 -9 -5 -13 -17 -23 -25 -23
-9 0 -14 4 -11 8 2 4 -24 6 -60 4 -41 -3 -64 -1 -64 6 0 29 66 149 77 139 2
-3 3 -7 1 -10z m702 -51 c-12 -53 -12 -255 0 -311 5 -27 13 -63 16 -80 9 -41
-10 -21 -25 27 -10 30 -29 150 -32 193 0 15 19 150 27 179 9 39 23 31 14 -8z
m-9203 -1158 c-3 -8 -6 -5 -6 6 -1 11 2 17 5 13 3 -3 4 -12 1 -19z m228 -28
c3 -5 1 -10 -4 -10 -6 0 -11 5 -11 10 0 6 2 10 4 10 3 0 8 -4 11 -10z m-169
-15 c-6 -17 14 -20 32 -5 6 6 10 7 8 4 -3 -3 -1 -17 4 -30 6 -15 6 -24 0 -24
-6 0 -10 10 -11 23 0 12 -3 16 -6 9 -2 -6 -9 -10 -14 -6 -14 8 -11 -20 4 -35
10 -11 10 -13 0 -7 -9 5 -13 -1 -13 -18 0 -14 -4 -26 -9 -26 -10 0 -9 -26 2
-36 4 -4 7 -15 7 -25 0 -20 -27 -33 -34 -16 -3 8 -5 8 -5 1 -1 -16 26 -37 39
-29 6 3 8 10 5 15 -3 5 -1 11 5 15 6 4 8 11 5 16 -4 5 0 9 7 9 7 1 2 7 -12 15
l-25 15 24 -3 c13 -1 26 4 28 11 3 6 0 12 -7 12 -6 0 -8 -6 -4 -12 4 -7 3 -9
-1 -5 -5 4 -10 15 -11 23 -1 9 0 13 3 10 4 -3 13 0 21 7 13 9 14 9 8 0 -4 -7
-2 -13 3 -13 6 0 11 5 11 11 0 6 9 9 19 6 11 -3 22 1 25 8 6 17 -4 26 -18 18
-20 -13 -35 -11 -29 2 2 8 10 12 16 9 7 -2 18 9 25 26 13 28 42 42 42 19 0 -5
-5 -7 -12 -3 -8 5 -9 2 -5 -9 3 -9 2 -19 -3 -22 -4 -3 -11 1 -13 7 -3 8 -6 5
-6 -5 -1 -11 8 -21 19 -24 11 -3 18 -9 15 -12 -2 -4 2 -8 10 -8 13 0 13 2 1
16 -12 13 -12 19 -2 34 7 9 19 17 26 17 10 0 10 -3 0 -15 -9 -11 -9 -15 -1
-15 7 0 9 -5 5 -12 -5 -9 -2 -9 9 1 15 12 17 11 18 -10 1 -15 3 -18 6 -8 2 10
12 19 22 22 14 3 17 0 14 -14 -3 -11 -17 -22 -30 -25 -17 -5 -21 -9 -13 -14 7
-4 10 -12 6 -18 -11 -18 11 -23 25 -5 10 12 10 14 2 9 -8 -4 -13 -1 -13 8 0 9
6 16 14 16 7 0 16 9 19 20 3 11 9 20 14 19 25 -4 44 2 37 14 -4 6 -3 8 1 4 20
-18 12 -33 -16 -31 -22 2 -29 -2 -27 -14 2 -10 8 -20 13 -24 6 -5 6 -8 -2 -8
-13 0 -12 -25 2 -37 4 -4 5 -3 1 4 -4 7 2 21 14 33 12 12 15 20 8 21 -7 1 -2
4 12 8 33 10 42 4 35 -22 -2 -12 -2 -16 1 -8 5 11 8 11 16 0 10 -14 7 1 -8 50
-5 16 -2 20 14 18 11 0 18 -5 15 -10 -3 -5 1 -13 8 -18 10 -6 11 -9 2 -9 -7 0
-12 -10 -12 -22 1 -21 2 -21 7 -3 l5 20 8 -20 c7 -18 8 -18 8 -2 1 16 3 17 16
3 8 -8 15 -23 15 -32 0 -16 1 -16 14 2 8 10 10 21 5 22 -5 2 -9 8 -9 13 0 6 5
7 10 4 13 -8 13 28 0 41 -7 7 -6 11 4 11 8 0 14 -3 12 -6 -8 -14 15 -53 28
-48 8 3 16 1 18 -5 2 -6 11 -4 21 6 14 15 17 15 17 2 0 -27 20 -28 30 -2 5 14
15 26 22 25 10 0 10 -2 1 -6 -20 -7 -15 -23 5 -17 9 3 5 -2 -10 -11 -29 -16
-38 -45 -15 -45 6 -1 1 -7 -13 -15 -33 -19 -40 -18 -34 3 4 12 3 14 -4 4 -7
-11 -13 -10 -27 5 -18 17 -19 17 -12 -1 5 -14 4 -17 -8 -12 -8 3 -15 2 -15 -3
0 -5 9 -11 20 -14 11 -3 18 -1 14 4 -3 5 -1 9 5 9 5 0 12 -4 15 -9 8 -13 55
-20 53 -8 -3 16 34 21 45 5 8 -10 9 -9 4 5 -3 9 0 17 6 17 27 0 -9 16 -44 19
-5 1 -8 6 -8 11 0 6 19 9 47 6 30 -3 51 0 55 7 5 8 8 6 8 -5 0 -22 -19 -33
-33 -19 -6 6 -18 11 -26 10 -10 0 -7 -4 7 -10 13 -5 20 -13 17 -19 -6 -9 24
-49 32 -42 11 8 21 -1 18 -18 -2 -11 0 -20 6 -20 8 0 13 22 10 43 -2 11 6 8
24 -9 12 -12 19 -14 27 -6 17 17 9 22 -47 32 -5 1 6 6 25 10 20 5 41 4 50 -1
11 -7 8 -8 -10 -4 l-25 6 24 -14 c18 -11 20 -16 10 -20 -10 -4 -9 -6 4 -6 9
-1 17 -5 17 -11 0 -5 7 -10 16 -10 11 0 14 -6 9 -20 -4 -14 -2 -20 8 -20 18 0
26 -36 16 -70 -4 -14 -7 -20 -8 -13 -1 17 -31 4 -31 -14 0 -8 -5 -11 -10 -8
-6 4 -9 1 -8 -5 2 -7 -8 -14 -21 -16 -29 -5 -37 -11 -28 -20 4 -4 13 -1 22 6
14 12 19 7 16 -13 -1 -5 3 -6 9 -2 9 6 14 -7 11 -27 0 -5 4 -8 10 -8 7 0 8 7
4 18 -13 33 -13 48 0 65 12 17 14 17 37 -5 12 -13 20 -19 16 -14 -4 5 -2 16 4
23 8 11 7 12 -6 7 -12 -5 -15 -2 -10 10 3 9 11 13 17 9 6 -4 8 0 4 10 -3 9 -2
19 3 22 6 4 10 -9 11 -27 0 -18 3 -27 6 -20 2 6 9 9 15 6 5 -4 5 3 -2 16 -6
12 -9 24 -6 28 3 3 6 0 6 -6 0 -7 3 -11 8 -11 25 4 29 -3 22 -41 -4 -22 -3
-37 1 -34 5 3 9 -2 9 -11 0 -9 -4 -13 -10 -10 -5 3 -10 2 -10 -3 0 -6 7 -12
15 -16 9 -3 15 0 15 10 0 13 9 15 49 11 48 -5 48 -5 37 19 -8 16 -12 19 -14 9
-4 -19 -16 -19 -32 0 -7 9 -19 14 -27 11 -8 -3 -12 -2 -8 3 3 5 -1 11 -7 13
-8 3 -3 10 12 18 14 7 28 18 33 24 9 13 40 -22 31 -35 -3 -5 0 -9 5 -9 6 0 11
-6 11 -14 0 -16 18 -31 27 -22 3 3 -2 12 -11 21 -17 18 -21 35 -8 35 5 0 16
-15 25 -32 10 -21 16 -27 16 -15 1 21 31 23 31 1 0 -9 -9 -18 -20 -21 -11 -3
-17 -9 -14 -14 3 -5 10 -7 15 -4 5 4 9 -2 9 -13 0 -15 7 -18 42 -18 31 1 43
-3 44 -14 0 -9 -1 -10 -3 -2 -3 6 -8 12 -13 12 -13 0 -53 -60 -45 -68 4 -4 10
-2 12 5 3 10 9 10 24 0 25 -15 25 -27 0 -20 -16 4 -19 1 -15 -19 5 -21 4 -21
-11 5 -15 26 -45 37 -45 16 0 -5 4 -8 9 -5 5 3 11 -1 14 -9 4 -9 1 -12 -7 -9
-11 4 -24 -16 -30 -48 0 -5 -4 -8 -8 -8 -5 0 -7 3 -5 6 3 7 -33 27 -38 22 -2
-2 7 -17 20 -33 21 -25 26 -28 35 -15 5 8 8 21 5 28 -2 6 0 12 4 12 5 0 16 3
25 6 10 4 16 1 16 -10 0 -10 -5 -13 -16 -9 -13 5 -15 2 -9 -15 4 -16 2 -22 -8
-22 -20 0 -41 -26 -27 -35 5 -3 10 -11 10 -18 0 -6 -6 -2 -14 8 -8 11 -11 26
-8 35 5 13 3 13 -11 1 -9 -7 -17 -10 -17 -7 0 4 -5 4 -11 0 -8 -4 -7 -9 2 -15
10 -6 10 -9 2 -9 -7 0 -10 -7 -7 -17 5 -15 4 -15 -4 -3 -6 8 -8 18 -5 24 4 5
-1 7 -10 3 -12 -4 -17 -1 -18 11 0 10 -3 12 -6 5 -9 -25 -23 -13 -13 12 7 18
6 23 -4 19 -8 -3 -12 -21 -10 -52 l3 -47 -11 38 c-11 40 -24 49 -24 18 0 -11
4 -17 8 -15 4 3 8 0 8 -5 0 -14 -17 -14 -25 -1 -3 6 -11 10 -16 10 -6 0 -8 -4
-5 -8 2 -4 -8 -8 -23 -7 -26 0 -28 2 -19 27 9 24 12 26 25 13 8 -8 20 -15 26
-15 8 0 7 3 -2 9 -7 5 -10 14 -7 20 4 6 12 9 17 6 5 -4 6 3 0 17 -4 13 -7 29
-5 36 1 7 0 8 -3 2 -2 -5 -9 -8 -14 -4 -5 3 -5 -6 1 -20 9 -25 4 -31 -22 -28
-3 1 -12 -5 -18 -14 -11 -13 -15 -12 -33 3 -11 10 -18 13 -14 8 3 -6 2 -17 -4
-25 -7 -13 -9 -13 -9 1 0 18 -28 21 -47 6 -9 -6 -13 -6 -13 1 0 6 6 14 13 19
12 8 16 9 52 12 19 1 19 2 2 12 -9 6 -14 15 -11 21 4 7 2 8 -4 4 -6 -4 -9 -13
-5 -21 6 -17 -12 -21 -22 -5 -10 16 -23 12 -21 -7 0 -10 -5 -17 -12 -15 -10 2
-10 -2 -2 -18 6 -11 8 -26 5 -33 -4 -6 -1 -5 7 4 14 16 48 22 48 7 0 -15 29
-8 32 9 3 14 5 14 18 -2 9 -11 10 -16 2 -11 -7 4 -15 1 -18 -8 -3 -9 -10 -14
-14 -11 -5 3 -6 -5 -2 -17 3 -14 2 -19 -6 -14 -7 4 -12 2 -12 -4 0 -7 7 -10
15 -6 17 6 18 4 9 -18 -5 -13 -9 -14 -20 -5 -8 7 -17 9 -21 5 -3 -3 -1 -6 5
-6 7 0 12 -4 12 -10 0 -5 -6 -7 -14 -4 -8 3 -23 1 -33 -6 -17 -10 -17 -11 2
-6 11 3 27 1 35 -4 11 -7 11 -10 2 -10 -7 0 -10 -5 -6 -11 5 -9 -1 -10 -22 -4
-16 4 -38 9 -49 11 -39 5 -40 6 -15 14 21 7 22 8 4 9 -19 1 -44 -16 -44 -30 0
-3 12 -6 28 -7 48 0 52 -2 52 -19 0 -10 -4 -14 -8 -8 -11 16 -46 19 -36 3 6
-11 5 -11 -8 0 -10 8 -19 9 -22 3 -3 -5 0 -12 6 -15 7 -4 3 -4 -9 -2 -22 4
-29 -8 -24 -37 1 -5 -3 -6 -8 -3 -5 3 -11 -3 -14 -14 -3 -12 1 -24 11 -30 10
-5 12 -10 5 -10 -6 0 -15 5 -19 11 -4 8 -9 7 -15 -2 -6 -10 -9 -10 -9 -2 0 6
5 15 10 18 6 3 10 15 10 26 0 10 4 19 9 19 5 0 11 16 13 36 4 32 3 34 -9 18
-13 -18 -15 -18 -24 -1 -14 24 -39 21 -40 -5 0 -22 -1 -22 -8 -3 -9 23 7 38
53 49 27 7 27 8 10 20 -12 9 -26 11 -40 6 -12 -5 -25 -6 -29 -2 -4 4 -6 3 -5
-3 5 -25 -2 -35 -27 -35 -21 0 -24 3 -13 9 8 6 18 7 22 5 4 -3 8 0 8 5 0 6 -6
11 -12 11 -10 0 -9 3 1 9 9 6 10 11 2 15 -10 6 -15 -6 -12 -26 2 -16 -18 -7
-22 10 -2 9 -3 7 -2 -6 2 -16 -2 -22 -11 -18 -8 3 -14 1 -14 -4 0 -5 16 -12
35 -16 19 -3 35 -10 35 -15 0 -5 -8 -5 -17 -2 -15 6 -16 4 -5 -9 15 -19 -2
-37 -31 -33 -15 3 -16 1 -6 -11 6 -8 9 -17 5 -21 -3 -3 -6 -1 -6 5 0 6 -6 9
-14 6 -8 -3 -17 0 -22 7 -4 8 -3 10 4 5 8 -5 12 4 13 26 0 29 1 30 9 11 8 -20
32 -27 38 -10 1 4 0 6 -2 5 -2 -2 -14 6 -26 17 -17 14 -24 16 -27 7 -3 -6 -10
-9 -16 -6 -8 5 -8 2 1 -7 17 -19 15 -33 -3 -15 -18 18 -20 50 -2 40 7 -5 7 -1
-3 12 -22 29 -24 30 -17 12 4 -12 1 -18 -8 -18 -13 0 -13 -3 -3 -20 9 -14 10
-23 3 -28 -17 -12 -18 -42 -1 -36 8 3 12 12 9 20 -3 8 -1 14 5 14 5 0 12 -14
16 -31 3 -17 9 -28 14 -25 4 2 8 -4 9 -14 1 -16 -2 -15 -24 6 -14 13 -29 22
-33 21 -4 -1 -16 9 -27 22 -18 22 -20 22 -35 7 -19 -18 -38 -21 -38 -5 0 5 4
8 8 5 4 -2 9 10 10 27 2 23 -1 28 -7 17 -5 -8 -8 -17 -5 -21 11 -19 -19 -18
-46 1 -17 12 -36 19 -43 17 -6 -3 -3 -6 8 -6 15 -1 17 -3 6 -10 -9 -6 -10 -11
-2 -15 6 -4 11 -2 11 4 0 6 5 8 10 5 7 -4 6 -13 -1 -27 -10 -19 -12 -20 -21
-5 -5 10 -16 17 -24 17 -8 0 -13 -4 -10 -9 7 -10 -19 -23 -28 -14 -3 4 0 13 6
22 10 12 7 12 -8 -2 -11 -9 -24 -14 -27 -10 -4 3 -7 1 -7 -5 0 -7 7 -12 15
-12 8 0 15 -5 15 -11 0 -8 4 -8 14 0 11 9 19 9 35 -1 18 -11 23 -9 44 15 23
27 24 27 40 9 23 -25 22 -28 -10 -27 -19 0 -29 -6 -31 -19 -3 -13 0 -16 10
-10 9 5 9 2 -2 -11 -14 -18 -15 -17 -18 5 -3 18 -6 20 -13 9 -6 -10 -9 -10 -9
-1 0 6 -4 12 -9 12 -4 0 -6 -12 -3 -26 3 -16 7 -21 12 -14 4 7 8 1 8 -14 0
-24 -2 -25 -13 -9 -6 10 -15 30 -19 46 -6 26 -26 39 -26 16 0 -6 -7 -17 -15
-25 -13 -14 -15 -13 -16 8 -1 13 -1 25 -1 28 0 3 -6 11 -14 18 -12 11 -14 8
-12 -15 1 -15 6 -31 11 -34 5 -3 1 -9 -8 -12 -10 -5 -14 -3 -9 4 4 7 1 10 -7
7 -8 -3 -22 -1 -32 4 -18 9 -18 10 2 25 12 8 19 19 16 24 -4 5 4 13 17 18 22
10 22 10 -4 8 -15 -1 -26 -4 -26 -7 3 -31 -4 -42 -22 -37 -11 3 -25 -2 -32
-12 -11 -14 -11 -14 4 -3 14 11 17 10 23 -7 3 -12 11 -21 16 -21 5 0 9 -5 9
-11 0 -5 -5 -7 -12 -3 -7 5 -9 1 -6 -13 4 -16 1 -19 -18 -15 -13 2 -21 8 -19
12 6 10 -14 25 -21 17 -3 -3 -7 -13 -8 -23 -2 -10 -8 -19 -15 -20 -7 -2 -7 0
-1 3 8 3 7 9 -1 19 -8 10 -8 14 0 14 6 0 11 7 11 16 0 8 4 12 10 9 6 -4 9 5 8
19 -1 15 -7 26 -13 27 -5 0 -1 4 10 9 15 6 16 9 4 9 -23 1 -30 -9 -18 -30 9
-17 6 -19 -24 -17 -26 2 -33 8 -35 25 -1 15 3 21 12 17 18 -7 41 22 25 32 -7
4 -9 3 -6 -3 4 -6 0 -13 -8 -17 -9 -3 -15 0 -15 9 0 8 -4 15 -10 15 -5 0 -7
-6 -4 -14 3 -8 0 -17 -5 -21 -6 -3 -9 -11 -5 -16 4 -7 -5 -9 -22 -7 -18 2 -28
8 -26 16 1 8 -2 11 -8 7 -6 -3 -8 -11 -5 -16 4 -5 -1 -9 -9 -9 -9 0 -16 7 -16
15 0 8 -4 15 -10 15 -5 0 -7 -7 -4 -15 9 -22 -14 -18 -28 5 -14 22 -33 27 -25
7 3 -8 1 -20 -4 -28 -7 -11 -9 -11 -9 4 0 9 -7 17 -15 17 -22 0 -18 -31 5 -37
11 -3 20 -10 20 -15 0 -5 -4 -7 -9 -4 -5 4 -12 0 -14 -6 -3 -8 -6 -6 -6 4 -1
11 -6 15 -15 12 -17 -6 -31 12 -16 21 5 3 10 13 10 22 0 13 -2 14 -17 2 -11
-10 -14 -10 -9 -1 4 6 2 12 -3 12 -6 0 -11 8 -11 18 0 9 4 13 8 7 7 -11 32
-18 32 -10 0 2 -12 12 -27 20 -16 9 -20 14 -11 11 11 -3 16 1 15 13 0 10 -7
18 -14 18 -7 0 -11 -3 -8 -5 3 -3 -2 -14 -12 -24 -9 -10 -12 -18 -6 -18 5 0
10 -24 10 -52 0 -39 -1 -43 -4 -15 -2 20 -10 37 -16 37 -7 0 -6 4 3 10 10 7
11 10 2 10 -8 0 -11 9 -8 26 3 15 0 27 -8 30 -17 6 -16 31 0 31 7 0 11 -4 8
-8 -2 -4 0 -10 6 -14 5 -3 10 2 10 13 0 15 6 18 30 14 17 -2 32 -8 35 -12 3
-5 -5 -6 -17 -3 -14 3 -18 1 -12 -4 11 -8 30 -70 26 -85 -1 -5 3 -8 8 -8 9 0
14 14 11 33 -1 4 8 3 19 -3 16 -9 25 -8 38 2 15 11 16 11 4 -4 -8 -10 -9 -19
-3 -22 5 -4 12 -2 15 3 4 5 19 7 34 5 26 -5 26 -4 7 10 -11 8 -23 12 -27 10
-5 -3 -8 2 -8 11 0 10 -5 13 -12 9 -10 -6 -10 -4 0 8 10 13 10 17 0 21 -7 3
-3 6 9 6 16 1 21 -3 17 -14 -4 -8 -1 -15 6 -15 6 0 9 4 5 9 -9 16 9 20 28 6
18 -13 17 -14 -2 -20 -24 -7 -28 -22 -6 -22 8 0 12 4 9 9 -5 8 11 12 30 9 5
-1 6 5 2 14 -3 9 -6 20 -6 25 0 4 -8 7 -17 7 -29 -1 -84 36 -78 52 4 11 1 11
-13 -2 -28 -26 -35 -21 -29 21 3 20 3 30 1 21 -5 -16 -42 -18 -77 -4 -17 7
-17 4 -8 -44 1 -2 8 2 16 9 12 10 15 10 15 -1 1 -10 4 -9 14 4 17 23 26 22 26
-3 0 -25 -25 -36 -45 -20 -12 10 -15 10 -15 0 0 -10 -3 -10 -15 0 -8 6 -18 9
-23 7 -4 -3 -14 -2 -22 4 -12 7 -12 9 -1 9 11 0 11 3 0 16 -12 15 -11 16 7 10
15 -5 24 -2 28 10 3 9 12 14 19 11 8 -3 12 6 13 29 0 22 -3 31 -10 25 -24 -18
-46 -20 -46 -5 0 9 5 12 13 8 6 -4 9 -4 5 1 -4 4 -1 13 7 19 12 9 12 13 -1 25
-13 11 -15 10 -12 -5 2 -15 -2 -18 -19 -16 -17 2 -23 -2 -23 -15 0 -15 2 -16
10 -3 7 11 10 7 10 -18 0 -20 -4 -31 -10 -27 -6 4 -8 10 -6 13 2 4 -9 8 -25 8
-30 2 -29 -5 2 -46 9 -13 10 -13 5 2 -3 10 -1 20 4 23 6 4 10 0 10 -9 0 -23
-11 -46 -20 -41 -5 3 -11 1 -15 -5 -3 -5 1 -10 10 -10 9 0 13 -5 10 -10 -4 -6
-11 -8 -16 -5 -5 4 -9 -2 -9 -11 0 -14 3 -15 12 -6 18 18 28 15 28 -9 0 -16
-4 -19 -20 -14 -11 3 -20 2 -20 -3 0 -6 -9 -8 -20 -5 -11 3 -20 1 -20 -4 0
-20 14 -23 37 -8 13 9 23 11 23 5 0 -5 12 -10 26 -10 15 0 23 -4 19 -10 -4 -6
-14 -9 -22 -8 -9 2 -18 -3 -21 -11 -3 -8 0 -11 7 -7 6 4 11 3 11 -2 0 -6 -7
-12 -15 -16 -8 -3 -14 -2 -14 2 3 20 -2 25 -12 12 -8 -12 -9 -11 -4 6 5 19 2
22 -30 21 -25 -1 -34 -5 -30 -15 2 -7 1 -10 -4 -7 -5 3 -12 -3 -14 -12 -3 -12
-5 -8 -6 9 0 14 -4 35 -7 45 -5 14 -4 15 4 4 14 -20 45 -24 38 -5 -3 8 -1 14
4 14 5 0 7 7 4 15 -4 8 -1 15 5 15 21 0 11 27 -14 38 -31 14 -38 15 -31 4 11
-18 14 -62 4 -62 -5 0 -8 7 -4 15 3 10 -1 15 -14 15 -10 0 -22 5 -26 12 -4 7
-3 8 4 4 7 -4 17 -4 23 0 8 4 7 9 -2 15 -9 6 -10 9 -2 9 12 0 11 13 -1 42 -5
10 -6 23 -3 30 3 7 6 3 6 -10 1 -13 5 -21 9 -18 6 4 7 24 3 69 -1 5 -5 5 -11
2 -5 -3 -10 -1 -10 5 0 7 -7 5 -16 -4 -8 -9 -19 -14 -24 -11 -5 3 -11 -12 -13
-32 l-4 -38 -1 37 c-2 31 3 39 31 57 23 15 27 21 14 21 -10 0 -15 5 -12 10 4
6 11 7 17 4 7 -4 8 -2 4 4 -4 7 -2 12 3 12 6 0 11 -5 11 -11 0 -6 7 -17 15
-26 12 -12 19 -12 30 -3 21 17 51 5 36 -14 -16 -19 0 -28 17 -10 10 11 9 17
-6 32 -19 19 -19 19 2 32 19 12 20 12 7 -3 -12 -16 -9 -21 12 -18 4 0 7 -7 8
-16 0 -11 3 -13 6 -5 2 6 9 10 14 6 13 -8 11 10 -3 24 -9 9 -8 13 5 17 9 4 13
13 10 21 -3 8 -9 11 -14 8 -5 -3 -7 -10 -4 -15 4 -5 1 -9 -4 -9 -6 0 -11 4
-11 9 0 5 -9 11 -20 14 -13 3 -20 0 -20 -9 0 -8 -3 -13 -7 -13 -26 4 -35 -2
-24 -15 8 -10 8 -16 -3 -25 -16 -13 -36 6 -39 37 -1 22 -22 19 -31 -4 -3 -9
-10 -12 -16 -9 -5 3 -10 -1 -10 -9 0 -10 -6 -13 -15 -9 -12 4 -10 10 13 27 16
12 26 28 24 39 -2 9 1 17 7 17 6 0 11 -7 11 -16 0 -8 5 -12 10 -9 6 3 13 -1
16 -9 3 -9 10 -16 16 -16 5 0 6 4 3 10 -4 6 1 7 11 3 13 -5 16 -2 12 9 -5 11
2 14 28 13 19 0 40 3 47 7 9 6 9 8 0 8 -6 0 -15 9 -18 21 -5 16 -10 18 -21 8
-9 -7 -14 -8 -14 -1 0 6 4 13 10 17 5 3 7 13 4 23 -5 16 -5 16 6 0 11 -19 36
-26 25 -8 -6 10 6 14 35 11 11 -1 10 2 -4 13 -10 8 -15 19 -12 25 4 6 2 20 -4
31 -9 16 -8 20 5 20 14 0 20 -17 16 -50 -2 -9 5 -5 15 9 14 19 14 25 3 32 -9
6 -10 9 -2 9 6 0 14 12 16 28 4 22 4 20 4 -8 0 -19 2 -42 4 -50 2 -8 -2 -14
-8 -12 -7 1 -13 -2 -13 -8 0 -16 22 -12 35 7 12 16 40 9 30 -8 -4 -5 1 -9 9
-9 13 0 14 4 4 25 -6 14 -17 24 -24 23 -7 -2 -12 2 -11 7 1 6 5 9 9 8 4 -2 5
4 2 12 -4 8 -10 12 -15 9 -5 -3 -9 0 -9 6 0 6 11 8 24 6 19 -3 23 -1 19 15 -5
16 -8 17 -21 7 -12 -10 -14 -10 -8 0 4 6 2 12 -3 12 -6 0 -11 7 -11 15 0 12 4
13 19 6 10 -6 22 -7 26 -3 5 4 5 1 1 -5 -4 -7 -2 -13 3 -13 10 0 15 12 13 30
0 3 8 6 18 6 10 0 16 -4 14 -8 -3 -4 0 -8 5 -8 6 0 11 5 11 10 0 6 5 10 12 10
9 0 9 -3 0 -12 -10 -10 -8 -16 10 -30 13 -9 19 -20 15 -24 -4 -5 -19 4 -33 19
-14 15 -29 27 -35 27 -5 0 6 -14 25 -31 25 -21 44 -30 63 -28 16 2 35 -1 43
-6 11 -6 10 -3 -3 12 -9 11 -14 23 -10 28 5 4 2 5 -5 1 -7 -4 -10 -12 -7 -17
4 -5 0 -9 -7 -9 -19 0 -42 41 -39 68 2 20 0 22 -16 13 -11 -5 -25 -6 -33 -1
-8 5 -18 6 -22 4 -4 -3 -8 7 -8 21 0 14 -4 24 -9 20 -5 -3 -13 -1 -16 5 -4 6
-1 9 7 8 8 -2 12 4 10 16 -2 11 1 16 10 14 8 -3 12 -17 10 -36 -1 -18 3 -32 9
-32 5 0 7 5 4 10 -3 6 -2 10 4 10 5 0 14 -7 19 -16 6 -10 14 -14 22 -9 9 6 9
9 -1 16 -10 6 -8 9 8 9 17 0 20 -4 15 -22 -3 -14 -2 -19 7 -14 6 4 9 12 6 17
-9 14 18 11 41 -6 12 -8 24 -11 28 -8 3 3 6 0 7 -8 0 -8 4 -3 10 9 10 26 4 42
-14 41 -9 0 -9 -2 1 -6 17 -7 15 -20 -3 -20 -8 0 -15 7 -15 14 0 8 -4 11 -10
8 -5 -3 -10 -1 -10 4 0 10 29 16 53 12 4 0 7 8 7 19 0 11 -4 20 -10 20 -5 0
-9 -3 -7 -7 1 -5 -1 -9 -5 -10 -11 -4 -11 -2 1 30 6 15 16 27 23 27 9 0 9 -3
-2 -10 -8 -5 -11 -12 -7 -16 3 -4 13 -1 21 5 10 8 16 9 21 1 3 -5 12 -10 18
-9 9 0 9 2 0 6 -7 2 -13 12 -13 21 0 13 2 14 9 4 5 -8 8 0 9 22 1 27 -2 34
-13 29 -8 -3 -15 -9 -15 -15 0 -5 5 -6 10 -3 16 10 12 -5 -7 -23 -15 -15 -16
-15 -11 -1 4 9 2 21 -3 26 -16 16 1 44 22 38 11 -4 19 -2 19 4 0 6 3 11 6 11
3 0 4 -7 0 -15z m341 -47 c-3 -8 -6 -5 -6 6 -1 11 2 17 5 13 3 -3 4 -12 1 -19z
m-397 -8 c0 -5 -7 -10 -16 -10 -8 0 -12 5 -9 10 3 6 10 10 16 10 5 0 9 -4 9
-10z m478 -15 c-3 -3 -9 2 -12 12 -6 14 -5 15 5 6 7 -7 10 -15 7 -18z m-534 0
c-10 -8 -14 -15 -8 -15 17 0 23 -23 10 -36 -9 -8 -16 -7 -26 4 -13 14 -12 15
2 9 12 -4 15 -2 11 8 -3 8 -9 12 -14 9 -5 -3 -9 -2 -9 2 0 9 32 33 44 34 6 0
1 -7 -10 -15z m631 5 c-3 -5 1 -10 9 -10 9 0 16 -3 16 -7 0 -5 -11 -8 -24 -8
-24 0 -30 14 -11 27 14 11 17 10 10 -2z m-695 -40 c0 -5 -2 -10 -4 -10 -3 0
-8 5 -11 10 -3 6 -1 10 4 10 6 0 11 -4 11 -10z m38 -43 c0 -28 -23 -32 -25 -5
-1 10 2 16 8 13 5 -4 9 -1 9 4 0 6 2 11 4 11 2 0 4 -10 4 -23z m-38 -13 c0 -2
-9 0 -20 6 -11 6 -20 13 -20 16 0 2 9 0 20 -6 11 -6 20 -13 20 -16z m944 8 c3
-5 -1 -9 -9 -9 -8 0 -12 4 -9 9 3 4 7 8 9 8 2 0 6 -4 9 -8z m-74 -22 c0 -5 -2
-10 -4 -10 -3 0 -8 5 -11 10 -3 6 -1 10 4 10 6 0 11 -4 11 -10z m-985 -59 c-3
-2 -17 2 -32 9 -16 7 -31 13 -35 12 -4 -1 -5 5 -1 14 5 13 8 12 25 -5 22 -24
30 -26 27 -8 -4 31 4 39 12 13 4 -17 6 -32 4 -35z m1155 53 c0 -8 -19 -13 -24
-6 -3 5 1 9 9 9 8 0 15 -2 15 -3z m44 -12 c2 -4 -4 -9 -15 -9 -11 -1 -17 2
-14 8 7 11 22 12 29 1z m37 -19 c13 -16 12 -17 -3 -4 -10 7 -18 15 -18 17 0 8
8 3 21 -13z m31 -25 c-7 -7 -12 -8 -12 -2 0 14 12 26 19 19 2 -3 -1 -11 -7
-17z m-1316 -15 c1 -15 -3 -20 -14 -15 -11 4 -12 7 -3 10 8 3 7 8 -6 18 -17
14 -17 15 2 12 12 -2 20 -11 21 -25z m1254 17 c0 -5 -9 -14 -20 -20 -14 -7
-20 -7 -20 0 0 5 7 10 15 10 8 0 15 5 15 10 0 6 2 10 5 10 3 0 5 -4 5 -10z
m-1393 -22 c-3 -8 -6 -5 -6 6 -1 11 2 17 5 13 3 -3 4 -12 1 -19z m101 -16 c14
-14 16 -21 6 -30 -9 -8 -14 -7 -20 6 -4 9 -6 22 -5 27 2 6 -1 6 -5 2 -12 -11
-14 -37 -3 -37 5 0 9 -4 9 -10 0 -5 -4 -9 -9 -7 -5 1 -10 -2 -12 -8 -5 -20
-30 -37 -44 -31 -21 8 -19 26 3 21 10 -2 24 6 31 17 12 19 11 20 -6 14 -17 -6
-17 -5 -1 7 10 8 15 17 11 21 -4 4 -1 11 7 16 19 12 17 13 38 -8z m1347 -13
c0 -21 -3 -25 -13 -17 -10 8 -10 13 -1 18 14 9 0 18 -23 15 -10 -2 -18 1 -18
6 0 5 13 8 28 7 23 -2 28 -6 27 -29z m-45 -4 c0 -2 -7 -8 -15 -15 -12 -10 -15
-10 -15 2 0 8 7 15 15 15 8 0 15 -1 15 -2z m237 -17 c-3 -8 -6 -5 -6 6 -1 11
2 17 5 13 3 -3 4 -12 1 -19z m-1627 -10 c0 -6 -3 -8 -7 -5 -3 4 -13 1 -21 -6
-13 -11 -14 -9 -2 10 14 22 30 22 30 1z m1579 -1 c8 -10 7 -14 -2 -14 -8 0
-14 6 -14 14 0 7 1 13 2 13 2 0 8 -6 14 -13z m54 -16 c19 9 20 8 6 -3 -9 -7
-14 -20 -11 -28 4 -11 2 -11 -11 2 -10 9 -16 25 -16 35 1 16 2 17 6 1 4 -15 8
-16 26 -7z m-1700 -38 c1 -11 9 -28 16 -37 12 -14 10 -16 -10 -15 -13 0 -18 3
-11 6 8 3 10 9 3 16 -10 13 -11 17 -11 43 0 9 -5 12 -12 8 -7 -5 -8 -3 -3 5 9
16 23 3 28 -26z m1752 17 c-3 -5 -12 -10 -18 -10 -7 0 -6 4 3 10 19 12 23 12
15 0z m-1629 -35 c-9 -7 -14 -14 -12 -16 3 -2 -7 -4 -20 -4 -28 0 -28 1 -12
19 7 7 22 11 33 9 11 -2 14 -1 8 3 -7 3 -13 10 -13 16 0 6 7 5 16 -3 14 -12
14 -14 0 -24z m1788 26 c3 -5 -1 -14 -9 -21 -13 -10 -15 -9 -15 9 0 21 14 28
24 12z m-1939 -19 c-3 -3 -11 0 -18 7 -9 10 -8 11 6 5 10 -3 15 -9 12 -12z
m82 -8 c-3 -3 -12 -4 -19 -1 -8 3 -5 6 6 6 11 1 17 -2 13 -5z m1793 -3 c0 -6
-4 -12 -8 -15 -5 -3 -9 1 -9 9 0 8 4 15 9 15 4 0 8 -4 8 -9z m-111 -33 c-2
-31 -2 -31 -6 -5 -3 16 -9 25 -15 21 -7 -4 -8 -2 -4 4 14 22 26 12 25 -20z
m138 -3 c0 -19 -3 -32 -7 -30 -7 4 -4 65 3 65 2 0 4 -16 4 -35z m-112 6 c3 -5
2 -12 -3 -15 -5 -3 -9 1 -9 9 0 17 3 19 12 6z m-1761 -26 c-4 -8 -8 -15 -10
-15 -2 0 -4 7 -4 15 0 8 4 15 10 15 5 0 7 -7 4 -15z m1813 -7 c-3 -8 -6 -5 -6
6 -1 11 2 17 5 13 3 -3 4 -12 1 -19z m113 -3 c-13 -14 -30 -25 -38 -25 -18 0
-6 15 11 15 7 1 11 7 9 14 -1 7 2 10 7 7 5 -4 12 -2 16 4 3 5 9 10 12 10 4 0
-4 -11 -17 -25z m-1953 -17 c-3 -8 -6 -5 -6 6 -1 11 2 17 5 13 3 -3 4 -12 1
-19z m-22 -6 c-3 -3 -11 0 -18 7 -9 10 -8 11 6 5 10 -3 15 -9 12 -12z m109
-11 c-4 -3 -9 0 -11 7 -3 6 -10 9 -15 6 -7 -4 -8 -2 -4 5 6 9 11 9 22 0 8 -6
12 -15 8 -18z m-49 9 c3 -6 -1 -7 -9 -4 -18 7 -21 14 -7 14 6 0 13 -4 16 -10z
m1940 0 c3 -6 -1 -7 -9 -4 -18 7 -21 14 -7 14 6 0 13 -4 16 -10z m-198 -42
c-3 -7 -5 -2 -5 12 0 14 2 19 5 13 2 -7 2 -19 0 -25z m80 10 c-3 -8 -6 -5 -6
6 -1 11 2 17 5 13 3 -3 4 -12 1 -19z m84 5 c13 -16 12 -17 -3 -4 -10 7 -18 15
-18 17 0 8 8 3 21 -13z m-40 -37 c-6 -7 -9 -15 -6 -18 3 -2 -2 -5 -10 -5 -13
0 -13 3 2 19 15 17 15 18 0 18 -10 0 -17 5 -17 10 0 7 7 7 21 0 15 -9 18 -15
10 -24z m-71 4 c0 -5 -2 -10 -4 -10 -3 0 -8 5 -11 10 -3 6 -1 10 4 10 6 0 11
-4 11 -10z m100 -20 c0 -5 -2 -10 -4 -10 -3 0 -8 5 -11 10 -3 6 -1 10 4 10 6
0 11 -4 11 -10z m47 -15 c0 -8 -4 -12 -9 -9 -5 3 -6 10 -3 15 9 13 12 11 12
-6z m-2037 -11 c0 -2 -7 -4 -15 -4 -8 0 -15 4 -15 10 0 5 7 7 15 4 8 -4 15 -8
15 -10z m1890 12 c0 -11 -19 -15 -25 -6 -3 5 1 10 9 10 9 0 16 -2 16 -4z
m-1930 -26 c0 -5 -2 -10 -4 -10 -3 0 -8 5 -11 10 -3 6 -1 10 4 10 6 0 11 -4
11 -10z m114 -28 c3 -5 -1 -9 -9 -9 -8 0 -12 4 -9 9 3 4 7 8 9 8 2 0 6 -4 9
-8z m1743 -24 c-3 -7 -5 -2 -5 12 0 14 2 19 5 13 2 -7 2 -19 0 -25z m126 11
c-8 -8 -13 -7 -18 2 -5 8 -4 10 3 5 7 -4 12 -2 12 5 0 7 3 9 7 6 4 -4 2 -12
-4 -18z m-79 -21 c-3 -4 -9 -8 -15 -8 -5 0 -9 4 -9 8 0 5 7 9 15 9 8 0 12 -4
9 -9z m-1570 -13 c-4 -8 -12 -15 -20 -15 -8 0 -14 -7 -14 -15 0 -9 -6 -12 -16
-8 -19 7 4 30 53 52 1 1 0 -6 -3 -14z m-290 -31 c5 -14 4 -15 -9 -4 -17 14
-19 20 -6 20 5 0 12 -7 15 -16z m1853 0 c-3 -3 -12 -4 -19 -1 -8 3 -5 6 6 6
11 1 17 -2 13 -5z m26 -17 c-3 -13 -11 -24 -18 -24 -10 0 -10 5 2 24 8 13 16
23 18 23 1 0 0 -10 -2 -23z m-374 -12 c5 2 14 -2 20 -9 10 -12 7 -14 -14 -11
-19 2 -25 -1 -21 -12 3 -8 2 -12 -3 -8 -5 3 -11 -1 -14 -7 -2 -7 -3 3 -2 22 4
54 5 56 16 37 6 -9 14 -15 18 -12z m-1472 -17 c-3 -8 -6 -5 -6 6 -1 11 2 17 5
13 3 -3 4 -12 1 -19z m1643 7 c0 -2 -6 -5 -13 -8 -8 -3 -14 1 -14 8 0 7 6 11
14 8 7 -3 13 -6 13 -8z m44 0 c-4 -8 -8 -15 -10 -15 -2 0 -4 7 -4 15 0 8 4 15
10 15 5 0 7 -7 4 -15z m95 -8 c0 -9 -2 -8 -6 1 -2 6 -10 9 -15 6 -7 -4 -8 -2
-4 5 9 13 26 5 25 -12z m-239 -7 c0 -13 -5 -18 -15 -14 -8 4 -15 10 -15 16 0
5 5 6 10 3 6 -3 10 -1 10 4 0 6 2 11 5 11 3 0 5 -9 5 -20z m167 -5 c0 -8 -4
-15 -9 -15 -10 0 -11 14 -1 23 9 10 10 9 10 -8z m-1382 -15 c-9 -14 8 -13 23
2 9 9 15 9 25 -1 10 -10 9 -11 -4 -6 -18 7 -35 -20 -19 -30 19 -12 10 -31 -15
-31 -14 0 -25 6 -25 14 0 8 -5 10 -12 6 -9 -5 -9 -2 1 9 7 9 10 17 6 17 -4 0
-2 7 5 15 14 17 24 20 15 5z m1172 -12 c-1 -17 -17 -24 -30 -12 -9 10 3 31 18
31 7 0 13 -9 12 -19z m-1462 2 c-3 -5 -12 -10 -18 -10 -7 0 -6 4 3 10 19 12
23 12 15 0z m1161 1 c-6 -9 -46 -22 -46 -15 0 3 10 9 23 14 29 11 29 11 23 1z
m10867 -19 c39 -34 -9 -104 -67 -100 -18 1 -37 -1 -42 -5 -6 -3 -21 5 -34 18
-20 21 -22 28 -12 50 7 14 20 28 29 32 10 4 22 13 26 20 11 17 74 7 100 -15z
m-11648 8 c3 -6 -1 -7 -9 -4 -18 7 -21 14 -7 14 6 0 13 -4 16 -10z m1025 -14
c0 -11 -19 -15 -25 -6 -3 5 1 10 9 10 9 0 16 -2 16 -4z m-1463 -12 c-3 -3 -12
-4 -19 -1 -8 3 -5 6 6 6 11 1 17 -2 13 -5z m1507 -2 c2 -4 -4 -9 -15 -9 -11
-1 -17 2 -14 8 7 11 22 12 29 1z m-94 -30 c0 -4 -9 -8 -19 -8 -11 0 -17 4 -15
8 3 4 12 8 20 8 8 0 14 -4 14 -8z m-1398 -34 c-8 -8 -9 -4 -5 13 4 13 8 18 11
10 2 -7 -1 -18 -6 -23z m1197 16 c4 3 8 -1 8 -9 0 -11 -4 -12 -14 -4 -7 6 -13
17 -12 23 0 7 2 6 6 -2 2 -6 8 -10 12 -8z m-1155 -2 c3 -5 -1 -9 -9 -9 -8 0
-12 4 -9 9 3 4 7 8 9 8 2 0 6 -4 9 -8z m62 -18 c-4 -9 -9 -15 -11 -12 -3 3 -3
13 1 22 4 9 9 15 11 12 3 -3 3 -13 -1 -22z m1344 16 c0 -5 -7 -7 -15 -4 -8 4
-15 8 -15 10 0 2 7 4 15 4 8 0 15 -4 15 -10z m-265 -29 c-6 -5 -25 10 -25 20
0 5 6 4 14 -3 8 -7 12 -15 11 -17z m182 23 c-3 -3 -12 -4 -19 -1 -8 3 -5 6 6
6 11 1 17 -2 13 -5z m-1162 -13 c-3 -6 1 -13 9 -18 12 -7 12 -10 0 -21 -12
-11 -14 -10 -14 3 0 8 -4 15 -8 15 -5 0 -9 7 -9 15 0 8 7 15 14 15 8 0 12 -4
8 -9z m761 -20 c0 -15 -4 -17 -17 -11 -9 5 -20 6 -24 2 -4 -4 -2 3 5 15 16 24
36 21 36 -6z m174 25 c0 -2 -7 -7 -16 -10 -8 -3 -12 -2 -9 4 6 10 25 14 25 6z
m-1064 -15 c-4 -5 -1 -12 4 -14 6 -3 5 -4 -2 -3 -15 3 -23 26 -8 26 6 0 9 -4
6 -9z m1110 -23 c10 9 8 5 -5 -10 -24 -27 -61 -38 -61 -18 0 6 3 9 8 9 19 -3
22 3 12 24 l-11 22 19 -22 c18 -20 20 -21 38 -5z m222 -3 c-3 -3 -9 2 -12 12
-6 14 -5 15 5 6 7 -7 10 -15 7 -18z m-1016 -24 c-9 -18 -9 -28 3 -54 5 -13 1
-25 -14 -40 -18 -18 -21 -18 -15 -4 3 9 10 17 15 17 5 0 9 7 9 15 0 9 -6 12
-17 9 -15 -5 -16 -4 -3 5 13 9 13 11 -2 11 -9 0 -18 -4 -20 -9 -1 -5 -10 -2
-18 7 -13 14 -12 15 3 9 9 -3 17 -2 17 4 0 6 4 8 9 5 5 -3 12 2 15 11 4 9 1
20 -5 24 -6 4 -8 12 -4 18 11 19 36 -7 27 -28z m-348 21 c3 -5 -1 -9 -9 -9 -8
0 -12 4 -9 9 3 4 7 8 9 8 2 0 6 -4 9 -8z m76 -14 c0 -6 -3 -8 -7 -5 -3 4 -13
1 -21 -6 -13 -11 -14 -9 -2 10 14 22 30 22 30 1z m55 13 c3 -5 1 -12 -5 -16
-6 -4 -7 -11 -4 -17 4 -7 2 -8 -5 -4 -9 6 -9 11 1 24 11 13 10 15 -5 9 -11 -4
-16 -3 -12 3 8 13 22 13 30 1z m311 -5 c14 4 24 2 24 -5 0 -6 -7 -8 -15 -5 -8
4 -15 1 -15 -6 0 -8 9 -10 25 -6 25 6 36 -9 13 -16 -9 -3 -9 -6 1 -12 8 -5 14
-1 18 13 3 12 9 21 15 21 5 0 4 -8 -1 -19 -6 -10 -8 -21 -5 -24 12 -12 -25 0
-42 13 -11 9 -15 10 -10 3 5 -9 0 -13 -16 -12 -13 0 -18 3 -11 5 20 9 2 34
-24 34 -16 0 -22 -4 -17 -12 4 -8 3 -10 -2 -5 -5 5 -9 14 -9 20 0 14 38 27 43
15 2 -4 15 -5 28 -2z m419 4 c3 -5 1 -10 -5 -10 -7 0 -8 -6 -1 -18 6 -12 5
-23 -4 -35 -12 -16 -13 -13 -13 27 0 44 9 58 23 36z m422 -22 c-3 -7 -5 -2 -5
12 0 14 2 19 5 13 2 -7 2 -19 0 -25z m10815 11 c35 -15 70 -73 75 -122 7 -59
-19 -112 -65 -136 -31 -16 -41 -16 -89 -5 -30 7 -56 14 -56 16 -1 2 -8 12 -15
23 -41 67 -51 126 -24 151 11 10 21 28 23 38 7 35 103 57 151 35z m-11132 -3
c0 -2 -7 -7 -16 -10 -8 -3 -12 -2 -9 4 6 10 25 14 25 6z m-743 -43 c-10 -10
-17 -12 -22 -4 -3 7 -1 10 6 9 7 -2 14 3 15 10 3 24 6 27 11 14 3 -8 -1 -21
-10 -29z m-134 10 c-3 -7 -6 -13 -8 -13 -2 0 -5 6 -8 13 -3 8 1 14 8 14 7 0
11 -6 8 -14z m77 0 c0 -10 -4 -14 -8 -8 -4 6 -11 13 -16 18 -5 4 -2 7 7 7 10
0 17 -8 17 -17z m211 -10 c13 -16 12 -17 -3 -4 -10 7 -18 15 -18 17 0 8 8 3
21 -13z m647 2 c3 -3 -4 -4 -16 -2 -12 2 -24 6 -28 10 -4 3 4 4 16 2 12 -2 25
-7 28 -10z m-274 -11 c5 -14 4 -15 -9 -4 -17 14 -19 20 -6 20 5 0 12 -7 15
-16z m176 6 c0 -5 -2 -10 -4 -10 -3 0 -8 5 -11 10 -3 6 -1 10 4 10 6 0 11 -4
11 -10z m-223 -6 c-3 -3 -12 -4 -19 -1 -8 3 -5 6 6 6 11 1 17 -2 13 -5z m467
-23 c-2 -3 -12 3 -22 13 -16 17 -16 18 5 5 12 -7 20 -15 17 -18z m-278 -13
c-9 -12 -16 -17 -16 -10 0 14 23 42 29 37 1 -2 -4 -14 -13 -27z m-429 -10 c-3
-7 -5 -2 -5 12 0 14 2 19 5 13 2 -7 2 -19 0 -25z m11225 10 c5 -37 -3 -108
-13 -108 -4 0 -13 9 -19 20 -8 15 -7 27 5 49 8 16 12 37 9 45 -3 9 -1 16 4 16
6 0 12 -10 14 -22z m-11392 8 c0 -2 -9 -6 -20 -9 -11 -3 -18 -1 -14 4 5 9 34
13 34 5z m147 -18 c-3 -8 -6 -5 -6 6 -1 11 2 17 5 13 3 -3 4 -12 1 -19z m-37
8 c0 -2 -6 -9 -14 -15 -11 -9 -16 -9 -22 0 -4 7 -3 9 4 5 6 -3 13 -2 17 4 6
10 15 14 15 6z m171 -13 c13 -16 12 -17 -3 -4 -10 7 -18 15 -18 17 0 8 8 3 21
-13z m69 -1 c0 -5 -7 -9 -15 -9 -8 0 -12 4 -9 9 3 4 9 8 15 8 5 0 9 -4 9 -8z
m-254 -59 c-10 -11 -19 -7 -22 10 -2 15 0 16 12 6 8 -6 12 -14 10 -16z m74 12
c0 -8 -7 -15 -15 -15 -13 0 -14 3 -3 15 16 18 18 18 18 0z m10726 -1955 c31 0
58 -41 50 -75 -4 -14 -12 -25 -18 -25 -6 0 -19 -7 -29 -16 -14 -13 -29 -15
-63 -10 -51 8 -60 16 -74 68 -7 27 -7 40 1 47 13 10 74 20 95 14 8 -1 24 -3
38 -3z m95 -181 c38 -15 84 -101 73 -137 -4 -15 -8 -34 -8 -42 -2 -45 -98 -99
-152 -86 -33 9 -94 64 -94 87 0 10 -5 30 -12 44 -9 19 -9 28 0 37 7 7 12 21
12 32 0 20 27 56 42 56 5 0 16 7 25 15 16 16 61 14 114 -6z m-427 -130 c7 -35
1 -49 -20 -49 -21 0 -27 22 -15 53 14 36 27 34 35 -4z m2289 -74 c-3 -9 -8
-14 -10 -11 -3 3 -2 9 2 15 9 16 15 13 8 -4z m-3 -42 c0 -3 -6 -3 -14 0 -11 5
-13 -1 -9 -27 3 -19 1 -36 -5 -40 -6 -4 -9 -13 -6 -21 3 -8 -3 -34 -14 -57
-54 -116 -117 -264 -114 -271 1 -4 -5 -10 -13 -13 -8 -4 -15 -11 -15 -17 0
-10 -95 -187 -128 -239 -9 -14 -30 -48 -46 -75 -16 -26 -42 -64 -58 -84 -15
-20 -28 -41 -28 -45 0 -5 -13 -23 -28 -40 -15 -18 -34 -42 -42 -54 -14 -21
-74 -100 -109 -143 -53 -65 -230 -237 -244 -237 -9 0 -17 -5 -17 -12 0 -6 -3
-8 -7 -5 -4 4 3 21 15 37 12 16 22 34 22 40 0 5 4 10 8 10 4 0 16 15 27 33 20
34 30 47 58 78 9 10 15 19 12 19 -3 0 3 9 13 20 10 11 25 33 33 48 7 15 24 38
36 50 12 13 28 37 35 53 7 16 16 29 20 29 5 0 8 6 8 13 0 8 9 22 20 32 11 10
17 22 14 26 -3 5 0 9 5 9 6 0 11 7 11 16 0 8 4 13 9 10 5 -3 15 9 22 27 14 36
67 118 83 129 6 4 7 8 3 8 -5 0 0 12 10 28 10 15 25 39 33 55 7 15 17 27 22
27 4 0 8 4 8 9 0 5 23 48 50 96 28 48 50 90 50 95 0 5 3 10 8 12 7 3 71 119
70 128 0 12 26 60 33 60 4 0 17 20 29 45 13 28 26 43 33 38 7 -3 9 -3 5 1 -14
16 58 117 78 109 8 -3 14 -7 14 -10z m-5249 -586 c42 -28 45 -62 9 -89 -29
-22 -88 -33 -124 -24 -35 9 -88 83 -76 107 10 17 22 20 131 27 14 1 41 -8 60
-21z m93 -177 c43 -30 76 -83 76 -122 0 -45 -21 -97 -41 -103 -10 -4 -16 -12
-13 -19 3 -9 -5 -15 -23 -19 -15 -2 -43 -11 -61 -18 -30 -13 -35 -12 -47 4
-10 13 -14 15 -18 5 -9 -27 -61 26 -75 77 -14 50 -9 155 8 155 5 0 17 13 26
30 10 16 27 31 38 34 40 8 97 -2 130 -24z m1738 -57 c30 -27 23 -62 -17 -79
-41 -17 -69 -18 -93 -3 -27 17 -16 57 22 80 38 23 64 24 88 2z m-2202 -43 c0
-12 -3 -12 -16 2 -9 9 -13 21 -9 28 9 14 25 -5 25 -30z m2288 -127 c45 -34 63
-81 53 -140 -10 -64 -26 -87 -78 -112 -41 -20 -46 -20 -80 -6 -50 21 -72 42
-94 90 -27 58 -24 107 7 145 52 61 128 70 192 23z m-462 -99 c7 -49 -4 -71
-30 -61 -19 8 -21 59 -4 87 19 30 26 25 34 -26z"/>
<path d="M12125 20540 c3 -5 12 -7 20 -3 21 7 19 13 -6 13 -11 0 -18 -4 -14
-10z"/>
<path d="M12205 20520 c-3 -6 1 -7 9 -4 18 7 21 14 7 14 -6 0 -13 -4 -16 -10z"/>
<path d="M12522 20460 c-7 -12 -8 -20 -2 -20 5 0 10 4 10 8 0 5 10 14 23 20
21 10 21 11 2 11 -11 1 -26 -8 -33 -19z"/>
<path d="M11690 20350 c-8 -5 -12 -12 -9 -15 8 -8 39 5 39 16 0 11 -11 11 -30
-1z"/>
<path d="M11645 20330 c-3 -5 -1 -10 4 -10 6 0 11 5 11 10 0 6 -2 10 -4 10 -3
0 -8 -4 -11 -10z"/>
<path d="M11566 20295 c-3 -8 -1 -15 4 -15 6 0 10 7 10 15 0 8 -2 15 -4 15 -2
0 -6 -7 -10 -15z"/>
<path d="M11626 20275 c4 -8 10 -12 15 -9 11 6 2 24 -11 24 -5 0 -7 -7 -4 -15z"/>
<path d="M11555 20260 c-3 -5 -2 -10 4 -10 5 0 13 5 16 10 3 6 2 10 -4 10 -5
0 -13 -4 -16 -10z"/>
<path d="M12850 20234 c0 -8 5 -12 10 -9 6 4 8 11 5 16 -9 14 -15 11 -15 -7z"/>
<path d="M11578 20233 c7 -3 16 -2 19 1 4 3 -2 6 -13 5 -11 0 -14 -3 -6 -6z"/>
<path d="M11460 20080 c-23 -7 -23 -8 -3 -9 12 -1 25 4 28 9 3 6 5 10 3 9 -2
-1 -14 -5 -28 -9z"/>
<path d="M11415 20038 c-7 -25 -12 -69 -7 -63 12 12 29 75 21 75 -6 0 -11 -6
-14 -12z"/>
<path d="M13050 19988 c0 -7 5 -20 10 -28 8 -12 10 -11 10 7 0 12 -4 25 -10
28 -5 3 -10 0 -10 -7z"/>
<path d="M11433 19925 c-3 -9 -3 -18 -1 -21 3 -3 8 4 11 16 6 23 -1 27 -10 5z"/>
<path d="M11356 19904 c-5 -14 -4 -15 9 -4 17 14 19 20 6 20 -5 0 -12 -7 -15
-16z"/>
<path d="M11305 19819 c-4 -6 -5 -12 -2 -15 2 -3 7 2 10 11 7 17 1 20 -8 4z"/>
<path d="M13073 19784 c-15 -16 -16 -24 -4 -24 8 0 24 30 19 35 -2 2 -9 -3
-15 -11z"/>
<path d="M11249 19678 c-6 -86 -4 -105 7 -105 8 0 9 9 3 33 -6 20 -6 42 1 59
12 33 12 35 0 35 -5 0 -11 -10 -11 -22z"/>
<path d="M11171 19604 c0 -11 3 -14 6 -6 3 7 2 16 -1 19 -3 4 -6 -2 -5 -13z"/>
<path d="M9346 20231 c-3 -5 1 -11 9 -15 9 -3 15 0 15 9 0 16 -16 20 -24 6z"/>
<path d="M9590 20184 c0 -20 17 -44 32 -44 4 0 8 8 8 18 0 14 -2 15 -10 2 -7
-10 -10 -11 -11 -2 -3 27 -4 31 -11 38 -5 4 -8 -2 -8 -12z"/>
<path d="M9133 20160 c-11 -16 -10 -18 1 -14 15 6 30 34 18 34 -4 0 -13 -9
-19 -20z"/>
<path d="M9020 20109 c0 -5 5 -7 10 -4 6 3 10 8 10 11 0 2 -4 4 -10 4 -5 0
-10 -5 -10 -11z"/>
<path d="M9045 20090 c-3 -6 1 -7 9 -4 18 7 21 14 7 14 -6 0 -13 -4 -16 -10z"/>
<path d="M9671 20004 c0 -11 3 -14 6 -6 3 7 2 16 -1 19 -3 4 -6 -2 -5 -13z"/>
<path d="M8975 19984 c-9 -9 -13 -19 -10 -22 3 -3 14 4 25 16 24 25 10 30 -15
6z"/>
<path d="M9706 19924 c-10 -25 1 -29 14 -5 6 12 7 21 1 21 -5 0 -12 -7 -15
-16z"/>
<path d="M8907 19902 c-9 -9 -13 -23 -9 -29 5 -8 12 -2 19 17 13 35 12 36 -10
12z"/>
<path d="M8865 19860 c3 -5 8 -10 11 -10 2 0 4 5 4 10 0 6 -5 10 -11 10 -5 0
-7 -4 -4 -10z"/>
<path d="M9750 19721 c-14 -27 -13 -94 3 -114 10 -15 12 -5 12 58 0 41 -1 75
-2 75 -1 0 -7 -9 -13 -19z"/>
<path d="M8800 19647 c0 -10 -7 -13 -18 -10 -14 3 -18 -3 -20 -31 -2 -20 -1
-36 1 -36 12 0 55 80 47 85 -6 3 -10 0 -10 -8z"/>
<path d="M8797 19566 c-4 -10 -7 -25 -6 -34 0 -11 4 -9 10 7 5 13 8 29 6 35
-2 5 -6 2 -10 -8z"/>
<path d="M9691 19504 c0 -11 3 -14 6 -6 3 7 2 16 -1 19 -3 4 -6 -2 -5 -13z"/>
<path d="M9680 19356 c0 -8 -3 -16 -7 -19 -5 -2 -3 -2 4 -1 6 2 14 -9 16 -24
3 -21 4 -19 6 10 0 20 -3 40 -9 43 -5 3 -10 0 -10 -9z"/>
<path d="M8691 19163 c0 -25 1 -26 9 -8 12 27 12 35 0 35 -5 0 -10 -12 -9 -27z"/>
<path d="M11140 18810 c0 -5 5 -10 10 -10 6 0 10 5 10 10 0 6 -4 10 -10 10 -5
0 -10 -4 -10 -10z"/>
<path d="M5845 16720 c-3 -6 1 -7 9 -4 18 7 21 14 7 14 -6 0 -13 -4 -16 -10z"/>
<path d="M5521 16500 c-13 -11 -19 -20 -14 -20 6 0 18 9 28 20 23 25 17 25
-14 0z"/>
<path d="M8522 15998 c-14 -14 -16 -38 -3 -38 5 0 14 7 21 15 17 20 0 41 -18
23z"/>
<path d="M8576 15981 c-3 -5 1 -11 9 -15 9 -3 15 0 15 9 0 16 -16 20 -24 6z"/>
<path d="M8393 15915 c-3 -9 -3 -18 -1 -21 3 -3 8 4 11 16 6 23 -1 27 -10 5z"/>
<path d="M8320 15776 c0 -8 -8 -17 -17 -19 -14 -4 -12 -5 5 -6 16 -1 22 5 22
19 0 11 -2 20 -5 20 -3 0 -5 -6 -5 -14z"/>
<path d="M8310 15695 c0 -8 2 -15 4 -15 2 0 6 7 10 15 3 8 1 15 -4 15 -6 0
-10 -7 -10 -15z"/>
<path d="M8281 15673 c-1 -25 2 -31 14 -27 10 4 12 10 7 18 -5 6 -12 18 -15
26 -3 8 -6 1 -6 -17z"/>
<path d="M8120 15585 c-10 -12 -10 -15 4 -15 9 0 16 7 16 15 0 8 -2 15 -4 15
-2 0 -9 -7 -16 -15z"/>
<path d="M7982 15575 c-16 -19 -3 -19 22 0 14 11 16 15 5 15 -8 -1 -20 -7 -27
-15z"/>
<path d="M7808 15483 c7 -3 16 -2 19 1 4 3 -2 6 -13 5 -11 0 -14 -3 -6 -6z"/>
<path d="M7528 15473 c7 -3 16 -2 19 1 4 3 -2 6 -13 5 -11 0 -14 -3 -6 -6z"/>
<path d="M7330 15440 c-18 -12 -2 -12 25 0 13 6 15 9 5 9 -8 0 -22 -4 -30 -9z"/>
<path d="M7215 15410 c-16 -7 -17 -9 -3 -9 9 -1 20 4 23 9 7 11 7 11 -20 0z"/>
<path d="M7440 15410 c17 -11 57 -14 47 -3 -4 3 -19 8 -34 9 -21 2 -24 1 -13
-6z"/>
<path d="M7100 15390 c-9 -6 -10 -10 -3 -10 6 0 15 5 18 10 8 12 4 12 -15 0z"/>
<path d="M7473 15033 c9 -2 17 -8 17 -13 0 -5 -8 -14 -17 -19 -29 -17 -5 -12
29 5 17 9 42 14 57 11 24 -5 24 -4 6 9 -10 8 -39 13 -64 13 -25 -1 -38 -3 -28
-6z"/>
<path d="M7393 14992 c-32 -15 -44 -32 -23 -32 6 0 10 5 10 10 0 6 10 8 23 5
18 -5 23 -2 24 14 1 12 1 20 0 20 -1 -1 -17 -9 -34 -17z"/>
<path d="M7525 14980 c-3 -5 -2 -10 4 -10 5 0 13 5 16 10 3 6 2 10 -4 10 -5 0
-13 -4 -16 -10z"/>
<path d="M8048 14959 c-20 -13 28 -15 52 -2 25 12 25 12 -8 10 -19 -1 -38 -5
-44 -8z"/>
<path d="M7285 14950 c-3 -5 -2 -10 4 -10 5 0 13 5 16 10 3 6 2 10 -4 10 -5 0
-13 -4 -16 -10z"/>
<path d="M8100 14936 c0 -2 7 -7 16 -10 8 -3 12 -2 9 4 -6 10 -25 14 -25 6z"/>
<path d="M8330 14790 c-13 -8 -13 -10 1 -10 9 0 22 -7 29 -15 17 -21 24 -12
10 14 -12 23 -18 25 -40 11z"/>
<path d="M7010 14740 c0 -5 5 -10 11 -10 5 0 7 5 4 10 -3 6 -8 10 -11 10 -2 0
-4 -4 -4 -10z"/>
<path d="M7040 14739 c0 -5 5 -7 10 -4 6 3 10 8 10 11 0 2 -4 4 -10 4 -5 0
-10 -5 -10 -11z"/>
<path d="M6980 14731 c0 -5 -3 -16 -6 -25 -4 -10 -1 -16 7 -16 8 0 14 11 14
25 0 14 -3 25 -7 25 -5 0 -8 -4 -8 -9z"/>
<path d="M6985 14660 c-3 -5 -1 -10 4 -10 6 0 11 5 11 10 0 6 -2 10 -4 10 -3
0 -8 -4 -11 -10z"/>
<path d="M6903 14620 c-11 -16 -10 -18 1 -14 15 6 30 34 18 34 -4 0 -13 -9
-19 -20z"/>
<path d="M6961 14623 c-1 -6 -4 -20 -7 -30 -5 -17 -5 -17 6 0 6 10 9 23 6 30
-3 9 -5 9 -5 0z"/>
<path d="M6810 14535 c0 -13 4 -14 20 -5 11 6 20 13 20 15 0 3 -9 5 -20 5 -11
0 -20 -7 -20 -15z"/>
<path d="M6910 14535 c-8 -9 -8 -15 -2 -15 12 0 26 19 19 26 -2 2 -10 -2 -17
-11z"/>
<path d="M6771 14398 c0 -7 4 -22 9 -33 7 -17 9 -15 9 13 1 17 -3 32 -9 32 -5
0 -10 -6 -9 -12z"/>
<path d="M6730 14370 c-8 -5 -12 -11 -9 -14 3 -3 14 1 25 9 21 16 8 20 -16 5z"/>
<path d="M6805 14340 c-10 -11 -16 -22 -13 -25 3 -3 13 6 22 20 20 30 16 32
-9 5z"/>
<path d="M8731 14324 c0 -11 3 -14 6 -6 3 7 2 16 -1 19 -3 4 -6 -2 -5 -13z"/>
<path d="M6805 14289 c-4 -6 -5 -12 -2 -15 2 -3 7 2 10 11 7 17 1 20 -8 4z"/>
<path d="M8736 14284 c-4 -9 -4 -19 -1 -22 2 -3 7 3 11 12 4 9 4 19 1 22 -2 3
-7 -3 -11 -12z"/>
<path d="M6777 14273 c-4 -3 -7 -11 -7 -17 0 -6 5 -5 12 2 6 6 9 14 7 17 -3 3
-9 2 -12 -2z"/>
<path d="M6732 14135 c0 -16 2 -22 5 -12 2 9 2 23 0 30 -3 6 -5 -1 -5 -18z"/>
<path d="M8783 14095 c-7 -8 -9 -16 -4 -19 5 -3 12 1 15 10 8 22 4 25 -11 9z"/>
<path d="M6732 13805 c0 -16 2 -22 5 -12 2 9 2 23 0 30 -3 6 -5 -1 -5 -18z"/>
<path d="M6742 13730 c0 -14 2 -19 5 -12 2 6 2 18 0 25 -3 6 -5 1 -5 -13z"/>
<path d="M8810 13723 c0 -6 -3 -20 -7 -30 -7 -17 -6 -17 11 0 14 14 16 21 7
30 -8 8 -11 8 -11 0z"/>
<path d="M8697 13363 c-4 -3 -7 -16 -6 -27 0 -19 1 -19 10 3 10 24 8 36 -4 24z"/>
<path d="M6915 13240 c3 -5 8 -10 11 -10 2 0 4 5 4 10 0 6 -5 10 -11 10 -5 0
-7 -4 -4 -10z"/>
<path d="M8630 13228 c0 -7 -9 -24 -20 -38 -11 -14 -20 -32 -19 -40 0 -10 3
-9 11 5 6 11 14 22 18 25 8 6 30 46 30 54 0 12 -20 5 -20 -6z"/>
<path d="M8565 13189 c-4 -6 -5 -12 -2 -15 2 -3 7 2 10 11 7 17 1 20 -8 4z"/>
<path d="M8550 13141 c0 -5 5 -13 10 -16 6 -3 10 -2 10 4 0 5 -4 13 -10 16 -5
3 -10 2 -10 -4z"/>
<path d="M7060 13060 c0 -6 7 -10 15 -10 8 0 15 2 15 4 0 2 -7 6 -15 10 -8 3
-15 1 -15 -4z"/>
<path d="M7220 12972 c0 -10 41 -24 49 -17 6 7 0 11 -26 19 -13 4 -23 3 -23
-2z"/>
<path d="M8255 12931 c-3 -6 3 -9 14 -8 11 0 17 5 15 9 -7 11 -22 10 -29 -1z"/>
<path d="M7433 12823 c9 -2 23 -2 30 0 6 3 -1 5 -18 5 -16 0 -22 -2 -12 -5z"/>
<path d="M7523 12813 c9 -2 23 -2 30 0 6 3 -1 5 -18 5 -16 0 -22 -2 -12 -5z"/>
<path d="M7874 12804 c-18 -14 -18 -14 6 -3 31 14 36 19 24 19 -6 0 -19 -7
-30 -16z"/>
<path d="M7740 12790 c20 -13 43 -13 35 0 -3 6 -16 10 -28 10 -18 0 -19 -2 -7
-10z"/>
<path d="M4790 14703 c0 -10 40 -36 46 -30 3 2 -7 12 -21 21 -14 9 -25 13 -25
9z"/>
<path d="M4903 14645 c-10 -30 -8 -39 8 -58 10 -12 18 -17 19 -10 0 6 3 19 7
29 5 14 3 16 -13 10 -15 -6 -17 -5 -6 5 13 14 17 59 4 59 -5 0 -13 -16 -19
-35z"/>
<path d="M4890 14566 c0 -9 5 -16 10 -16 6 0 10 4 10 9 0 6 -4 13 -10 16 -5 3
-10 -1 -10 -9z"/>
<path d="M4960 14351 c0 -5 5 -13 10 -16 6 -3 10 -2 10 4 0 5 -4 13 -10 16 -5
3 -10 2 -10 -4z"/>
<path d="M4941 14114 c0 -11 3 -14 6 -6 3 7 2 16 -1 19 -3 4 -6 -2 -5 -13z"/>
<path d="M3831 14084 c0 -11 3 -14 6 -6 3 7 2 16 -1 19 -3 4 -6 -2 -5 -13z"/>
<path d="M4945 13923 c-12 -28 -15 -63 -5 -63 10 0 25 68 17 76 -2 3 -8 -3
-12 -13z"/>
<path d="M4915 13730 c-3 -5 -1 -10 4 -10 6 0 11 5 11 10 0 6 -2 10 -4 10 -3
0 -8 -4 -11 -10z"/>
<path d="M3724 13610 c8 -42 13 -47 29 -30 7 8 8 11 1 7 -13 -7 -27 19 -19 33
3 5 0 12 -6 16 -9 5 -10 -2 -5 -26z"/>
<path d="M3711 13564 c0 -11 3 -14 6 -6 3 7 2 16 -1 19 -3 4 -6 -2 -5 -13z"/>
<path d="M3690 13478 c0 -19 2 -20 10 -8 13 19 13 30 0 30 -5 0 -10 -10 -10
-22z"/>
<path d="M3731 13474 c0 -11 3 -14 6 -6 3 7 2 16 -1 19 -3 4 -6 -2 -5 -13z"/>
<path d="M4806 13191 c-4 -7 -5 -15 -2 -18 9 -9 19 4 14 18 -4 11 -6 11 -12 0z"/>
<path d="M3742 13010 c0 -14 2 -19 5 -12 2 6 2 18 0 25 -3 6 -5 1 -5 -13z"/>
<path d="M4832 12960 c-15 -24 -16 -47 -2 -52 5 -1 12 -29 14 -61 5 -75 12
-82 14 -14 2 31 -4 64 -13 81 -12 22 -12 32 -4 43 7 7 10 15 8 18 -3 2 -10 -5
-17 -15z"/>
<path d="M4901 12774 c0 -11 3 -14 6 -6 3 7 2 16 -1 19 -3 4 -6 -2 -5 -13z"/>
<path d="M4893 12744 c3 -6 3 -24 -2 -40 -4 -16 -5 -40 -1 -54 l6 -25 7 26 c4
14 5 35 2 47 -5 29 3 28 14 0 7 -19 9 -16 8 16 -1 21 -3 34 -5 27 -3 -9 -8 -9
-20 1 -9 7 -13 8 -9 2z"/>
<path d="M4966 12427 c3 -10 9 -15 12 -12 3 3 0 11 -7 18 -10 9 -11 8 -5 -6z"/>
<path d="M3955 12261 c3 -24 10 -51 15 -60 7 -11 8 -2 4 29 -4 25 -11 52 -16
60 -6 10 -7 0 -3 -29z"/>
<path d="M4997 12093 c-4 -7 -2 -15 4 -18 6 -4 8 -23 5 -49 -4 -29 -3 -35 3
-21 6 12 10 14 10 6 1 -20 14 -4 16 19 1 11 -1 17 -4 14 -3 -3 -10 9 -16 27
-7 19 -14 28 -18 22z"/>
<path d="M4885 11861 c-3 -5 -1 -12 5 -16 5 -3 10 1 10 9 0 18 -6 21 -15 7z"/>
<path d="M4923 11843 c9 -2 23 -2 30 0 6 3 -1 5 -18 5 -16 0 -22 -2 -12 -5z"/>
<path d="M4715 11752 c-12 -12 -3 -20 16 -15 12 4 25 0 30 -8 5 -8 9 -9 9 -4
0 25 -38 44 -55 27z"/>
<path d="M4785 11740 c-3 -5 1 -10 10 -10 9 0 13 5 10 10 -3 6 -8 10 -10 10
-2 0 -7 -4 -10 -10z"/>
<path d="M4485 11710 c-8 -13 5 -13 25 0 13 8 13 10 -2 10 -9 0 -20 -4 -23
-10z"/>
<path d="M6350 9791 c0 -6 4 -13 10 -16 6 -3 7 1 4 9 -7 18 -14 21 -14 7z"/>
<path d="M6143 9746 c0 -8 6 -12 14 -9 7 3 10 9 7 14 -8 14 -21 11 -21 -5z"/>
<path d="M5944 9742 c4 -7 3 -12 -1 -12 -5 0 -9 -10 -10 -22 0 -13 1 -17 4
-10 3 6 8 10 12 8 4 -3 7 4 8 14 1 11 -3 23 -9 26 -7 4 -8 2 -4 -4z"/>
<path d="M6515 9721 c-12 -11 -3 -19 15 -14 11 3 20 0 20 -6 0 -6 4 -11 9 -11
5 0 7 8 4 18 -4 16 -37 25 -48 13z"/>
<path d="M6380 9710 c-8 -5 -12 -12 -9 -15 4 -3 12 1 19 10 14 17 11 19 -10 5z"/>
<path d="M6036 9698 c3 -5 10 -6 15 -3 13 9 11 12 -6 12 -8 0 -12 -4 -9 -9z"/>
<path d="M6633 9645 c-3 -9 -3 -18 -1 -21 3 -3 8 4 11 16 6 23 -1 27 -10 5z"/>
<path d="M5837 9635 c-8 -8 -17 -11 -21 -8 -3 4 -6 2 -6 -4 0 -13 28 -25 40
-18 11 7 20 45 10 45 -5 0 -15 -7 -23 -15z"/>
<path d="M6574 9629 c-4 -7 -3 -9 4 -5 6 3 18 -1 26 -10 9 -8 21 -14 26 -12 6
2 -3 11 -19 21 -22 13 -32 14 -37 6z"/>
<path d="M5916 9621 c-17 -6 -17 -8 -4 -14 10 -3 19 0 22 9 3 8 4 14 3 13 -1
0 -11 -4 -21 -8z"/>
<path d="M6785 9619 c4 -5 -8 -12 -25 -15 -17 -4 -33 -11 -36 -16 -3 -5 -15
-2 -25 8 -23 21 -26 12 -3 -11 11 -10 20 -13 28 -6 19 16 47 7 63 -20 14 -23
14 -23 10 -1 -3 14 0 22 8 22 7 0 18 6 24 14 9 11 6 16 -19 25 -18 6 -28 6
-25 0z m15 -19 c0 -5 -8 -10 -17 -10 -15 0 -16 2 -3 10 19 12 20 12 20 0z"/>
<path d="M5876 9597 c3 -10 9 -15 12 -12 3 3 0 11 -7 18 -10 9 -11 8 -5 -6z"/>
<path d="M6667 9584 c-8 -8 3 -34 15 -34 7 0 6 5 -1 13 -6 8 -8 17 -4 20 3 4
4 7 1 7 -2 0 -7 -3 -11 -6z"/>
<path d="M5714 9556 c0 -14 6 -22 14 -19 17 7 15 43 -2 43 -8 0 -13 -9 -12
-24z"/>
<path d="M6816 9571 c-3 -5 1 -11 9 -15 9 -3 15 0 15 9 0 16 -16 20 -24 6z"/>
<path d="M6690 9526 c0 -8 4 -17 9 -20 5 -4 7 3 4 14 -6 23 -13 26 -13 6z"/>
<path d="M6812 9529 c-13 -5 -21 -13 -18 -18 3 -5 0 -11 -8 -14 -10 -4 -12 0
-8 16 5 19 4 19 -11 6 -13 -12 -13 -16 -2 -28 13 -13 17 -12 33 2 10 9 23 17
29 17 5 0 10 7 10 15 0 8 -1 15 -1 14 -1 0 -11 -4 -24 -10z"/>
<path d="M5848 9523 c7 -3 16 -2 19 1 4 3 -2 6 -13 5 -11 0 -14 -3 -6 -6z"/>
<path d="M5780 9518 c0 -3 9 -15 20 -28 11 -13 20 -19 20 -13 0 5 -9 18 -20
28 -11 10 -20 16 -20 13z"/>
<path d="M6111 9504 c0 -11 3 -14 6 -6 3 7 2 16 -1 19 -3 4 -6 -2 -5 -13z"/>
<path d="M7017 9502 c-15 -17 -15 -19 2 -34 18 -15 19 -15 24 7 6 35 -6 49
-26 27z"/>
<path d="M5753 9476 c6 -14 4 -17 -10 -12 -15 6 -15 4 2 -14 20 -22 30 -27 19
-9 -3 6 -2 14 4 18 6 4 4 12 -6 21 -14 13 -15 12 -9 -4z"/>
<path d="M6917 9456 c-3 -8 -2 -18 4 -22 16 -9 22 2 11 21 -8 15 -10 16 -15 1z"/>
<path d="M5619 9430 c-31 -32 -32 -41 -5 -29 14 7 23 16 20 20 -3 5 0 9 5 9 6
0 11 -7 11 -15 0 -19 14 -19 29 -1 9 11 8 14 -6 12 -10 0 -17 4 -16 10 3 16
-20 12 -38 -6z"/>
<path d="M6855 9439 c-4 -6 -5 -12 -2 -15 2 -3 7 2 10 11 7 17 1 20 -8 4z"/>
<path d="M5730 9422 c0 -5 7 -9 15 -9 8 0 12 4 9 9 -3 4 -9 8 -15 8 -5 0 -9
-4 -9 -8z"/>
<path d="M5789 9410 c-14 -12 -18 -19 -9 -18 18 4 44 27 38 34 -3 2 -16 -5
-29 -16z"/>
<path d="M7091 9406 c-1 -23 -5 -27 -20 -23 -10 2 -25 1 -32 -4 -8 -5 -17 -3
-21 4 -4 7 -7 -3 -7 -23 0 -31 1 -32 9 -12 6 14 17 22 32 21 13 0 17 -3 10 -6
-6 -2 -10 -9 -7 -13 3 -5 1 -11 -5 -15 -5 -3 -10 2 -11 12 0 11 -3 13 -6 5 -3
-7 1 -20 8 -28 11 -13 10 -15 -6 -12 -12 2 -21 -4 -23 -16 -3 -13 0 -16 9 -11
9 6 11 -4 6 -44 -4 -32 -2 -49 3 -46 6 4 10 13 10 21 0 8 4 14 9 14 12 0 1
-43 -13 -52 -8 -5 -7 -8 1 -8 6 0 15 5 18 10 4 6 10 8 15 5 21 -13 18 15 -4
38 -23 25 -23 26 -5 32 15 5 17 10 9 25 -15 28 -12 40 8 37 9 -1 17 -7 17 -12
0 -6 -3 -9 -7 -8 -7 3 -2 -37 7 -45 3 -3 5 4 5 14 0 11 5 25 12 32 9 9 8 15
-6 25 -16 12 -16 14 -2 26 13 11 19 11 31 1 8 -7 12 -17 9 -24 -3 -6 2 -2 10
8 19 23 20 36 5 36 -5 0 -7 -4 -4 -10 9 -14 -7 -12 -27 4 -10 7 -14 17 -10 21
4 5 2 5 -5 1 -7 -4 -13 4 -16 21 l-4 28 -2 -29z m5 -55 c-9 -10 -14 -20 -11
-22 2 -3 -4 -5 -14 -5 -17 0 -17 2 2 28 11 15 24 25 29 22 5 -3 2 -14 -6 -23z
m-36 -83 c0 -19 -16 -5 -17 14 -2 18 0 20 7 8 5 -8 10 -18 10 -22z"/>
<path d="M6784 9400 c0 -13 4 -16 10 -10 7 7 7 13 0 20 -6 6 -10 3 -10 -10z"/>
<path d="M6994 9406 c-4 -11 -13 -14 -25 -11 -14 5 -19 1 -19 -10 0 -12 6 -16
19 -12 15 3 19 0 18 -14 -1 -19 -17 -27 -17 -9 0 6 -8 10 -17 10 -15 0 -16 -2
-3 -10 13 -9 13 -11 0 -21 -12 -8 -10 -9 9 -4 16 5 21 4 17 -4 -4 -6 -1 -11 8
-11 10 0 14 11 14 38 0 64 0 64 24 51 17 -9 23 -9 26 0 3 9 7 9 18 0 10 -8 14
-8 14 0 0 6 -1 11 -2 11 -72 11 -78 11 -84 -4z"/>
<path d="M5687 9404 c-4 -4 -7 -12 -7 -18 0 -6 5 -4 10 4 8 13 10 12 11 -5 1
-11 1 -26 0 -34 -2 -7 4 -11 11 -8 7 2 20 0 30 -4 11 -6 18 -4 21 5 4 10 0 12
-14 9 -15 -4 -18 -2 -13 13 6 18 6 18 -7 1 -14 -17 -15 -17 -16 4 -2 25 -16
43 -26 33z"/>
<path d="M5860 9406 c0 -2 7 -7 16 -10 8 -3 12 -2 9 4 -6 10 -25 14 -25 6z"/>
<path d="M5620 9390 c0 -5 -8 -10 -17 -10 -15 0 -16 -2 -3 -10 10 -6 17 -5 23
5 4 8 15 12 25 9 14 -5 15 -4 2 5 -19 13 -30 14 -30 1z"/>
<path d="M6750 9391 c0 -6 4 -12 8 -15 5 -3 9 1 9 9 0 8 -4 15 -9 15 -4 0 -8
-4 -8 -9z"/>
<path d="M6862 9384 c-11 -12 -9 -13 7 -11 27 4 35 13 19 20 -7 2 -19 -2 -26
-9z"/>
<path d="M6912 9372 c1 -18 6 -32 10 -32 5 0 5 12 2 28 -10 39 -15 41 -12 4z"/>
<path d="M5780 9340 c0 -5 5 -10 11 -10 5 0 7 5 4 10 -3 6 -8 10 -11 10 -2 0
-4 -4 -4 -10z"/>
<path d="M6200 9346 c0 -2 8 -10 18 -17 15 -13 16 -12 3 4 -13 16 -21 21 -21
13z"/>
<path d="M5661 9330 c-9 -5 -4 -7 13 -7 29 0 32 2 13 10 -8 3 -20 2 -26 -3z"/>
<path d="M5710 9314 c0 -8 -4 -13 -9 -10 -5 4 -8 -5 -6 -19 1 -14 -1 -25 -5
-25 -4 0 -11 -7 -14 -16 -5 -14 -4 -15 8 -5 8 7 16 8 18 4 3 -4 4 -3 2 3 -1 6
3 17 9 24 9 10 9 11 0 6 -20 -11 -15 8 7 32 17 18 18 22 5 22 -8 0 -15 -7 -15
-16z"/>
<path d="M5820 9315 c0 -8 2 -15 4 -15 2 0 6 7 10 15 3 8 1 15 -4 15 -6 0 -10
-7 -10 -15z"/>
<path d="M6440 9325 c0 -7 30 -13 34 -7 3 4 -4 9 -15 9 -10 1 -19 0 -19 -2z"/>
<path d="M5762 9300 c-10 -16 -10 -20 0 -18 7 2 12 -3 11 -9 -3 -15 13 -17 21
-4 3 5 -1 11 -9 15 -8 3 -12 12 -9 21 9 21 1 19 -14 -5z"/>
<path d="M5633 9304 c4 -4 2 -13 -4 -21 -15 -17 -1 -17 16 1 12 12 12 15 -2
21 -10 3 -14 3 -10 -1z"/>
<path d="M5870 9292 c0 -5 7 -9 15 -9 8 0 12 4 9 9 -3 4 -9 8 -15 8 -5 0 -9
-4 -9 -8z"/>
<path d="M6900 9290 c-9 -6 -10 -10 -3 -10 6 0 15 5 18 10 8 12 4 12 -15 0z"/>
<path d="M6970 9284 c0 -9 5 -12 12 -8 8 5 9 2 5 -9 -3 -10 -2 -17 2 -17 12 0
19 21 13 38 -6 17 -32 15 -32 -4z"/>
<path d="M6810 9266 c0 -2 7 -7 16 -10 8 -3 12 -2 9 4 -6 10 -25 14 -25 6z"/>
<path d="M6856 9262 c-3 -5 1 -9 9 -9 8 0 15 4 15 9 0 4 -4 8 -9 8 -6 0 -12
-4 -15 -8z"/>
<path d="M5727 9246 c-4 -10 0 -12 15 -8 16 4 19 2 13 -8 -5 -9 -4 -11 3 -6
16 10 15 14 -7 25 -14 8 -20 7 -24 -3z"/>
<path d="M6950 9253 c1 -14 30 -48 30 -34 0 7 -7 19 -15 27 -8 9 -15 12 -15 7z"/>
<path d="M7010 9248 c0 -9 -6 -19 -12 -21 -10 -4 -10 -6 0 -6 14 -1 28 26 18
36 -3 4 -6 -1 -6 -9z"/>
<path d="M6445 9240 c3 -5 8 -10 11 -10 2 0 4 5 4 10 0 6 -5 10 -11 10 -5 0
-7 -4 -4 -10z"/>
<path d="M6716 9235 c4 -8 11 -15 16 -15 6 0 5 6 -2 15 -7 8 -14 15 -16 15 -2
0 -1 -7 2 -15z"/>
<path d="M5485 9232 c-16 -11 -12 -51 5 -62 13 -9 8 -14 -12 -12 -3 1 -9 -5
-12 -14 -3 -8 -2 -12 4 -9 6 3 10 0 10 -7 0 -7 8 -1 17 12 10 14 17 38 16 55
-1 16 1 22 3 12 4 -13 11 -16 27 -11 30 9 41 20 28 28 -6 4 -11 2 -11 -3 0
-16 -26 -13 -40 4 -14 17 -20 18 -35 7z m12 -27 c0 -8 -4 -12 -9 -9 -5 3 -6
10 -3 15 9 13 12 11 12 -6z"/>
<path d="M5991 9224 c0 -11 3 -14 6 -6 3 7 2 16 -1 19 -3 4 -6 -2 -5 -13z"/>
<path d="M6850 9230 c0 -5 5 -10 11 -10 5 0 7 5 4 10 -3 6 -8 10 -11 10 -2 0
-4 -4 -4 -10z"/>
<path d="M6271 9214 c0 -11 3 -14 6 -6 3 7 2 16 -1 19 -3 4 -6 -2 -5 -13z"/>
<path d="M6880 9226 c0 -2 7 -6 15 -10 8 -3 15 -1 15 4 0 6 -7 10 -15 10 -8 0
-15 -2 -15 -4z"/>
<path d="M6446 9208 c3 -4 11 -5 19 -1 21 7 19 12 -4 10 -11 0 -18 -5 -15 -9z"/>
<path d="M5705 9201 c-3 -5 -2 -12 3 -15 5 -3 9 1 9 9 0 17 -3 19 -12 6z"/>
<path d="M5770 9190 c0 -5 5 -10 11 -10 5 0 7 5 4 10 -3 6 -8 10 -11 10 -2 0
-4 -4 -4 -10z"/>
<path d="M6305 9190 c3 -5 8 -10 11 -10 2 0 4 5 4 10 0 6 -5 10 -11 10 -5 0
-7 -4 -4 -10z"/>
<path d="M6490 9175 c0 -8 4 -15 10 -15 5 0 7 7 4 15 -4 8 -8 15 -10 15 -2 0
-4 -7 -4 -15z"/>
<path d="M6550 9187 c10 -9 70 -16 70 -9 0 4 -17 9 -37 10 -21 2 -35 1 -33 -1z"/>
<path d="M5963 9166 c-9 -11 -9 -15 0 -19 7 -3 14 3 14 14 2 22 2 22 -14 5z"/>
<path d="M6676 9173 c7 -4 14 -17 17 -28 5 -16 5 -15 4 4 -1 14 -9 26 -17 28
-10 3 -11 2 -4 -4z"/>
<path d="M5530 9158 c0 -9 4 -18 9 -20 5 -1 3 -9 -5 -16 -12 -11 -14 -10 -14
3 0 8 -4 15 -8 15 -16 0 -9 -27 10 -39 14 -9 18 -8 18 3 0 8 5 16 12 18 8 3 7
11 -5 28 -13 18 -17 20 -17 8z"/>
<path d="M6423 9149 c-6 -20 -7 -21 -19 -5 -11 15 -12 14 -10 -8 0 -13 4 -23
7 -21 3 2 12 -5 19 -16 8 -10 19 -19 25 -19 17 0 16 47 -1 54 -9 4 -14 13 -10
21 3 8 3 15 0 15 -3 0 -8 -10 -11 -21z m27 -40 c0 -4 -7 -6 -15 -3 -8 4 -15
10 -15 15 0 4 7 6 15 3 8 -4 15 -10 15 -15z"/>
<path d="M6710 9166 c0 -2 7 -9 15 -16 13 -11 14 -10 9 4 -5 14 -24 23 -24 12z"/>
<path d="M5793 9133 c0 -9 4 -10 14 -2 7 6 13 12 13 14 0 1 -6 2 -13 2 -8 0
-14 -6 -14 -14z"/>
<path d="M5875 9140 c-3 -6 1 -7 9 -4 18 7 21 14 7 14 -6 0 -13 -4 -16 -10z"/>
<path d="M6470 9138 c0 -18 18 -34 28 -24 3 4 -2 14 -11 23 -16 16 -17 16 -17
1z"/>
<path d="M6530 9129 c0 -5 -4 -8 -8 -5 -5 3 -9 -1 -9 -8 0 -8 6 -12 14 -9 12
5 19 33 8 33 -3 0 -5 -5 -5 -11z"/>
<path d="M6203 9113 c-3 -10 -8 -21 -10 -25 -2 -4 1 -9 6 -12 5 -3 11 8 13 24
5 33 1 39 -9 13z"/>
<path d="M6553 9115 c0 -8 4 -12 9 -9 5 3 6 10 3 15 -9 13 -12 11 -12 -6z"/>
<path d="M6730 9119 c0 -5 5 -7 10 -4 6 3 10 8 10 11 0 2 -4 4 -10 4 -5 0 -10
-5 -10 -11z"/>
<path d="M6146 9103 c-6 -14 -5 -15 5 -6 7 7 10 15 7 18 -3 3 -9 -2 -12 -12z"/>
<path d="M6330 9105 c-9 -10 -9 -15 -1 -15 6 0 11 6 11 13 0 8 4 7 10 -3 8
-13 10 -12 10 3 0 21 -13 22 -30 2z"/>
<path d="M6630 9110 c0 -5 4 -10 9 -10 6 0 13 5 16 10 3 6 -1 10 -9 10 -9 0
-16 -4 -16 -10z"/>
<path d="M5855 9100 c-3 -5 -4 -14 -1 -19 4 -5 0 -12 -6 -15 -7 -3 -4 -5 6 -3
11 1 21 8 24 16 3 9 0 11 -8 6 -10 -6 -12 -4 -7 8 7 19 2 23 -8 7z"/>
<path d="M6276 9098 c5 -8 2 -9 -10 -5 -13 5 -17 2 -14 -10 2 -9 9 -18 16 -19
8 -2 9 -1 1 3 -8 4 -4 10 11 18 19 10 20 13 6 18 -12 5 -15 3 -10 -5z"/>
<path d="M6664 9095 c-16 -12 -17 -14 -2 -15 9 0 19 6 22 13 4 6 4 2 2 -10 -2
-13 0 -23 5 -23 5 0 9 11 9 25 0 29 -8 31 -36 10z"/>
<path d="M6771 9096 c-10 -12 -8 -13 8 -9 12 3 18 9 15 14 -7 12 -10 11 -23
-5z"/>
<path d="M5945 9090 c-3 -5 -1 -10 4 -10 6 0 11 5 11 10 0 6 -2 10 -4 10 -3 0
-8 -4 -11 -10z"/>
<path d="M5989 9088 c11 -14 11 -18 1 -18 -8 0 -11 -3 -8 -6 9 -9 48 15 48 29
0 8 -3 7 -9 -2 -8 -13 -12 -13 -28 0 -16 13 -17 13 -4 -3z"/>
<path d="M6737 9083 c-4 -3 -7 -11 -7 -17 0 -6 5 -5 12 2 6 6 9 14 7 17 -3 3
-9 2 -12 -2z"/>
<path d="M5522 9064 c-7 -8 -8 -14 -3 -14 10 0 25 19 20 25 -2 1 -10 -3 -17
-11z"/>
<path d="M6205 9050 c-16 -18 -16 -20 -1 -26 9 -4 20 -4 23 0 4 3 -1 6 -11 6
-9 0 -14 5 -11 10 4 6 10 8 14 6 4 -3 8 1 8 9 0 19 0 19 -22 -5z"/>
<path d="M6370 9059 c0 -5 5 -7 10 -4 6 3 10 8 10 11 0 2 -4 4 -10 4 -5 0 -10
-5 -10 -11z"/>
<path d="M6150 9051 c0 -6 4 -12 8 -15 5 -3 9 1 9 9 0 8 -4 15 -9 15 -4 0 -8
-4 -8 -9z"/>
<path d="M6655 9049 c-4 -6 -5 -12 -2 -15 2 -3 7 2 10 11 7 17 1 20 -8 4z"/>
<path d="M6615 9030 c-3 -5 -1 -10 4 -10 6 0 11 5 11 10 0 6 -2 10 -4 10 -3 0
-8 -4 -11 -10z"/>
<path d="M5977 9016 c-12 -10 -15 -16 -7 -21 13 -8 23 0 26 20 3 18 4 18 -19
1z"/>
<path d="M6078 9008 c-10 -10 -14 -18 -9 -18 10 0 36 29 30 34 -2 1 -12 -6
-21 -16z"/>
<path d="M6267 9023 c-11 -11 -8 -21 9 -27 13 -5 14 -4 6 7 -7 8 -9 17 -5 20
3 4 4 7 1 7 -2 0 -8 -3 -11 -7z"/>
<path d="M5555 9010 c3 -5 8 -10 11 -10 2 0 4 5 4 10 0 6 -5 10 -11 10 -5 0
-7 -4 -4 -10z"/>
<path d="M6332 9000 c0 -14 2 -19 5 -12 2 6 2 18 0 25 -3 6 -5 1 -5 -13z"/>
<path d="M6370 9016 c0 -2 8 -10 18 -17 15 -13 16 -12 3 4 -13 16 -21 21 -21
13z"/>
<path d="M6185 9000 c-3 -5 -1 -10 4 -10 6 0 11 5 11 10 0 6 -2 10 -4 10 -3 0
-8 -4 -11 -10z"/>
<path d="M6370 8981 c0 -6 4 -13 10 -16 6 -3 7 1 4 9 -7 18 -14 21 -14 7z"/>
<path d="M5870 8961 c0 -5 5 -13 10 -16 6 -3 10 -2 10 4 0 5 -4 13 -10 16 -5
3 -10 2 -10 -4z"/>
<path d="M5945 8920 c3 -5 8 -10 11 -10 2 0 4 5 4 10 0 6 -5 10 -11 10 -5 0
-7 -4 -4 -10z"/>
<path d="M6145 8910 c3 -5 8 -10 11 -10 2 0 4 5 4 10 0 6 -5 10 -11 10 -5 0
-7 -4 -4 -10z"/>
<path d="M6010 8881 c0 -5 7 -14 15 -21 12 -10 15 -10 15 3 0 8 -7 17 -15 21
-8 3 -15 2 -15 -3z"/>
<path d="M12614 21184 c3 -9 6 -19 6 -22 0 -9 20 21 20 31 0 4 -7 7 -16 7 -11
0 -14 -5 -10 -16z"/>
<path d="M12400 21150 c-13 -8 -12 -10 3 -10 9 0 17 5 17 10 0 12 -1 12 -20 0z"/>
<path d="M12322 21064 c-7 -8 -8 -14 -3 -14 10 0 25 19 20 25 -2 1 -10 -3 -17
-11z"/>
<path d="M10320 21060 c0 -5 5 -10 10 -10 6 0 10 5 10 10 0 6 -4 10 -10 10 -5
0 -10 -4 -10 -10z"/>
<path d="M12321 21017 c-8 -11 -5 -13 19 -9 17 2 33 8 36 13 9 14 -42 10 -55
-4z"/>
<path d="M12220 20998 c0 -4 -9 -8 -19 -8 -11 0 -23 -5 -27 -12 -10 -16 53 -2
72 16 12 13 12 15 -6 13 -11 -1 -20 -5 -20 -9z"/>
<path d="M12261 20986 c-10 -12 -8 -13 9 -9 25 7 37 23 17 23 -8 0 -20 -6 -26
-14z"/>
<path d="M10740 20960 c-12 -8 -9 -10 13 -10 16 0 26 4 22 10 -8 12 -16 12
-35 0z"/>
<path d="M11910 20950 c-13 -8 -12 -10 3 -10 9 0 17 5 17 10 0 12 -1 12 -20 0z"/>
<path d="M11470 20930 c0 -5 7 -7 15 -4 8 4 15 8 15 10 0 2 -7 4 -15 4 -8 0
-15 -4 -15 -10z"/>
<path d="M11652 20929 c-38 -14 -24 -20 31 -14 48 6 51 5 33 -9 -20 -16 -20
-16 0 -16 19 1 61 27 53 34 -10 8 -97 12 -117 5z"/>
<path d="M11787 20924 c-14 -14 -7 -25 13 -22 12 2 21 8 21 13 0 12 -24 18
-34 9z"/>
</g>
</svg>
